<svg width="14" height="14" viewBox="0 0 14 14" fill="none" xmlns="http://www.w3.org/2000/svg">
<path d="M13.5458 6.53831L11.9933 6.03789C11.0003 5.71022 10.4185 4.90664 10.1454 3.89688L9.46222 0.5689C9.44438 0.503143 9.40092 0.415095 9.26717 0.415095C9.15461 0.415095 9.08997 0.503143 9.07213 0.5689L8.38893 3.898C8.11475 4.90776 7.53408 5.71133 6.54104 6.039L4.9885 6.53943C4.76894 6.61076 4.7656 6.9206 4.98404 6.99527L6.54773 7.53359C7.53743 7.86237 8.11475 8.66483 8.38893 9.67014L9.07325 12.9613C9.09108 13.0271 9.12786 13.1452 9.26829 13.1452C9.41652 13.1452 9.4455 13.0271 9.46333 12.9613L10.1477 9.67014C10.4218 8.66372 10.9992 7.86126 11.9889 7.53359L13.5525 6.99527C13.7688 6.91948 13.7654 6.60964 13.5458 6.53831V6.53831Z" fill="#FDD835"/>
<path d="M13.6929 6.67763C13.6684 6.61633 13.6205 6.56283 13.5458 6.53831L11.9933 6.03789C11.0002 5.71022 10.4184 4.90665 10.1454 3.89688L9.46218 0.568901C9.45215 0.531007 9.41648 0.461906 9.37524 0.441845L9.59592 3.78209C9.75976 5.30676 9.90019 6.02452 11.1173 6.23405C12.1627 6.4146 13.3719 6.6219 13.6929 6.67763V6.67763Z" fill="#FFEE58"/>
<path d="M13.6963 6.8515L11.0036 7.46895C10.0551 7.70968 9.53239 8.25915 9.53239 9.69689L9.26825 13.1452C9.35853 13.1363 9.43209 13.0873 9.46329 12.9613L10.1476 9.67014C10.4218 8.66372 10.9991 7.86126 11.9888 7.53359L13.5525 6.99527C13.6261 6.96852 13.6729 6.91391 13.6963 6.8515V6.8515Z" fill="#F4B400"/>
<path d="M4.65413 9.43386C3.72573 9.12736 3.64103 8.78186 3.48499 8.19896L3.09602 6.83478C3.07262 6.74673 2.84302 6.74673 2.8185 6.83478L2.55436 8.09531C2.39721 8.67598 2.06285 9.13739 1.49222 9.32575L0.582761 9.72029C0.456819 9.76153 0.45459 9.93985 0.580532 9.98221L1.49667 10.3065C2.06508 10.4949 2.39721 10.9563 2.55548 11.5347L2.81962 12.7407C2.84414 12.8287 3.07262 12.8287 3.09602 12.7407L3.40586 11.5403C3.56301 10.9585 3.80375 10.496 4.57611 10.3065L5.43653 9.98221C5.56247 9.93874 5.56136 9.76041 5.4343 9.71918L4.65413 9.43386Z" fill="#FDD835"/>
<path d="M3.16957 8.1789C3.26431 9.05492 3.31223 9.29788 4.02219 9.47955L5.50116 9.76821C5.48556 9.74704 5.46327 9.72921 5.43318 9.72029L4.65301 9.43386C3.83829 9.15522 3.61315 8.8008 3.46046 8.09196C3.30777 7.38312 3.14505 6.9206 3.14505 6.9206C3.08821 6.7679 3.00685 6.77571 3.00685 6.77571L3.16957 8.1789Z" fill="#FFEE58"/>
<path d="M3.19625 11.2372C3.19625 10.4113 3.64764 10.0023 4.36539 10.0023L5.48215 9.95657C5.48215 9.95657 5.41751 10.0424 5.30494 10.0691L4.57604 10.3065C3.95747 10.5551 3.6755 10.6799 3.4838 11.5258C3.4838 11.5258 3.23637 12.51 3.18956 12.6136C3.12492 12.7585 3.04802 12.7886 3.04802 12.7886L3.19625 11.2372Z" fill="#F4B400"/>
<path d="M6.6524 2.89492C6.71481 2.87374 6.71258 2.78458 6.64906 2.76675L5.78864 2.53493C5.60809 2.48589 5.46766 2.34657 5.41639 2.16713L5.07757 0.768399C5.06085 0.700412 4.96389 0.700412 4.94717 0.769513L4.62842 2.16267C4.57938 2.34768 4.43449 2.49034 4.24948 2.53827L3.39463 2.76006C3.3311 2.77678 3.32665 2.86594 3.38906 2.88823L4.29071 3.2003C4.45232 3.25603 4.57715 3.38754 4.62619 3.55138L4.94829 4.84311C4.965 4.90999 5.06085 4.9111 5.07757 4.84311L5.41081 3.54692C5.46097 3.38308 5.58691 3.25268 5.74963 3.19807L6.6524 2.89492Z" fill="#F4B400" stroke="#F4B400" stroke-width="0.259144" stroke-miterlimit="10"/>
</svg>
