<svg xmlns="http://www.w3.org/2000/svg" width="14" height="14" fill="none" viewBox="0 0 14 14"><path fill="url(#paint0_linear_302_771)" d="M2.08375 10.221C1.04824 11.2565 0.992538 13.144 0.992538 13.144C0.992538 13.144 2.87873 13.0883 3.9155 12.0528C4.95228 11.0173 5.38142 9.76781 4.87506 9.26271C4.3687 8.75635 3.11925 9.18549 2.08375 10.221V10.221Z"/><path fill="#424242" d="M4.28388 9.30323C4.46491 9.30323 4.60289 9.35007 4.6953 9.44121C5.04342 9.78934 4.73454 10.8742 3.73575 11.8743C3.01418 12.5958 1.81284 12.8085 1.2685 12.8693C1.32927 12.3249 1.54194 11.1236 2.26224 10.402C2.92937 9.73364 3.72309 9.30323 4.28388 9.30323ZM4.28388 9.05005C3.67498 9.05005 2.8243 9.48046 2.08375 10.2223C1.04824 11.2578 0.992538 13.1452 0.992538 13.1452C0.992538 13.1452 2.87873 13.0895 3.9155 12.054C4.95228 11.0185 5.38142 9.76908 4.87506 9.26399C4.73075 9.11714 4.52694 9.05005 4.28388 9.05005Z" opacity=".2"/><path fill="url(#paint1_linear_302_771)" d="M2.39759 10.5856C1.74565 11.2375 1.71021 12.4249 1.71021 12.4249C1.71021 12.4249 2.89762 12.3895 3.54956 11.7376C4.2015 11.0856 4.4724 10.2982 4.15339 9.98048C3.83439 9.66274 3.05079 9.93238 2.39759 10.5856V10.5856Z"/><path fill="#546E7A" d="M3.73448 10.597C4.35477 11.259 5.16875 11.1894 5.23584 11.0805L5.80296 10.159C5.83714 10.1033 5.8055 10.0147 5.78144 9.99187L4.25097 8.4614C4.22692 8.43735 4.1421 8.4095 4.0864 8.44368L3.16483 9.0108C3.05722 9.07789 2.9357 9.74249 3.73448 10.597V10.597Z"/><path fill="#0288D1" d="M7.90185 12.2806C7.77526 12.3832 7.60563 12.3604 7.58411 12.2085C7.52461 11.7882 7.56385 10.9438 7.0347 10.4147C6.51822 9.8982 5.67892 9.82225 5.67892 9.82225L8.83861 8.26519C8.83861 8.26519 9.43359 9.18297 9.10572 10.4894C8.83229 11.5692 8.36517 11.9021 7.90185 12.2806V12.2806Z"/><path fill="#424242" d="M8.66009 8.77535C8.68288 8.83738 8.70693 8.90827 8.72845 8.98675C8.81453 9.3007 8.88669 9.80073 8.73605 10.3957C8.54489 11.1578 8.2588 11.4844 7.92334 11.7705C7.8803 11.2869 7.78662 10.6286 7.30178 10.1451C7.12455 9.96783 6.91695 9.83364 6.71314 9.73363L8.66009 8.77535ZM8.83732 8.26519L5.67763 9.82225C5.67763 9.82225 6.51819 9.89947 7.03341 10.4147C7.56255 10.9438 7.52331 11.7882 7.58281 12.2085C7.59547 12.2984 7.66129 12.3439 7.73851 12.3439C7.79168 12.3439 7.84991 12.3224 7.90055 12.2806C8.36387 11.9021 8.83099 11.5692 9.10316 10.4894C9.43356 9.1817 8.83732 8.26519 8.83732 8.26519V8.26519Z" opacity=".2"/><path fill="#0288D1" d="M1.89391 6.45368C1.76985 6.56001 1.81416 6.7499 1.96606 6.77142C2.38634 6.83092 3.2307 6.79167 3.75985 7.32082C4.27634 7.83731 4.38394 8.569 4.38394 8.569L5.91061 5.33715C5.91061 5.33715 5.10297 4.95865 3.92821 5.26373C3.11804 5.47513 2.31419 6.09163 1.89391 6.45368V6.45368Z"/><path fill="#424242" d="M4.83957 5.52451C5.05098 5.52451 5.23326 5.5473 5.37758 5.57515L4.42815 7.58793C4.32688 7.4069 4.19649 7.22082 4.02813 7.05372C3.57873 6.60432 2.98123 6.49166 2.51031 6.44355C2.9192 6.13214 3.47493 5.77516 4.0218 5.63211C4.29523 5.55995 4.56993 5.52451 4.83957 5.52451M4.83957 5.14474C4.57246 5.14474 4.26485 5.17639 3.92812 5.26373C3.11794 5.47514 2.31536 6.09163 1.89508 6.45368C1.77103 6.56002 1.81533 6.7499 1.96724 6.77142C2.38752 6.83092 3.23188 6.79168 3.76102 7.32082C4.27751 7.83731 4.38511 8.569 4.38511 8.569L5.91052 5.33716C5.91052 5.33716 5.50037 5.14474 4.83957 5.14474V5.14474Z" opacity=".2"/><path fill="#424242" d="M4.12187 8.86902L5.37765 10.1248L4.98142 10.7691C4.96876 10.7704 4.95484 10.7704 4.93965 10.7704C4.81685 10.7704 4.38898 10.7388 4.01174 10.3362C3.53449 9.82604 3.45981 9.42729 3.46614 9.27158L4.12187 8.86902ZM4.14846 8.42722C4.12694 8.42722 4.10542 8.43229 4.08643 8.44241L3.16485 9.00954C3.05598 9.07663 2.93446 9.74123 3.73324 10.5957C4.1396 11.0299 4.6295 11.1502 4.93838 11.1502C5.10042 11.1502 5.21181 11.1173 5.2346 11.0793L5.80172 10.1577C5.8359 10.102 5.80426 10.0134 5.7802 9.99061L4.251 8.4614C4.2358 8.44621 4.19276 8.42722 4.14846 8.42722V8.42722Z" opacity=".2"/><path fill="url(#paint2_radial_302_771)" d="M9.91958 1.11664C10.4323 1.3521 11.1235 1.75719 11.783 2.41672C12.0159 2.64965 12.2147 2.88764 12.3868 3.12056C12.7198 3.56996 12.9476 3.9991 13.097 4.33456C12.7641 5.2093 12.1362 6.22708 11.5222 6.84105C9.01446 9.3488 6.24467 10.7805 4.81167 9.76655C4.72812 9.70705 4.64584 9.65261 4.57115 9.58552C3.34196 8.48039 4.74964 5.3169 7.30676 2.75978C7.94857 2.11797 9.01826 1.46223 9.91958 1.11664V1.11664Z"/><path fill="#455A64" d="M9.25243 5.87516C9.87466 5.87516 10.3791 5.37074 10.3791 4.74851C10.3791 4.12628 9.87466 3.62186 9.25243 3.62186C8.6302 3.62186 8.12578 4.12628 8.12578 4.74851C8.12578 5.37074 8.6302 5.87516 9.25243 5.87516Z"/><path fill="#424242" d="M9.25254 3.87504C9.48546 3.87504 9.70573 3.96618 9.8703 4.13075C10.0349 4.29532 10.126 4.51559 10.126 4.74851C10.126 4.98144 10.0349 5.2017 9.8703 5.36627C9.70573 5.53084 9.48546 5.62198 9.25254 5.62198C9.01961 5.62198 8.79934 5.53084 8.63478 5.36627C8.29425 5.02574 8.29425 4.47128 8.63478 4.13075C8.79934 3.96618 9.01835 3.87504 9.25254 3.87504M9.25254 3.62186C8.96391 3.62186 8.67529 3.73199 8.45502 3.95226C8.01449 4.39279 8.01449 5.10549 8.45502 5.54603C8.67529 5.7663 8.96391 5.87643 9.25254 5.87643C9.54116 5.87643 9.82979 5.7663 10.0501 5.54603C10.4906 5.10549 10.4906 4.39279 10.0501 3.95226C9.82979 3.73199 9.54116 3.62186 9.25254 3.62186V3.62186Z" opacity=".2"/><path fill="#455A64" d="M6.92837 8.031C7.37861 8.031 7.74361 7.666 7.74361 7.21575C7.74361 6.76551 7.37861 6.40051 6.92837 6.40051C6.47812 6.40051 6.11313 6.76551 6.11313 7.21575C6.11313 7.666 6.47812 8.031 6.92837 8.031Z"/><path fill="#E53935" d="M9.91961 1.11664C9.68542 2.27241 11.7261 4.53584 13.097 4.33456C13.5236 3.23196 13.6983 2.48381 13.8148 1.19639C13.8743 0.544453 13.6831 0.358365 13.0793 0.429256C11.4779 0.616609 10.845 0.738136 9.91961 1.11664Z"/><path fill="#424242" d="M13.2958 0.795139C13.3717 0.795139 13.4097 0.804 13.4236 0.809064C13.4338 0.83185 13.4591 0.920463 13.4376 1.16225C13.3249 2.40916 13.1629 3.11807 12.7438 4.19915C12.4223 5.04097 11.8096 6.01698 11.2539 6.57271C9.31578 8.51081 7.28021 9.71595 5.94088 9.71595C5.5801 9.71595 5.27375 9.6286 5.0307 9.45644L4.98893 9.42732C4.92436 9.38301 4.86993 9.34377 4.82436 9.30326C4.61928 9.11844 4.51041 8.83614 4.50029 8.46397C4.46484 7.10945 5.72821 4.87387 7.5739 3.02819C8.15241 2.44967 9.17273 1.80913 10.0538 1.4724L10.0614 1.4686C10.9564 1.10275 11.5792 0.987556 13.1211 0.806532C13.1882 0.798937 13.2464 0.795139 13.2958 0.795139M13.2958 0.415369C13.2299 0.415369 13.1591 0.420432 13.0793 0.429294C11.4779 0.616647 10.845 0.738173 9.91961 1.11668C9.01829 1.461 7.9486 2.11674 7.30679 2.75855C4.74967 5.31567 3.34199 8.47916 4.57118 9.58429C4.6446 9.65012 4.72688 9.70582 4.8117 9.76532C5.12817 9.98938 5.51048 10.0945 5.94088 10.0945C7.45743 10.0945 9.56896 8.79437 11.5235 6.84108C12.1375 6.22712 12.7654 5.20934 13.0983 4.3346C13.5249 3.232 13.6996 2.48385 13.8161 1.19643C13.8654 0.630572 13.7287 0.415369 13.2958 0.415369V0.415369Z" opacity=".2"/><path fill="#424242" d="M6.92837 6.65369C7.07901 6.65369 7.21952 6.71192 7.32586 6.81826C7.43219 6.92459 7.49043 7.06511 7.49043 7.21575C7.49043 7.36639 7.43219 7.50691 7.32586 7.61324C7.21952 7.71958 7.07901 7.77781 6.92837 7.77781C6.77772 7.77781 6.63721 7.71958 6.53087 7.61324C6.42454 7.50691 6.36631 7.36639 6.36631 7.21575C6.36631 7.06511 6.42454 6.92459 6.53087 6.81826C6.63847 6.71192 6.77899 6.65369 6.92837 6.65369M6.92837 6.40051C6.71949 6.40051 6.51188 6.48026 6.35238 6.63976C6.03464 6.95751 6.03464 7.47399 6.35238 7.79173C6.51188 7.95124 6.71949 8.03099 6.92837 8.03099C7.13724 8.03099 7.34485 7.95124 7.50435 7.79173C7.82209 7.47399 7.82209 6.95751 7.50435 6.63976C7.34611 6.48026 7.13724 6.40051 6.92837 6.40051V6.40051Z" opacity=".2"/><defs><linearGradient id="paint0_linear_302_771" x1="5.086" x2=".991" y1="11.097" y2="11.097" gradientUnits="userSpaceOnUse"><stop stop-color="#FF6D00"/><stop offset=".249" stop-color="#FF9B00"/><stop offset=".513" stop-color="#FFC600"/><stop offset=".721" stop-color="#FFE000"/><stop offset=".844" stop-color="#FFEA00"/></linearGradient><linearGradient id="paint1_linear_302_771" x1="3.697" x2="1.577" y1="10.417" y2="12.601" gradientUnits="userSpaceOnUse"><stop offset=".004" stop-color="#C62828"/><stop offset=".271" stop-color="#D75327"/><stop offset=".598" stop-color="#E98126"/><stop offset=".85" stop-color="#F59D25"/><stop offset=".995" stop-color="#F9A825"/></linearGradient><radialGradient id="paint2_radial_302_771" cx="0" cy="0" r="1" gradientTransform="translate(9.65248 2.89017) rotate(180) scale(4.61712)" gradientUnits="userSpaceOnUse"><stop offset=".011" stop-color="#F5F5F5"/><stop offset="1" stop-color="#BDBDBD"/></radialGradient></defs></svg>