<svg width="74" height="74" viewBox="0 0 74 74" fill="none" xmlns="http://www.w3.org/2000/svg">
<path d="M37.1515 54.5333C33.5065 49.9609 31.3632 45.9547 30.6487 42.5227C29.9397 39.7566 30.2201 37.5432 31.4333 35.8798C32.7192 33.9656 34.6334 33.0355 37.1488 33.0355C39.6641 33.0355 41.5756 33.9656 42.8616 35.8987C44.064 37.5432 44.3659 39.7593 43.6326 42.5416C42.8481 46.041 40.7075 50.0472 37.1326 54.5549L37.1515 54.5333ZM63.0249 57.6068C62.5261 60.9633 60.2372 63.7482 57.0937 65.107C51.025 67.7491 45.0157 63.5353 39.8717 57.8198C48.3776 47.1706 49.9493 38.8804 46.2989 33.5181C44.1556 30.4447 41.0876 28.9484 37.1515 28.9484C29.2172 28.9484 24.855 35.6614 26.5697 43.4528C27.5672 47.6694 30.212 52.4628 34.4285 57.8224C31.7864 60.7449 29.2819 62.8235 27.0685 64.1095C25.3538 65.0369 23.7119 65.6112 22.1402 65.7487C14.923 66.8244 9.26414 59.8229 11.8334 52.6003C12.1893 51.6702 12.8983 49.9582 14.1115 47.3135L14.1789 47.1706C18.1232 38.6081 22.9139 28.8756 28.4191 18.0809L28.562 17.725L30.1257 14.719C31.3389 12.5029 31.8377 11.5107 33.768 10.2895C34.6981 9.726 35.8412 9.44292 37.1245 9.44292C39.6965 9.44292 41.6996 10.9446 42.5569 12.1551C42.9829 12.7994 43.487 13.6568 44.126 14.7244L45.6303 17.6576L45.846 18.0863C51.3458 28.8756 56.142 38.5893 60.0701 47.1733L60.1402 47.2407L61.5771 50.5298L62.4344 52.5895C63.0896 54.2395 63.2271 55.8813 63.0087 57.596L63.0249 57.6068ZM66.3113 51.1661C65.8098 49.5943 64.9525 47.7395 63.8849 45.5233V45.4425C58.7975 34.645 54.0715 24.9395 49.5854 16.2179L49.2861 15.7812C46.0887 9.22455 43.7998 5.28571 37.1515 5.28571C30.5786 5.28571 27.7856 9.85271 24.9305 15.792L24.7122 16.2233C20.2152 24.9422 15.4919 34.6612 10.4207 45.4533V45.5961L8.91636 48.8825C8.3502 50.2413 8.06173 50.9531 7.98624 51.1661C4.34666 61.1736 11.8469 69.9625 20.927 69.9625C20.9998 69.9625 21.2829 69.9625 21.6387 69.8897H22.6416C27.3596 69.3155 32.2205 66.3175 37.1515 60.9498C42.0797 66.3094 46.946 69.3155 51.6559 69.8897H52.6588C53.0147 69.9625 53.3004 69.9625 53.3705 69.9625C62.4506 69.9706 69.9509 61.1736 66.3113 51.1661V51.1661Z" fill="black" stroke="black"/>
</svg>
