<svg xmlns="http://www.w3.org/2000/svg" width="18" height="18" fill="none" viewBox="0 0 18 18"><g clip-path="url(#clip0_302_747)"><path stroke="#000" stroke-linecap="round" stroke-linejoin="round" stroke-width="1.061" d="M8.62746 12.2598C10.1898 12.2598 11.4564 10.9932 11.4564 9.43086C11.4564 7.86849 10.1898 6.60194 8.62746 6.60194C7.06509 6.60194 5.79854 7.86849 5.79854 9.43086C5.79854 10.9932 7.06509 12.2598 8.62746 12.2598Z"/><path stroke="#000" stroke-linecap="round" stroke-linejoin="round" stroke-width="1.061" d="M11.4564 6.60195V10.1381C11.4564 10.7008 11.6799 11.2405 12.0778 11.6384C12.4757 12.0363 13.0154 12.2598 13.5781 12.2598C14.1408 12.2598 14.6804 12.0363 15.0783 11.6384C15.4762 11.2405 15.6998 10.7008 15.6998 10.1381V9.43087C15.6997 7.83467 15.1596 6.28544 14.1674 5.0351C13.1752 3.78476 11.7892 2.90683 10.2347 2.54407C8.68032 2.18131 7.04888 2.35506 5.60572 3.03706C4.16256 3.71906 2.99254 4.8692 2.28592 6.30047C1.5793 7.73174 1.37763 9.35996 1.71371 10.9204C2.04978 12.4808 2.90384 13.8816 4.137 14.8951C5.37017 15.9086 6.90991 16.4751 8.50587 16.5026C10.1018 16.53 11.6601 16.0168 12.9274 15.0463"/></g><defs><clipPath id="clip0_302_747"><rect width="16.974" height="16.974" fill="#fff" transform="translate(0.140701 0.944107)"/></clipPath></defs></svg>