<svg width="17" height="17" viewBox="0 0 17 17" fill="none" xmlns="http://www.w3.org/2000/svg">
<g clip-path="url(#clip0_302_404)">
<path d="M8.37154 10.9315C9.87923 10.9315 11.1014 9.7093 11.1014 8.20161C11.1014 6.69392 9.87923 5.4717 8.37154 5.4717C6.86385 5.4717 5.64163 6.69392 5.64163 8.20161C5.64163 9.7093 6.86385 10.9315 8.37154 10.9315Z" stroke="black" stroke-width="1.02372" stroke-linecap="round" stroke-linejoin="round"/>
<path d="M11.1014 5.4717V8.88409C11.1014 9.4271 11.3172 9.94787 11.7011 10.3318C12.0851 10.7158 12.6059 10.9315 13.1489 10.9315C13.6919 10.9315 14.2127 10.7158 14.5966 10.3318C14.9806 9.94787 15.1963 9.4271 15.1963 8.88409V8.20161C15.1962 6.66128 14.675 5.16628 13.7176 3.95969C12.7601 2.75311 11.4226 1.90591 9.92255 1.55585C8.42253 1.20579 6.8482 1.37345 5.45554 2.03158C4.06289 2.68971 2.93382 3.7996 2.25193 5.18078C1.57004 6.56195 1.37543 8.13318 1.69975 9.63898C2.02406 11.1448 2.84823 12.4966 4.03823 13.4746C5.22823 14.4526 6.71409 14.9993 8.25419 15.0258C9.79429 15.0523 11.2981 14.557 12.521 13.6205" stroke="black" stroke-width="1.02372" stroke-linecap="round" stroke-linejoin="round"/>
</g>
<defs>
<clipPath id="clip0_302_404">
<rect width="16.3794" height="16.3794" fill="white" transform="translate(0.181824 0.0118847)"/>
</clipPath>
</defs>
</svg>
