<svg xmlns="http://www.w3.org/2000/svg" width="18" height="18" fill="none" viewBox="0 0 18 18"><path fill="url(#paint0_linear_302_1095)" d="M10.6721 3.57988V5.05655H6.96607V3.57988H10.6721ZM11.1731 2.45081H6.46506C6.11867 2.45081 5.8382 2.73128 5.8382 3.07767V5.55757C5.8382 5.90396 6.11867 6.18443 6.46506 6.18443H11.1731C11.5195 6.18443 11.8 5.90396 11.8 5.55757V3.07767C11.8 2.73128 11.5195 2.45081 11.1731 2.45081V2.45081Z"/><path fill="url(#paint1_linear_302_1095)" d="M2.85246 5.08533H14.7869C15.3179 5.08533 15.7494 5.51562 15.7494 6.0478V14.0976C15.7494 14.6285 15.3191 15.06 14.7869 15.06H2.85246C2.32028 15.06 1.88998 14.6285 1.88998 14.0976L1.88998 6.0478C1.88998 5.51682 2.32028 5.08533 2.85246 5.08533V5.08533Z"/><path fill="url(#paint2_linear_302_1095)" d="M15.1573 4.64661H2.48093C2.02905 4.64661 1.66348 5.01218 1.66348 5.46405L1.66348 8.73262C1.66348 8.86207 1.72821 8.98073 1.83608 9.05384C3.42542 10.1314 6.14264 10.7187 8.8191 10.7726C11.4956 10.7187 14.2128 10.1314 15.8021 9.05384C15.9088 8.98193 15.9747 8.86207 15.9747 8.73262V5.46405C15.9747 5.01338 15.6091 4.64661 15.1573 4.64661V4.64661Z"/><path fill="#FFCA28" d="M9.83193 10.6588V11.7028C9.83193 11.7615 9.74443 11.8095 9.63656 11.8095H8.00168C7.8938 11.8095 7.8063 11.7615 7.8063 11.7028V10.6588C7.8063 10.6001 7.8938 10.5521 8.00168 10.5521H9.63656C9.74443 10.5521 9.83193 10.5989 9.83193 10.6588Z"/><path fill="#F9A825" d="M10.0764 10.3304V10.5653C10.0764 10.6732 9.98893 10.7607 9.88105 10.7607H7.75714C7.64927 10.7607 7.56177 10.6732 7.56177 10.5653V10.3304C7.56177 10.2225 7.64927 10.135 7.75714 10.135H9.87985C9.98892 10.135 10.0764 10.2225 10.0764 10.3304Z"/><path fill="#424242" d="M11.1731 2.81038C11.3206 2.81038 11.4404 2.93024 11.4404 3.07767V4.64663C11.4404 4.8456 11.601 5.00621 11.8 5.00621H15.1573C15.4102 5.00621 15.6151 5.21117 15.6151 5.46408V8.73265C15.6151 8.74104 15.6103 8.74943 15.6008 8.75542C15.596 8.75902 15.5912 8.76142 15.5852 8.76501C15.5732 8.7722 15.5612 8.77939 15.5492 8.78778C15.4485 8.85491 15.3874 8.96757 15.3874 9.08743V14.0976C15.3874 14.4296 15.1165 14.7005 14.7845 14.7005H2.85249C2.52048 14.7005 2.2496 14.4296 2.2496 14.0976V9.08743C2.2496 8.96638 2.18847 8.85371 2.08779 8.78778C2.0758 8.78059 2.06381 8.7722 2.05183 8.76501C2.04703 8.76142 2.04104 8.75902 2.03625 8.75542C2.02786 8.74943 2.02186 8.74104 2.02186 8.73265V5.46408C2.02186 5.21117 2.22682 5.00621 2.47973 5.00621H5.83699C6.03596 5.00621 6.19657 4.8456 6.19657 4.64663V3.07767C6.19657 2.93024 6.31643 2.81038 6.46386 2.81038L11.1731 2.81038ZM6.96607 5.00621H10.6721C10.8711 5.00621 11.0317 4.8456 11.0317 4.64663V3.57988C11.0317 3.38092 10.8711 3.2203 10.6721 3.2203H6.96607C6.76711 3.2203 6.60649 3.38092 6.60649 3.57988V4.64663C6.60649 4.8456 6.7683 5.00621 6.96607 5.00621M11.1731 2.45081L6.46506 2.45081C6.11866 2.45081 5.83819 2.73128 5.83819 3.07767V4.64663H2.48093C2.02905 4.64663 1.66348 5.01221 1.66348 5.46408L1.66348 8.73265C1.66348 8.8621 1.72821 8.98076 1.83608 9.05387C1.85286 9.06586 1.87204 9.07665 1.89002 9.08743L1.89002 14.0976C1.89002 14.6297 2.32151 15.06 2.85249 15.06H14.7869C15.3179 15.06 15.7494 14.6297 15.7494 14.0976V9.08743C15.7674 9.07545 15.7865 9.06466 15.8033 9.05387C15.91 8.98196 15.9759 8.8621 15.9759 8.73265V5.46408C15.9759 5.01221 15.6103 4.64663 15.1585 4.64663H11.8V3.07767C11.8 2.73128 11.5195 2.45081 11.1731 2.45081V2.45081ZM6.96607 4.64663V3.57988H10.6709V4.64663H6.96607Z" opacity=".2"/><defs><linearGradient id="paint0_linear_302_1095" x1="8.819" x2="8.819" y1="2.438" y2="5.637" gradientUnits="userSpaceOnUse"><stop offset=".001" stop-color="#A1887F"/><stop offset=".238" stop-color="#927971"/><stop offset=".693" stop-color="#6C524B"/><stop offset="1" stop-color="#4E342E"/></linearGradient><linearGradient id="paint1_linear_302_1095" x1="8.819" x2="8.819" y1="5.198" y2="14.988" gradientUnits="userSpaceOnUse"><stop stop-color="#4E342E"/><stop offset=".424" stop-color="#503630"/><stop offset=".618" stop-color="#583D36"/><stop offset=".765" stop-color="#644941"/><stop offset=".888" stop-color="#765950"/><stop offset=".993" stop-color="#8D6E63"/></linearGradient><linearGradient id="paint2_linear_302_1095" x1="8.819" x2="8.819" y1="4.665" y2="10.722" gradientUnits="userSpaceOnUse"><stop offset=".007" stop-color="#BCAAA4"/><stop offset="1" stop-color="#6D4C41"/></linearGradient></defs></svg>