<svg xmlns="http://www.w3.org/2000/svg" width="19" height="19" fill="none" viewBox="0 0 19 19"><path fill="url(#paint0_linear_302_1056)" d="M2.52161 2.12927H17.1352V16.7428H2.52161V2.12927Z"/><path stroke="#575757" stroke-miterlimit="10" stroke-width=".128" d="M2.52161 2.12927H17.1352V16.7428H2.52161V2.12927Z"/><path stroke="#575757" stroke-miterlimit="10" stroke-width=".128" d="M2.52164 14.3073H17.1352"/><path stroke="#575757" stroke-miterlimit="10" stroke-width=".128" d="M2.52164 11.8716H17.1352"/><path stroke="#575757" stroke-miterlimit="10" stroke-width=".128" d="M2.52164 9.43604H17.1352"/><path stroke="#575757" stroke-miterlimit="10" stroke-width=".128" d="M2.52164 7.00049H17.1352"/><path stroke="#575757" stroke-miterlimit="10" stroke-width=".128" d="M2.52164 4.56482H17.1352"/><path stroke="#575757" stroke-miterlimit="10" stroke-width=".128" d="M14.6997 2.12927V16.7428"/><path stroke="#575757" stroke-miterlimit="10" stroke-width=".128" d="M12.2638 2.12927V16.7428"/><path stroke="#575757" stroke-miterlimit="10" stroke-width=".128" d="M9.8284 2.12927V16.7428"/><path stroke="#575757" stroke-miterlimit="10" stroke-width=".128" d="M7.39294 2.12927V16.7428"/><path stroke="#575757" stroke-miterlimit="10" stroke-width=".128" d="M4.95706 2.12927V16.7428"/><path stroke="#EC4431" stroke-linecap="round" stroke-linejoin="round" stroke-miterlimit="10" stroke-width=".511" d="M3.34604 15.4264L6.11044 10.856L7.82753 13.031L10.6699 9.11329L13.3369 10.6343L16.1804 3.28613"/><path fill="#424242" d="M16.7698 2.49461V16.3775H2.88695V2.49461H16.7698ZM17.1352 2.12927H2.52161V16.7428H17.1352V2.12927Z" opacity=".2"/><defs><linearGradient id="paint0_linear_302_1056" x1="9.828" x2="9.828" y1="2.175" y2="16.687" gradientUnits="userSpaceOnUse"><stop stop-color="#fff"/><stop offset="1" stop-color="#C8C9CA"/></linearGradient></defs></svg>