<svg xmlns="http://www.w3.org/2000/svg" width="231" height="213" fill="none" viewBox="0 0 231 213"><path fill="#5CF1A4" fill-rule="evenodd" d="M186.588 181.529C186.551 169.276 186.315 157.017 185.902 144.771C185.596 135.694 185.202 126.61 184.441 117.559C184.139 113.973 183.788 110.384 183.236 106.827C182.895 104.625 182.58 102.225 181.65 100.174C181.345 99.5036 181.052 99.0665 180.404 98.7235C178.009 97.4535 174.728 97.2668 172.087 96.9972C167.759 96.5585 163.376 96.4324 159.027 96.5218C159.281 101.198 159.536 105.874 159.791 110.55C159.988 114.153 160.184 117.754 160.38 121.356C160.503 123.63 160.803 125.967 160.755 128.244C160.717 130.099 158.534 131.875 157.425 133.323C156.064 129.163 154.703 125.002 153.343 120.842C152.623 122.698 151.854 124.539 151.018 126.347C150.466 127.538 149.903 128.765 149.172 129.86C148.502 130.862 148.307 131.002 147.144 130.831C145.745 130.626 144.683 130.211 143.856 131.251C143.124 132.172 142.441 133.113 141.645 133.987C132.861 143.643 119.325 149.64 106.782 152.352C99.3949 153.951 91.941 155.248 84.5574 156.877C73.2826 159.364 61.7014 161.816 50.9322 166.068C49.2443 166.735 47.5388 167.45 45.9992 168.42C44.3017 169.489 43.0891 171.106 41.9133 172.707C39.0431 176.618 35.6784 183.035 40.1057 187.118C43.4992 190.25 48.8024 190.564 53.2121 190.915C57.7702 191.28 62.3443 191.458 66.9136 191.606C79.3596 192.01 91.8166 192.097 104.269 192.108C115.646 192.118 127.024 192.054 138.398 191.837C143.559 191.738 148.531 191.858 153.524 190.534C163.743 187.826 173.933 185.006 184.128 182.206C184.948 181.981 185.768 181.756 186.588 181.529Z" clip-rule="evenodd"/><path fill="#fff" fill-rule="evenodd" d="M155.427 192.476C156.829 191.844 158.085 191.171 159.586 190.865C160.671 190.643 161.601 190.034 162.691 189.836C165.105 189.395 167.712 188.99 170.025 188.145C172.508 187.237 175.21 186.911 177.755 186.158C179.007 185.786 180.1 185.544 181.396 185.472C182.658 185.402 183.955 184.698 185.217 184.816C186.271 184.917 187.023 185.726 187.848 186.303C188.918 187.052 190.084 187.696 191.235 188.315C192.454 188.971 193.813 189.3 195.017 189.939C196.018 190.471 196.999 190.989 198.031 191.476C203.508 194.062 208.797 196.479 213.737 200.078C212.143 200.562 210.332 200.08 208.748 199.909C206.498 199.665 204.257 199.483 202.029 199.067C200.726 198.823 198.181 197.894 196.937 198.607C195.844 199.236 195.927 200.846 195.77 201.924C194.738 201.525 193.711 201.117 192.669 200.744C191.849 200.448 190.52 199.64 189.686 199.612C187.361 199.533 187.615 202.795 187.841 204.292C186.482 203.831 185.19 203.508 183.873 202.937C182.817 202.479 181.651 202.377 180.627 201.832C178.079 200.474 175.252 199.624 172.524 198.66C169.444 197.573 166.373 196.465 163.321 195.305C162.067 194.828 160.831 194.199 159.548 193.811C158.166 193.395 156.751 193.082 155.427 192.476Z" clip-rule="evenodd"/><path fill="#fff" d="M188.085 170.418C188.998 171.228 190.319 170.71 191.405 170.801C192.942 170.93 194.239 171.657 195.675 172.115C199.197 173.238 203.058 174.036 206.733 174.44C208.705 174.657 210.568 174.686 212.499 175.212C214.254 175.689 215.989 176.231 217.749 176.689C215.827 177.203 212.101 177.146 211.462 179.488C211.16 180.589 211.493 182.114 212.463 182.795C213.027 183.191 214.255 183.01 214.609 183.602C213.095 183.787 211.369 182.623 210.538 184.288C209.588 186.189 210.517 187.688 211.731 189.099C210.659 188.921 209.557 189.123 208.473 188.985C207.637 188.88 206.857 188.628 206.063 188.89C205.665 189.022 205.716 189.376 205.214 189.378C204.848 189.379 204.301 188.982 203.984 188.829C202.795 188.256 201.592 187.788 200.365 187.311L200.305 187.288C198.787 186.696 197.345 186.241 195.831 185.871C193.739 185.357 191.642 184.041 189.601 183.298C188.736 182.982 187.626 182.659 187.197 181.76C186.753 180.833 187.093 179.473 187.12 178.492C187.197 175.732 187.163 172.967 187.147 170.206C187.785 170.206 188.038 170.347 188.085 170.418Z"/><path fill="#fff" d="M11.9217 174.857C11.9743 174.465 20.2817 175.214 21.2262 175.117C22.8392 174.951 24.5559 175.391 26.2231 175.336C27.6973 175.286 29.824 174.713 31.0397 175.428C31.4912 175.693 31.5023 176.007 32.2155 175.872C32.8776 175.746 33.5732 175.278 34.0694 174.846C35.4478 173.64 36.2902 171.741 37.1933 170.178C38.9977 167.047 40.5436 163.806 42.0417 160.514C45.1273 153.735 48.0964 146.916 51.1787 140.136C52.704 136.782 54.1734 133.422 55.8182 130.131L55.8273 130.113C56.5269 128.712 57.2931 127.178 57.8301 125.713C58.4188 124.108 59.1926 122.6 59.7206 120.956C60.8406 117.471 62.1776 114.038 63.0328 110.455C63.2497 109.547 63.3311 108.597 63.5927 107.702C63.8703 106.747 64.4399 105.93 64.7973 105.006C65.1611 104.063 65.1626 103.222 65.3429 102.259C65.5248 101.3 65.9651 100.363 66.2826 99.4445C67.9195 100.43 69.783 101.327 71.2875 102.5C72.768 103.653 74.9298 104.618 74.3092 106.704C73.746 108.599 72.7473 110.343 72.1538 112.237C71.4869 114.36 70.6685 116.437 70.0255 118.567C68.6455 123.138 67.4377 127.763 66.2012 132.376C65.6205 134.542 64.8962 136.714 64.4702 138.917C64.2485 140.064 64.2852 141.09 63.8672 142.2C63.4603 143.285 63.0742 144.348 62.7392 145.46C62.1441 147.438 61.5745 149.42 60.9156 151.377C60.5598 152.438 60.2742 153.509 60.0206 154.598C59.8674 155.256 59.3441 156.521 59.4909 157.202C59.4909 157.688 59.2431 158.983 59.1192 159.57C57.0403 160.299 55.0349 161.597 53.0374 162.529C50.9585 163.498 48.7521 164.131 46.7929 165.34C44.6822 166.642 42.5953 168.156 40.5947 169.616C38.7408 170.969 37.8537 172.649 37.0815 174.755C35.6153 178.756 31.9188 183.949 35.333 187.986C34.1364 188.506 32.7659 188.713 31.6188 189.268C31.2231 189.462 31.1051 189.648 30.6552 189.758C30.0665 189.903 29.3086 189.789 28.7056 189.827C27.8329 189.884 25.995 190.511 25.1446 190.258C24.3501 190.02 24.315 188.868 23.7438 188.298C22.8966 187.456 22.0845 188 21.0491 187.906C19.5143 187.767 17.9843 187.566 16.4495 187.432C13.3512 187.161 10.2625 187.097 7.15298 187.105C8.77234 185.31 14.7233 188.578 14.8684 185.326C15.0376 181.563 10.4427 182.692 8.20914 181.606C10.2401 181.666 12.2695 181.685 14.2957 181.847C15.5258 181.944 17.8902 182.533 18.5842 181.181C19.3324 179.729 18.1295 178.051 17.0031 177.292C15.446 176.243 13.6448 175.573 11.9217 174.857Z"/><path fill="#fff" fill-rule="evenodd" d="M125.057 68.093C125.252 69.9277 125.051 71.7768 124.995 73.6131C124.93 75.7638 124.926 77.8921 124.649 80.0299C124.146 83.8877 123.438 87.7454 122.056 91.3941C120.799 94.719 118.676 97.0691 115.081 97.787C111.85 98.4332 108.703 97.3259 106.648 94.7461C104.516 92.0722 103.86 88.6931 102.613 85.5932C102.002 84.0775 101.55 82.5539 101.04 81.0031C100.735 80.0746 99.221 77.4071 99.6549 76.453C100.078 75.5213 102.571 75.2022 103.436 74.6837C104.808 73.8604 106.076 72.2108 107.125 71.0046C107.827 70.1973 108.235 69.5991 108.709 70.8818C109.279 72.4214 108.865 74.2018 109.397 75.6952C109.918 77.1645 111.059 75.7159 111.175 74.7586C111.4 72.9191 111.131 70.8307 111.043 68.9816C110.882 65.5387 110.655 61.5547 107.547 59.4312C104.604 57.4188 101.407 56.7926 99.7714 53.3181C99.1173 51.9251 98.3467 50.4658 98.7551 48.9072C99.2289 47.1085 99.9293 45.2275 100.619 43.4988C101.941 40.1791 104.015 37.2885 105.828 34.2404C106.072 33.8293 106.123 33.3025 106.657 33.1863C107.263 33.0547 108.674 34.0831 109.261 34.2489C110.858 34.7002 112.284 33.7639 113.693 34.8236C114.824 35.6742 115.783 36.8983 117.308 36.9871C117.964 37.0256 118.856 36.4394 119.421 36.5793C120.142 36.7577 120.351 37.833 120.628 38.4372C121.267 39.8235 121.98 41.5606 123.033 42.6938C123.39 43.0785 124.02 43.1973 124.325 43.5553C124.681 43.9713 124.483 44.8159 124.992 44.8915C125.287 44.9352 125.523 44.5356 125.77 44.4403C126.192 44.2781 126.606 44.2469 127.056 44.2602C127.892 44.2846 128.757 44.4861 129.491 44.8854C131.198 45.814 131.828 47.2259 129.778 48.075C128.956 48.4155 128.063 48.669 127.174 48.748C126.198 48.8346 125.212 48.5302 124.247 48.649C122.387 48.878 121.814 50.4332 121.332 52.0312C120.67 54.2295 120.135 56.4553 119.392 58.6307C118.784 60.408 117.68 62.2145 117.361 64.0709C117.166 65.2116 117.422 65.1271 118.184 65.8322C118.765 66.3683 119.113 67.0735 119.741 67.6127C121.495 69.114 123.022 68.7136 125.057 68.093Z" clip-rule="evenodd"/><path fill="#fff" fill-rule="evenodd" d="M150.618 76.8973C150.615 75.6178 152.483 73.6523 153.125 72.5833C154.149 70.8762 155.251 69.3302 156.553 67.8226C157.862 66.3069 159.258 64.8615 160.527 63.3139C161.052 62.6725 161.442 61.9249 161.978 61.2979C162.646 60.5149 162.787 60.7555 163.616 60.7764C164.246 60.7923 164.656 60.6853 165.24 60.8723C165.548 60.9715 165.749 61.1189 166.081 61.2103C166.29 61.2679 166.565 61.0663 166.844 61.1636C167.533 61.404 167.769 62.0194 168.602 62.0068C168.701 62.0052 169.022 61.7684 169.068 61.7817C169.124 61.7979 169.384 61.9956 169.374 61.9934C169.43 62.0061 169.414 62.398 169.561 62.4658C169.814 62.5822 169.993 62.1918 170.224 62.2172C170.805 62.2812 171.239 62.8815 171.882 63.0267C172.709 63.2134 173.425 62.9406 174.215 63.3251C174.845 63.633 175.164 64.3318 175.689 63.609C176.164 64.6174 177.039 64.3126 177.913 64.737C179.132 65.3305 180.453 65.6304 181.75 66.0788C184.421 66.9993 187.109 67.9422 189.711 69.051C195.11 71.3501 200.338 73.9011 205.616 76.3725C210.779 78.7911 215.552 81.9963 220.198 85.2239C222.476 86.8065 224.74 88.4689 226.517 90.6355C227.055 91.2913 227.955 92.3107 227.591 93.2345C227.208 94.2109 225.586 94.8171 224.668 95.0054C223.465 95.2511 222.143 95.3341 220.918 95.4154C219.595 95.5032 218.175 95.5479 216.867 95.5303C214.287 95.4936 211.758 95.2431 209.167 95.1857C206.219 95.1203 203.33 94.4997 200.388 94.463C197.154 94.4215 193.958 94.0178 190.719 94.1439C184.476 94.388 178.24 94.5683 171.979 94.5986C171.201 94.6018 170.437 94.5076 169.671 94.6432C169.05 94.7533 168.602 94.9703 167.937 94.9224C167.316 94.8778 166.742 94.6082 166.11 94.5747C165.28 94.5316 164.43 94.6688 163.595 94.6512C160.78 94.5938 157.439 94.3369 154.723 95.2272C153.645 95.5814 152.29 96.612 152.948 97.9458C153.597 99.2668 155.258 98.1899 156.285 98.7898C157.242 99.3497 156.711 100.875 156.644 101.786C156.517 103.514 156.494 105.232 156.539 106.965C156.639 110.787 156.872 114.607 156.917 118.431C156.939 120.29 156.912 122.147 156.813 124.002C156.727 125.639 156.785 127.421 156.225 128.985C155.444 127.034 155.35 124.878 155.041 122.823C154.706 120.598 154.379 118.374 154.06 116.146C153.87 114.824 153.674 106.877 151.084 107.916C148.33 109.018 149.288 115.132 149.162 117.329C149.044 119.403 148.833 121.47 148.362 123.497C148.144 124.438 147.542 128.439 146.333 128.698C145.448 124.511 144.511 120.331 143.858 116.1C143.571 114.232 143.318 112.351 143.203 110.463C143.142 109.481 143.216 107.119 141.796 107.006C137.619 106.67 140.42 124.254 137.3 126.466C136.146 124.171 135.695 121.778 135.382 119.235C135.24 118.077 134.935 116.773 135.116 115.612C135.352 114.093 135.607 113.161 135.291 111.591C135.031 110.306 134.844 108.986 134.544 107.713C134.327 106.794 133.763 106.346 133.464 105.518C132.625 103.187 132.679 100.235 132.344 97.7878C132.006 95.3101 131.649 92.8723 132.089 90.3723C132.523 87.8962 134.335 87.1096 136.395 86.087C138.472 85.0579 140.475 83.9252 142.754 83.4721C145.313 82.9616 147.664 82.467 150.283 82.3314C154.907 82.0936 159.439 82.3696 164.042 82.5882C169.16 82.8323 174.285 82.5292 179.4 82.459C181.887 82.4239 184.421 82.376 186.903 82.4175C188.147 82.4366 189.354 82.6536 190.606 82.6217C191.673 82.5946 193.759 82.9232 194.692 82.3569C195.424 81.9117 195.424 80.9258 194.805 80.3833C194.193 79.8441 192.99 79.8154 192.225 79.6494C189.778 79.1198 187.34 78.815 184.877 78.3891C183.459 78.1434 182.268 78.062 180.847 78.1306C179.465 78.1992 178.058 77.8035 176.662 77.7365C173.702 77.5961 170.727 77.4558 167.768 77.4095C162.03 77.3201 156.36 76.883 150.618 76.8973Z" clip-rule="evenodd"/><path fill="#FFC700" fill-rule="evenodd" d="M82.8677 74.3255C83.3447 74.8217 82.5709 75.2046 82.2231 75.3115C82.279 74.8345 82.5087 74.6175 82.8677 74.3255ZM76.1493 97.6538C75.8063 97.6969 74.4023 97.6091 74.8363 96.8449C75.3389 95.9611 76.0297 97.3794 76.1493 97.6538ZM101.309 89.8299C100.571 89.1981 99.91 88.2312 99.902 87.2277C100.598 87.6888 100.969 89.1167 101.309 89.8299ZM83.6207 77.1414C83.0065 77.1734 83.5697 76.3086 83.5633 76.1363C83.5505 75.7662 83.2043 75.4503 83.2602 75.0116C83.2634 74.994 83.8824 73.6076 84.0451 73.5198C84.5046 73.2725 84.7726 73.7256 85.1843 73.866C85.7953 74.0735 86.0936 73.89 86.7493 73.9538C87.3269 74.0112 87.8135 74.292 88.4182 74.292C88.5618 74.292 88.7213 73.9873 88.8856 74.0049C89.1425 74.0304 89.1664 74.3574 89.3483 74.375C89.9865 74.4308 90.0231 74.1772 90.6198 73.9394C91.609 73.5438 92.303 74.4643 92.2807 75.5524C92.252 76.9931 90.7475 77.5834 89.5956 77.9136C88.1087 78.3412 87.2822 78.5981 85.773 78.3284C85.3358 78.2519 84.8923 78.3907 84.5477 78.0891C84.085 77.6839 84.3307 76.8303 83.801 76.4363C83.742 76.6708 83.6814 76.9069 83.6207 77.1414ZM135.912 134.483C135.79 135.426 136.048 135.911 135.134 136.541C134.595 136.914 133.916 137.158 133.344 137.533C132.516 138.074 131.276 138.42 130.542 139.042C130.075 139.438 129.992 140.555 129.346 140.69C128.795 140.805 128.139 139.811 127.951 139.365C127.742 138.868 127.883 138.462 127.796 137.965C127.741 137.634 127.492 137.565 127.535 137.174C127.581 136.766 127.978 136.549 128.151 136.225C128.305 135.933 128.352 135.52 128.473 135.29C128.758 134.749 129.392 133.6 129.958 133.243C130.434 134.492 130.794 133.225 131.455 132.858C131.702 132.852 131.948 132.85 132.195 132.852C132.323 132.731 132.452 132.613 132.584 132.496C132.889 132.468 133.39 132.63 133.664 132.715C133.816 132.68 133.969 132.661 134.124 132.654C134.33 132.715 134.411 132.828 134.368 132.997C134.279 132.957 134.775 133.259 134.823 133.291C135.805 133.958 136.705 134.224 136.887 135.641C136.562 135.256 136.238 134.869 135.912 134.483ZM128.256 83.8518C129.306 81.1332 128.972 78.7385 128.872 75.8922C128.848 75.2237 128.704 73.7911 129.403 73.3475C130.276 72.7939 131 74.0447 131.456 74.5616C132.238 75.4503 133.329 76.2656 133.73 77.419C134.082 78.4369 133.719 79.6845 133.449 80.6913C133.157 81.7777 132.798 83.2376 131.809 83.8391C130.753 84.482 129.32 84.4182 128.256 83.8518ZM91.2548 141.678C91.4064 139.594 94.3069 140.323 95.6103 140.966C96.5851 141.447 97.1308 142.179 97.745 143.05C98.4422 144.039 98.6704 144.317 98.6161 145.493C98.5651 146.565 98.6241 147.643 98.3545 148.711C98.2188 149.253 98.1886 149.349 97.828 149.721C97.828 149.721 97.2058 150.341 97.3797 150.242C96.574 150.702 95.3742 150.778 94.4297 150.848C93.0784 150.951 92.7529 150.97 92.2057 149.685C92.1004 149.909 91.9935 150.132 91.8882 150.355C91.8547 150.198 91.4798 148.323 91.566 148.342C91.7175 148.374 91.8802 148.81 91.9552 148.921C91.9074 148.058 91.2931 147.412 90.9948 146.641C90.7204 145.935 90.6087 145.132 90.3965 144.4C90.1923 143.691 89.9625 142.705 90.1604 141.97C90.4236 140.992 90.5066 141.271 91.2548 141.678ZM73.7466 95.7393C73.276 96.1828 73.6956 96.9008 73.6349 97.4512C72.9936 97.0587 73.217 96.8481 72.9681 96.21C72.8085 95.7983 72.3379 95.0118 71.9263 95.6851C71.7539 95.9691 72.3251 96.3583 71.939 96.5243C71.7109 96.6216 71.1062 95.8606 70.9945 95.7409C70.2319 94.9145 69.7437 94.0705 69.6799 92.9441C69.6623 92.6362 69.6671 91.8672 69.7772 91.6901C70.0947 91.1796 70.9371 91.4811 70.8653 90.5478C70.5287 90.7137 70.1936 90.8812 69.857 91.0488C69.7533 89.9974 70.8876 89.3768 71.3615 88.5424C71.9023 87.5931 72.2533 86.9007 73.1324 86.0838C73.5392 85.7073 74.1997 84.9303 74.7278 84.7484C75.1379 84.6064 75.3038 84.8154 75.717 84.8186C76.5817 84.8266 77.882 84.5937 76.5945 85.5525C76.8561 85.6754 77.2007 85.752 77.4225 85.945C77.5884 86.0886 77.6507 86.497 77.8437 86.5959C78.2633 86.8065 78.576 86.3949 79.0483 86.864C79.5444 87.3585 79.0355 87.6697 79.1471 87.8882C79.4646 88.5136 79.9034 88.2025 79.889 89.1582C79.8667 90.7329 78.9589 92.5963 78.4707 94.0673C78.1835 94.932 77.8628 96.2849 76.6519 95.9292C76.6982 96.3456 76.8035 96.7492 76.5323 97.121C76.2802 96.8242 76.1892 96.1717 76.0201 95.8223C75.768 95.3086 75.3596 94.8124 75.0708 94.313C75.1139 95.1027 75.2001 95.3229 75.7361 95.9196C75.0294 96.0074 74.1582 96.5737 73.7466 95.7393ZM125.462 118.622C124.813 118.131 125.665 117.584 124.385 117.863C124.06 117.933 124.387 118.315 123.894 118.329C123.709 118.334 123.253 117.877 123.123 117.769C123.005 117.672 122.476 116.957 122.391 116.911C122.533 116.987 121.748 116.684 121.992 116.88C121.525 116.504 121.169 115.885 120.958 115.132C120.442 113.286 120.515 111.079 121.585 109.493C122.034 108.828 122.391 108.016 123.068 107.571C123.983 106.966 125.499 106.606 126.523 106.221L126.191 105.416C129.001 106.686 130.939 109.648 131.177 112.66C131.262 113.744 131.57 115.119 130.911 116.078C130.221 117.081 128.484 118.134 127.525 117.021C127.672 117.641 127.244 118.383 126.587 118.543C126.34 118.603 126.105 118.423 125.995 118.439C125.856 118.46 125.561 118.643 125.462 118.622ZM151.259 55.7588C153.148 55.5341 152.854 58.9431 152.5 59.9669C152.214 60.7928 151.192 61.942 150.649 62.6614C150.005 63.5181 149.143 64.1579 148.229 64.7051C147.915 64.8918 147.685 64.9524 147.414 65.0577C147.318 64.962 147.203 64.9109 147.069 64.9077C146.951 65.104 146.784 65.2507 146.568 65.3481C145.881 65.5619 144.745 65.5299 144.062 65.5012C142.963 65.455 141.678 64.8216 140.584 64.611C140.073 64.5121 139.789 64.4722 139.336 64.2073C139.108 64.0733 138.663 63.0443 138.599 64.0558C138.317 63.8819 138.406 63.5963 138.2 63.4703C138.004 63.349 137.374 63.2309 137.139 62.9645C136.812 62.5928 136.378 61.7432 136.15 61.2347C136.003 60.9083 135.694 60.0674 135.718 59.7277C135.77 59.0083 136.002 59.1739 136.618 58.8759C137.028 58.6768 137.264 58.5101 137.675 58.3998C137.723 58.3872 137.836 58.6324 137.918 58.6114C138.058 58.5748 138.116 58.4126 138.215 58.3808C138.964 58.1377 139.85 57.4172 140.777 57.4869C141.177 57.5171 141.552 58.1268 141.758 58.0959C142.075 58.0479 141.918 57.3987 142.138 57.1635C142.701 56.5644 144.579 56.6613 145.308 56.5574C147.289 56.2752 149.274 56.0118 151.259 55.7588ZM85.1124 107.576C84.9321 106.161 84.7088 104.757 86.2612 104.061C86.8435 103.799 87.3285 103.894 87.9252 103.823C88.7006 103.731 88.5889 103.397 89.1648 104.229C89.4823 103.82 89.2717 103.688 89.7918 103.638C90.0072 103.619 90.9469 104.23 91.191 104.329C92.2089 104.745 93.506 104.707 94.275 105.548C95.0216 106.363 95.6247 107.148 95.939 108.262C96.0985 108.823 96.2023 109.404 96.3985 109.956C96.6107 110.551 97.0877 111.065 97.252 111.66C97.9157 114.085 95.0902 116.3 93.1055 116.943C92.8487 116.89 92.5982 116.906 92.3525 116.992C92.1786 117.105 92.0238 117.241 91.8866 117.396C91.2612 117.592 91.1128 117.528 90.4779 117.241C89.4297 116.769 88.206 116.607 87.4131 117.713C87.1674 116.427 86.2755 117.191 85.8463 116.363C85.6086 115.907 86.1272 114.642 85.8256 114.313C85.3167 113.755 83.726 114.749 83.7675 113.442C83.7834 112.967 84.3243 112.809 84.511 112.434C84.8476 111.759 84.661 111.044 84.1935 110.452C84.1488 110.554 83.9797 111.226 83.7563 111.047C83.1612 110.575 84.1393 109.832 84.3514 109.573C84.704 109.149 85.0231 108.823 84.9449 108.23C84.8971 107.863 84.3052 107.48 84.3275 107.121C84.3434 106.85 85.0725 107.544 85.1124 107.576ZM112.726 122.846C112.686 123.838 113.32 123.967 113.738 124.648C113.851 124.835 113.859 125.28 114.017 125.551C114.314 126.062 114.519 126.094 114.615 126.592C114.604 126.536 114.456 127.085 114.452 127.147C114.411 127.847 114.897 128.406 114.763 129.176C114.577 130.258 113.754 131.464 113.173 132.364C111.861 134.4 110.027 135.978 107.514 136.121C105.837 136.218 101.888 135.547 101.529 133.793C101.624 133.591 101.705 133.382 101.77 133.166C101.809 132.854 101.692 132.641 101.422 132.528C101.215 132.474 101.054 132.359 100.937 132.182C100.993 132.005 101.087 131.847 101.217 131.713C101.17 131.477 100.775 131.466 100.781 131.314C100.792 131.033 101.041 130.327 101.108 130.006C101.223 129.451 101.285 128.923 101.387 128.364C101.469 127.911 101.746 127.688 101.818 127.274C101.866 126.992 101.579 126.735 101.604 126.435C101.793 126.266 101.946 126.068 102.064 125.843C102.077 125.609 102.019 125.392 101.892 125.192C102.172 123.221 104.964 121.564 106.951 121.518C108.016 121.494 109.838 121.418 110.799 121.974C111.439 122.348 111.869 123.667 112.726 122.846ZM97.2026 89.64C96.9569 88.5344 96.6075 86.9485 97.9859 86.8863C98.0753 86.8815 98.9879 87.1097 99.0836 87.1703C99.5526 87.4734 99.7297 88.4801 99.91 88.9683C100.068 89.4007 100.176 89.975 100.527 90.3005C100.874 90.6228 101.234 90.6292 101.558 91.0153C102.541 92.1879 103.272 94.2029 103.867 95.6197C103.059 95.425 103.646 95.9659 103.303 96.2738C102.767 96.754 102.935 96.6679 102.172 96.7413C100.847 96.8721 100.24 96.5179 99.2032 95.6914C98.3242 94.9911 98.0418 94.5332 97.5344 93.5217C96.8117 92.0778 97.1643 91.1573 97.2042 89.64C96.8404 89.9735 96.4783 90.3069 96.1145 90.6419C96.2278 90.2048 96.341 89.766 96.4527 89.3289L97.2026 89.64Z" clip-rule="evenodd"/><path fill="#000" fill-rule="evenodd" d="M82.7418 74.4347C83.2188 74.9309 82.445 75.3138 82.0972 75.4207C82.1531 74.9437 82.3828 74.7267 82.7418 74.4347ZM148.178 167.655C148.363 167.221 148.638 166.866 149.139 167.07C149.968 167.408 148.29 167.651 148.178 167.655ZM76.0234 97.763C75.6804 97.8061 74.2765 97.7184 74.7104 96.9541C75.213 96.0703 75.9038 97.4886 76.0234 97.763ZM101.183 89.9391C100.445 89.3073 99.7841 88.3405 99.7762 87.3369C100.472 87.798 100.843 89.2259 101.183 89.9391ZM83.4948 77.2507C82.8806 77.2826 83.4438 76.4179 83.4374 76.2455C83.4246 75.8754 83.0784 75.5595 83.1343 75.1208C83.1375 75.1032 83.7565 73.7168 83.9192 73.629C84.3787 73.3818 84.6467 73.8349 85.0584 73.9753C85.6694 74.1827 85.9677 73.9992 86.6234 74.063C87.201 74.1204 87.6876 74.4012 88.2923 74.4012C88.4359 74.4012 88.5954 74.0965 88.7597 74.1141C89.0166 74.1396 89.0405 74.4666 89.2224 74.4842C89.8606 74.54 89.8973 74.2864 90.4939 74.0486C91.4831 73.653 92.1771 74.5735 92.1548 75.6616C92.1261 77.1023 90.6216 77.6926 89.4697 78.0229C87.9828 78.4504 87.1563 78.7073 85.6471 78.4377C85.2099 78.3611 84.7664 78.4999 84.4218 78.1983C83.9591 77.7931 84.2048 76.9396 83.6751 76.5455C83.6161 76.78 83.5555 77.0161 83.4948 77.2507ZM135.786 134.592C135.664 135.535 135.922 136.02 135.008 136.65C134.469 137.023 133.791 137.267 133.218 137.642C132.39 138.183 131.15 138.529 130.416 139.152C129.949 139.547 129.866 140.664 129.22 140.8C128.669 140.914 128.014 139.921 127.825 139.474C127.616 138.978 127.757 138.571 127.671 138.075C127.615 137.743 127.366 137.674 127.409 137.283C127.455 136.875 127.852 136.658 128.025 136.334C128.179 136.042 128.226 135.629 128.347 135.399C128.633 134.858 129.266 133.71 129.832 133.352C130.308 134.601 130.668 133.335 131.329 132.968C131.576 132.961 131.822 132.96 132.069 132.961C132.197 132.84 132.326 132.722 132.458 132.606C132.763 132.577 133.264 132.74 133.539 132.824C133.69 132.789 133.843 132.77 133.998 132.763C134.204 132.824 134.285 132.937 134.242 133.106C134.153 133.067 134.649 133.368 134.697 133.4C135.68 134.067 136.579 134.333 136.761 135.75C136.436 135.366 136.112 134.978 135.786 134.592ZM128.13 83.961C129.18 81.2424 128.846 78.8477 128.746 76.0014C128.722 75.333 128.578 73.9003 129.277 73.4567C130.15 72.9031 130.874 74.1539 131.33 74.6709C132.112 75.5595 133.204 76.3748 133.604 77.5283C133.957 78.5461 133.593 79.7938 133.323 80.8005C133.031 81.887 132.672 83.3468 131.683 83.9483C130.627 84.5912 129.194 84.5274 128.13 83.961ZM91.1289 141.787C91.2805 139.704 94.181 140.433 95.4844 141.076C96.4592 141.556 97.0049 142.288 97.6191 143.159C98.3163 144.148 98.5445 144.426 98.4902 145.602C98.4392 146.674 98.4982 147.752 98.2286 148.82C98.093 149.362 98.0627 149.458 97.7021 149.83C97.7037 149.83 97.0799 150.45 97.2538 150.351C96.4481 150.811 95.2483 150.887 94.3038 150.958C92.9525 151.06 92.6271 151.079 92.0798 149.795C91.9745 150.018 91.8676 150.241 91.7623 150.465C91.7288 150.307 91.3539 148.432 91.4401 148.451C91.5916 148.483 91.7544 148.919 91.8293 149.03C91.7815 148.167 91.1672 147.521 90.8689 146.751C90.5945 146.044 90.4828 145.241 90.2706 144.509C90.0664 143.801 89.8367 142.815 90.0345 142.079C90.2977 141.101 90.3807 141.38 91.1289 141.787ZM73.6207 95.8485C73.1501 96.2921 73.5697 97.01 73.5091 97.5604C72.8677 97.1679 73.0911 96.9573 72.8422 96.3192C72.6826 95.9075 72.212 95.121 71.8004 95.7943C71.6281 96.0783 72.1992 96.4675 71.8131 96.6335C71.585 96.7308 70.9803 95.9698 70.8686 95.8501C70.106 95.0237 69.6178 94.1797 69.554 93.0533C69.5364 92.7454 69.5412 91.9764 69.6513 91.7993C69.9688 91.2888 70.8112 91.5903 70.7394 90.657C70.4028 90.8229 70.0677 90.9905 69.7311 91.158C69.6274 90.1066 70.7617 89.486 71.2356 88.6516C71.7764 87.7023 72.1274 87.0099 73.0065 86.193C73.4133 85.8165 74.0738 85.0395 74.6019 84.8576C75.012 84.7156 75.1779 84.9246 75.5911 84.9278C76.4558 84.9358 77.7561 84.7029 76.4686 85.6617C76.7302 85.7846 77.0748 85.8612 77.2966 86.0542C77.4625 86.1978 77.5248 86.6062 77.7178 86.7051C78.1374 86.9157 78.4501 86.5041 78.9224 86.9732C79.4185 87.4678 78.9096 87.7789 79.0213 87.9974C79.3387 88.6229 79.7775 88.3117 79.7631 89.2674C79.7408 90.8421 78.833 92.7055 78.3448 94.1765C78.0576 95.0412 77.737 96.3942 76.526 96.0384C76.5723 96.4548 76.6776 96.8584 76.4064 97.2302C76.1543 96.9334 76.0633 96.2809 75.8942 95.9315C75.6421 95.4178 75.2337 94.9216 74.9449 94.4222C74.988 95.2119 75.0742 95.4321 75.6103 96.0288C74.9035 96.1166 74.0323 96.6829 73.6207 95.8485ZM125.336 118.732C124.687 118.24 125.539 117.693 124.26 117.972C123.934 118.042 124.261 118.424 123.768 118.438C123.583 118.443 123.127 117.987 122.998 117.878C122.879 117.781 122.35 117.066 122.265 117.02C122.407 117.096 121.622 116.793 121.866 116.99C121.399 116.613 121.043 115.994 120.833 115.241C120.316 113.395 120.389 111.189 121.46 109.603C121.908 108.937 122.265 108.125 122.942 107.68C123.857 107.076 125.373 106.715 126.397 106.33L126.066 105.525C128.875 106.795 130.814 109.757 131.051 112.77C131.136 113.853 131.444 115.228 130.785 116.187C130.096 117.191 128.358 118.244 127.399 117.13C127.546 117.751 127.119 118.492 126.461 118.652C126.214 118.713 125.979 118.532 125.869 118.548C125.731 118.569 125.435 118.752 125.336 118.732ZM151.133 55.868C153.022 55.6433 152.728 59.0523 152.374 60.0761C152.089 60.902 151.066 62.0512 150.523 62.7706C149.879 63.6273 149.017 64.2671 148.103 64.8143C147.789 65.001 147.559 65.0616 147.288 65.1669C147.192 65.0712 147.077 65.0201 146.943 65.0169C146.825 65.2132 146.658 65.36 146.442 65.4573C145.755 65.6711 144.619 65.6392 143.936 65.6104C142.837 65.5642 141.552 64.9308 140.458 64.7202C139.947 64.6213 139.663 64.5814 139.21 64.3165C138.982 64.1825 138.537 63.1535 138.473 64.165C138.191 63.9911 138.28 63.7055 138.074 63.5795C137.878 63.4582 137.248 63.3402 137.013 63.0737C136.686 62.702 136.252 61.8524 136.024 61.344C135.877 61.0175 135.568 60.1766 135.592 59.8369C135.645 59.1175 135.876 59.2831 136.492 58.9851C136.902 58.786 137.138 58.6193 137.549 58.509C137.597 58.4964 137.711 58.7417 137.792 58.7206C137.932 58.6841 137.99 58.5218 138.089 58.4901C138.839 58.2469 139.724 57.5264 140.651 57.5961C141.051 57.6263 141.426 58.2361 141.632 58.2051C141.95 58.1571 141.792 57.5079 142.012 57.2727C142.575 56.6737 144.453 56.7705 145.182 56.6667C147.163 56.3844 149.148 56.121 151.133 55.868ZM84.9865 107.685C84.8063 106.27 84.5829 104.866 86.1353 104.17C86.7176 103.909 87.2026 104.003 87.7993 103.933C88.5747 103.84 88.463 103.507 89.0389 104.338C89.3564 103.929 89.1458 103.797 89.6659 103.747C89.8813 103.728 90.821 104.339 91.0651 104.438C92.083 104.855 93.3801 104.816 94.1491 105.657C94.8958 106.472 95.4988 107.257 95.8131 108.371C95.9727 108.933 96.0764 109.513 96.2726 110.065C96.4848 110.66 96.9618 111.174 97.1261 111.769C97.7898 114.194 94.9643 116.409 92.9796 117.052C92.7228 116.999 92.4723 117.015 92.2266 117.101C92.0527 117.214 91.898 117.35 91.7607 117.505C91.1353 117.701 90.987 117.637 90.352 117.35C89.3038 116.878 88.0801 116.717 87.2872 117.822C87.0415 116.536 86.1496 117.301 85.7204 116.473C85.4827 116.016 86.0013 114.751 85.6997 114.422C85.1908 113.864 83.6001 114.858 83.6416 113.551C83.6576 113.076 84.1984 112.918 84.3851 112.543C84.7217 111.868 84.5351 111.153 84.0676 110.562C84.0229 110.664 83.8538 111.335 83.6304 111.157C83.0353 110.684 84.0134 109.941 84.2256 109.682C84.5781 109.258 84.8972 108.933 84.819 108.339C84.7712 107.972 84.1793 107.589 84.2016 107.23C84.2176 106.959 84.9467 107.653 84.9865 107.685ZM112.6 122.955C112.56 123.947 113.194 124.076 113.612 124.758C113.725 124.944 113.733 125.389 113.891 125.661C114.188 126.171 114.393 126.203 114.489 126.701C114.478 126.645 114.33 127.194 114.326 127.256C114.285 127.956 114.772 128.515 114.638 129.285C114.451 130.367 113.628 131.573 113.047 132.473C111.735 134.509 109.901 136.087 107.388 136.23C105.711 136.328 101.762 135.656 101.403 133.903C101.498 133.7 101.579 133.491 101.644 133.276C101.683 132.963 101.566 132.751 101.297 132.637C101.089 132.583 100.928 132.468 100.812 132.291C100.867 132.114 100.962 131.956 101.091 131.822C101.045 131.586 100.649 131.575 100.655 131.423C100.666 131.143 100.915 130.436 100.982 130.115C101.097 129.56 101.159 129.032 101.261 128.473C101.343 128.02 101.62 127.797 101.692 127.384C101.74 127.101 101.453 126.844 101.478 126.545C101.667 126.375 101.82 126.178 101.938 125.953C101.951 125.718 101.893 125.501 101.766 125.302C102.046 123.33 104.838 121.674 106.825 121.627C107.89 121.603 109.712 121.527 110.673 122.084C111.313 122.457 111.743 123.776 112.6 122.955ZM155.428 192.456C156.83 191.825 158.086 191.151 159.587 190.845C160.672 190.623 161.602 190.014 162.692 189.816C165.106 189.376 167.713 188.97 170.026 188.125C172.508 187.217 175.211 186.891 177.756 186.138C179.008 185.767 180.101 185.524 181.396 185.452C182.658 185.382 183.956 184.679 185.218 184.797C186.272 184.897 187.024 185.706 187.848 186.284C188.919 187.032 190.085 187.676 191.236 188.295C192.454 188.951 193.814 189.28 195.018 189.92C196.019 190.451 197 190.969 198.032 191.456C203.509 194.042 208.798 196.459 213.737 200.058C212.144 200.542 210.333 200.06 208.748 199.889C206.499 199.645 204.257 199.463 202.03 199.047C200.727 198.803 198.182 197.874 196.938 198.588C195.845 199.216 195.928 200.826 195.771 201.904C194.739 201.506 193.712 201.097 192.67 200.724C191.85 200.429 190.521 199.62 189.686 199.593C187.362 199.513 187.615 202.776 187.842 204.272C186.483 203.811 185.19 203.489 183.874 202.917C182.818 202.46 181.652 202.357 180.628 201.812C178.08 200.454 175.253 199.604 172.524 198.64C169.445 197.554 166.374 196.445 163.322 195.285C162.068 194.808 160.831 194.179 159.549 193.792C158.167 193.375 156.752 193.063 155.428 192.456ZM125.057 68.0929C125.252 69.9277 125.051 71.7768 124.995 73.6131C124.93 75.7637 124.926 77.892 124.649 80.0299C124.146 83.8876 123.438 87.7454 122.056 91.3941C120.799 94.719 118.676 97.069 115.081 97.787C111.85 98.4331 108.703 97.3259 106.648 94.7461C104.516 92.0722 103.86 88.693 102.613 85.5931C102.002 84.0775 101.55 82.5538 101.04 81.0031C100.735 80.0746 99.221 77.407 99.6549 76.4529C100.078 75.5212 102.571 75.2021 103.436 74.6836C104.808 73.8604 106.076 72.2107 107.125 71.0046C107.827 70.1973 108.235 69.599 108.709 70.8817C109.279 72.4213 108.865 74.2018 109.397 75.6951C109.918 77.1645 111.059 75.7159 111.175 74.7586C111.4 72.9191 111.131 70.8307 111.043 68.9816C110.882 65.5386 110.655 61.5547 107.547 59.4312C104.604 57.4187 101.407 56.7925 99.7714 53.318C99.1172 51.925 98.3466 50.4657 98.7551 48.9071C99.2289 47.1085 99.9293 45.2274 100.619 43.4988C101.941 40.179 104.015 37.2884 105.828 34.2404C106.072 33.8292 106.123 33.3024 106.657 33.1863C107.263 33.0547 108.674 34.0831 109.261 34.2489C110.858 34.7002 112.284 33.7638 113.693 34.8235C114.824 35.6742 115.783 36.8982 117.308 36.9871C117.964 37.0255 118.856 36.4394 119.421 36.5793C120.142 36.7577 120.351 37.833 120.628 38.4372C121.267 39.8234 121.98 41.5605 123.033 42.6937C123.39 43.0784 124.02 43.1973 124.325 43.5553C124.681 43.9712 124.483 44.8158 124.992 44.8915C125.287 44.9352 125.523 44.5355 125.77 44.4403C126.192 44.278 126.606 44.2469 127.056 44.2601C127.892 44.2846 128.757 44.486 129.491 44.8854C131.198 45.8139 131.828 47.2259 129.778 48.075C128.956 48.4154 128.063 48.6689 127.174 48.7479C126.198 48.8345 125.212 48.5301 124.247 48.649C122.387 48.8779 121.814 50.4332 121.332 52.0311C120.67 54.2295 120.135 56.4553 119.392 58.6306C118.784 60.4079 117.68 62.2144 117.361 64.0709C117.166 65.2116 117.422 65.127 118.184 65.8322C118.765 66.3683 119.113 67.0734 119.741 67.6127C121.495 69.114 123.021 68.7135 125.057 68.0929ZM11.924 174.867C11.9767 174.474 20.2841 175.224 21.2286 175.127C22.8416 174.961 24.5582 175.401 26.2255 175.345C27.6996 175.296 29.8263 174.723 31.042 175.438C31.4935 175.703 31.5047 176.017 32.2178 175.881C32.8799 175.755 33.5756 175.288 34.0717 174.856C35.4502 173.649 36.2926 171.751 37.1956 170.187C39 167.057 40.546 163.815 42.0441 160.524C45.1296 153.745 48.0987 146.926 51.1811 140.146C52.7063 136.792 54.1757 133.432 55.8206 130.141C56.5226 128.735 57.2932 127.194 57.8324 125.723C58.4211 124.118 59.1949 122.61 59.723 120.965C60.843 117.481 62.18 114.048 63.0351 110.464C63.2521 109.556 63.3334 108.607 63.5951 107.712C63.8727 106.756 64.4423 105.94 64.7997 105.016C65.1634 104.073 65.165 103.232 65.3453 102.269C65.5272 101.31 65.9675 100.373 66.285 99.4542C67.9219 100.44 69.7853 101.337 71.2898 102.509C72.7704 103.663 74.9322 104.628 74.3116 106.713C73.7484 108.609 72.7496 110.353 72.1561 112.246C71.4892 114.37 70.6708 116.447 70.0279 118.577C68.6478 123.148 67.44 127.773 66.2036 132.385C65.6229 134.552 64.8986 136.723 64.4726 138.927C64.2508 140.074 64.2875 141.1 63.8695 142.21C63.4627 143.295 63.0766 144.357 62.7415 145.469C62.1464 147.448 61.5769 149.429 60.918 151.387C60.5622 152.448 60.2766 153.518 60.0229 154.608C59.8698 155.265 59.3465 156.531 59.4933 157.212C59.9161 159.173 62.5118 157.175 63.1324 156.374C64.5731 154.517 65.6069 152.245 66.6854 150.166C71.0186 141.818 73.1501 132.813 75.3837 123.725C75.9708 121.335 76.5388 118.968 77.1977 116.603C77.8901 114.126 78.0911 111.535 78.908 109.071C79.752 106.525 80.6119 104.073 81.2309 101.453C81.5181 100.241 81.8212 99.0282 82.0749 97.8093C82.2105 97.1584 82.2169 95.9602 83.0848 95.831C82.5264 99.9169 82.319 104.705 80.6901 108.537C79.2127 112.013 78.0385 116.776 79.5318 120.466C80.2497 122.242 81.3857 123.757 82.2408 125.447C83.1949 127.337 83.8171 129.509 84.4585 131.522C85.7827 135.694 86.1735 140.08 87.0606 144.346C87.5265 146.583 87.5361 148.113 87.1324 150.313C87.0016 151.022 87.2313 151.585 86.6346 152.039C86.0331 152.496 84.6451 152.588 83.9033 152.85C81.6505 153.646 79.7137 154.23 77.3269 154.492C75.0742 154.739 72.9571 155.186 70.8112 155.923C66.9439 157.253 62.9218 158.246 59.1215 159.579C57.0427 160.308 55.0372 161.607 53.0397 162.539C50.9609 163.507 48.7544 164.141 46.7953 165.35C44.6845 166.652 42.5977 168.166 40.597 169.626C38.7431 170.979 37.8561 172.659 37.0839 174.765C35.6177 178.766 31.9211 183.959 35.3353 187.995C34.1387 188.516 32.7683 188.723 31.6212 189.278C31.2255 189.471 31.1075 189.658 30.6576 189.768C30.0688 189.913 29.311 189.798 28.7079 189.837C27.8352 189.894 25.9973 190.521 25.1469 190.267C24.3524 190.03 24.3173 188.878 23.7462 188.308C22.899 187.466 22.0869 188.01 21.0515 187.916C19.5167 187.777 17.9867 187.576 16.4519 187.442C13.3536 187.171 10.2648 187.107 7.15534 187.115C8.77469 185.32 14.7256 188.587 14.8708 185.336C15.0399 181.572 10.4451 182.702 8.21149 181.615C10.2425 181.676 12.2719 181.695 14.2981 181.856C15.5281 181.954 17.8925 182.542 18.5865 181.191C19.3348 179.739 18.1319 178.061 17.0055 177.301C15.4484 176.253 13.6471 175.583 11.924 174.867ZM181.251 124.697C181.623 125.439 181.047 125.737 180.785 126.335C180.425 127.162 180.781 126.998 180.854 127.776C180.902 128.296 180.76 128.544 180.789 129.032C180.801 129.239 181.097 129.515 181.132 129.751C181.194 130.176 180.964 130.372 180.99 130.68C181.002 130.833 180.805 130.86 180.844 131.082C180.88 131.275 181.325 131.411 181.352 131.532C181.502 132.237 181.079 131.884 181.015 132.219C180.907 132.776 181.221 132.872 181.4 133.386C181.708 134.27 181.409 134.683 181.219 135.512C181.058 136.211 181.298 136.216 181.389 136.884C181.443 137.29 181.326 137.339 181.328 137.716C181.333 139.016 181.625 140.37 181.637 141.749C181.666 145.012 181.942 148.228 181.984 151.483C182.024 154.681 182.256 157.92 182.397 161.159C182.465 162.737 182.625 164.311 182.695 165.891C182.775 167.724 182.596 169.549 182.749 171.376C182.89 173.037 182.807 174.702 182.875 176.368C182.907 177.158 183.314 179.548 182.796 180.079C182.121 180.768 179.389 180.034 178.506 180.084C176.845 180.173 175.093 180.508 173.466 180.851C169.608 181.663 165.742 182.697 161.883 183.425C158.666 184.032 155.648 185.577 152.653 186.885C152.928 184.135 153.411 181.453 153.502 178.681C153.582 176.189 153.347 173.712 153.402 171.224C153.52 165.916 153.821 160.666 153.703 155.359C153.582 149.962 153.146 144.452 152.395 139.107C152.049 136.65 151.779 134.033 150.9 131.699C150.503 130.643 149.853 129.868 150.123 128.705C150.415 127.444 150.991 126.128 151.417 124.906C151.73 126.895 152.834 140.153 157.369 136.168C159.14 134.611 159.96 131.24 160.356 129.032C160.891 126.045 160.699 122.905 160.685 119.884C160.658 113.727 159.98 107.446 159.359 101.321C159.234 100.099 158.617 99.0043 160.187 99.0633C161.658 99.1176 163.17 99.467 164.635 99.6377C165.902 99.786 167.173 99.4255 168.381 99.5866C168.935 99.6616 169.423 99.9886 169.983 100.072C170.688 100.177 171.425 100.024 172.135 100.024C173.332 100.025 174.718 100.019 175.712 100.764C176.755 101.544 177.65 102.838 178 104.089C178.351 105.34 178.257 106.747 178.478 107.996C178.665 109.051 178.705 110.349 178.879 111.546C179.637 110.597 179.589 111.966 179.597 112.371C179.606 112.859 180.131 113.848 179.996 114.134C179.908 114.319 179.321 114.221 179.271 114.367C179.169 114.665 179.523 114.791 179.53 115.014C179.554 115.884 179.504 116.784 179.506 117.66C179.712 117.503 179.918 117.347 180.123 117.189C180.23 117.423 180.265 117.73 180.367 117.968C180.414 118.076 180.849 118.046 180.868 118.258C180.896 118.535 180.289 119.068 180.171 119.371C179.962 119.912 179.828 119.7 180.184 120.282C180.592 120.954 181.262 120.992 181.156 121.969C180.939 121.803 180.75 121.61 180.588 121.39C180.487 121.972 180.741 122.486 180.771 123.066C180.792 123.446 180.329 124.96 180.677 125.214C180.824 125.321 181.216 124.737 181.251 124.697ZM150.651 76.9156C150.648 75.6361 152.516 73.6705 153.157 72.6016C154.182 70.8945 155.284 69.3485 156.586 67.8408C157.894 66.3252 159.29 64.8797 160.56 63.3322C161.085 62.6908 161.474 61.9432 162.01 61.3162C162.679 60.5332 162.819 60.7737 163.649 60.7946C164.279 60.8106 164.689 60.7036 165.273 60.8905C165.581 60.9898 165.782 61.1372 166.114 61.2286C166.323 61.2862 166.597 61.0845 166.877 61.1819C167.566 61.4223 167.802 62.0376 168.635 62.025C168.734 62.0234 169.054 61.7867 169.101 61.7999C169.156 61.8162 169.416 62.0139 169.407 62.0116C169.463 62.0244 169.447 62.4162 169.594 62.484C169.847 62.6005 170.026 62.2101 170.257 62.2355C170.838 62.2995 171.272 62.8998 171.915 63.045C172.741 63.2317 173.458 62.9588 174.247 63.3433C174.878 63.6513 175.197 64.3501 175.722 63.6273C176.197 64.6356 177.071 64.3309 177.946 64.7553C179.165 65.3488 180.486 65.6487 181.783 66.097C184.453 67.0176 187.142 67.9605 189.744 69.0693C195.143 71.3683 200.371 73.9194 205.649 76.3907C210.811 78.8094 215.585 82.0146 220.231 85.2421C222.509 86.8248 224.773 88.4872 226.55 90.6538C227.088 91.3095 227.988 92.329 227.624 93.2528C227.241 94.2292 225.619 94.8354 224.701 95.0237C223.498 95.2694 222.176 95.3524 220.95 95.4337C219.628 95.5215 218.208 95.5661 216.899 95.5486C214.32 95.5119 211.791 95.2614 209.2 95.204C206.252 95.1386 203.362 94.5179 200.42 94.4812C197.186 94.4398 193.991 94.0361 190.752 94.1622C184.509 94.4063 178.273 94.5866 172.012 94.6169C171.234 94.6201 170.469 94.5259 169.704 94.6615C169.083 94.7716 168.635 94.9886 167.969 94.9407C167.349 94.896 166.774 94.6264 166.143 94.5929C165.313 94.5499 164.463 94.6871 163.628 94.6695C160.812 94.6121 157.471 94.3552 154.756 95.2455C153.678 95.5996 152.323 96.6303 152.98 97.9641C153.63 99.2851 155.291 98.2081 156.318 98.808C157.275 99.368 156.744 100.893 156.677 101.804C156.549 103.532 156.527 105.25 156.572 106.983C156.672 110.806 156.905 114.625 156.95 118.449C156.972 120.308 156.945 122.165 156.846 124.021C156.76 125.657 156.817 127.44 156.257 129.003C155.477 127.052 155.383 124.896 155.074 122.842C154.739 120.616 154.411 118.392 154.092 116.165C153.903 114.842 153.706 106.895 151.117 107.934C148.363 109.036 149.32 115.15 149.194 117.347C149.076 119.421 148.866 121.489 148.395 123.515C148.177 124.456 147.575 128.457 146.366 128.716C145.48 124.529 144.544 120.349 143.891 116.118C143.604 114.25 143.35 112.369 143.236 110.482C143.175 109.499 143.248 107.138 141.828 107.024C137.652 106.688 140.453 124.273 137.332 126.484C136.179 124.19 135.727 121.797 135.415 119.253C135.273 118.095 134.968 116.792 135.148 115.63C135.384 114.111 135.64 113.18 135.324 111.61C135.064 110.324 134.877 109.004 134.577 107.731C134.36 106.812 133.795 106.364 133.497 105.536C132.658 103.205 132.712 100.253 132.377 97.8061C132.039 95.3284 131.681 92.8906 132.122 90.3906C132.556 87.9145 134.368 87.1279 136.428 86.1053C138.505 85.0762 140.507 83.9435 142.787 83.4904C145.346 82.9798 147.696 82.4852 150.316 82.3496C154.94 82.1119 159.472 82.3879 164.075 82.6065C169.193 82.8506 174.318 82.5475 179.433 82.4773C181.92 82.4422 184.453 82.3943 186.936 82.4358C188.18 82.4549 189.386 82.6719 190.639 82.64C191.706 82.6129 193.791 82.9415 194.725 82.3752C195.457 81.93 195.457 80.9441 194.838 80.4016C194.225 79.8624 193.022 79.8336 192.258 79.6677C189.811 79.138 187.373 78.8333 184.91 78.4073C183.491 78.1616 182.301 78.0803 180.88 78.1489C179.498 78.2175 178.091 77.8218 176.695 77.7548C173.735 77.6144 170.76 77.474 167.8 77.4278C162.063 77.3384 156.393 76.9013 150.651 76.9156ZM147.658 132.996C148.119 133.175 148.003 135.378 148.044 135.819C148.169 137.137 148.306 138.453 148.422 139.771C148.693 142.815 148.898 145.865 149.064 148.916C149.231 151.968 149.427 155.028 149.418 158.084C149.413 159.386 149.356 160.687 149.381 161.988C149.4 162.96 149.829 164.78 148.998 165.471C148.441 165.936 147.35 165.727 146.699 165.683C145.413 165.599 144.124 165.513 142.833 165.503C141.345 165.492 139.864 165.653 138.374 165.613C137.803 165.599 137.163 165.503 136.599 165.612C136.187 165.69 135.74 166.044 135.356 166.058C135.072 166.07 134.706 165.789 134.394 165.735C133.905 165.648 133.334 165.747 132.84 165.742C132.487 165.738 131.637 165.578 131.313 165.787C130.997 165.99 131.118 166.451 130.829 166.553C130.719 166.593 130.092 165.848 129.986 165.8C129.505 165.591 128.805 165.754 128.299 165.76C126.841 165.776 125.384 165.683 123.926 165.698C122.505 165.712 121.134 165.877 119.772 166.042C118.869 166.151 117.833 165.877 116.876 165.797C115.346 165.669 113.809 165.693 112.275 165.723C111.504 165.739 110.734 165.75 109.963 165.77C109.781 165.774 109.42 165.704 109.245 165.755C108.538 165.967 108.987 165.98 108.487 166.302C109.141 165.88 107.021 165.604 106.898 165.604C105.936 165.596 105.054 166.068 104.253 165.975C103.385 165.877 102.498 165.34 101.544 165.506C101.097 165.585 100.727 166.082 100.395 166.14C99.8591 166.232 99.6757 165.846 99.1843 165.652C98.2031 165.265 97.0655 165.602 96.0412 165.535C94.6038 165.441 93.2189 165.438 91.7767 165.419C89.1442 165.384 86.5118 165.34 83.8793 165.366C81.4543 165.39 79.5078 166.362 77.0956 166.309C75.832 166.282 74.5461 166.17 73.2825 166.202C72.1992 166.228 71.6456 167.035 72.464 167.984C73.0193 168.625 74.0355 168.692 74.8173 168.81C75.9772 168.984 77.1163 169.236 78.2714 169.43C81.0203 169.891 83.8969 169.876 86.6777 169.959C98.0148 170.301 109.355 171.307 120.7 171.414C125.683 171.461 130.716 171.88 135.683 171.685C138.452 171.575 141.16 172.17 143.952 171.743C145.129 171.563 146.286 171.454 147.473 171.368C147.628 171.358 148.534 171.183 148.705 171.261C149.21 171.491 148.928 171.28 149.14 171.864C149.488 172.825 149.343 174.355 149.341 175.377C149.338 177.006 149.258 178.637 149.204 180.266C149.151 181.824 149.064 183.383 148.971 184.94C148.933 185.585 149.186 188.008 148.689 188.49C148.304 188.862 146.505 188.685 146.018 188.581C145.432 188.457 145.378 188.426 144.746 188.5C144.279 188.555 144.113 188.541 143.646 188.492C142.309 188.346 140.775 188.321 139.432 188.562C138.39 188.75 137.296 188.256 136.897 189.352C136.222 188.525 136.238 189.001 135.496 189.167C134.734 189.337 134.966 188.844 134.32 188.777C133.864 188.729 133.457 189.09 132.964 189.093C132.149 189.098 131.417 188.883 130.546 188.991C126.701 189.471 122.8 189.902 118.923 189.937C117.313 189.953 115.724 189.977 114.124 190.026C113.307 190.05 112.535 190.137 111.732 190.232C110.976 190.323 110.381 190.141 109.594 190.101C107.855 190.014 106.032 190.279 104.291 190.373C103.474 190.417 102.45 190.277 101.665 190.384C100.877 190.492 100.818 191.091 100.191 191.437C100.092 189.495 96.0285 190.74 94.9723 190.741C94.5559 190.743 94.0486 190.566 93.5476 190.598C92.718 190.652 91.8836 190.665 91.0523 190.695C89.7265 190.741 88.447 190.821 87.1882 190.66C85.5433 190.451 83.7581 190.674 82.0972 190.665C80.2896 190.653 78.4804 190.628 76.6728 190.569C74.8412 190.51 73.0145 190.397 71.183 190.339C69.5923 190.287 67.9059 190.416 66.3376 190.299C65.9308 190.269 65.5431 189.971 65.1793 189.956C64.6752 189.934 64.112 190.151 63.5297 190.101C61.6981 189.945 59.991 189.92 58.1388 189.924C54.9623 189.936 51.6613 189.35 48.6156 188.509C47.2117 188.122 45.7534 188.099 44.359 187.684C42.7493 187.204 41.2767 186.367 39.7961 185.593C38.6362 184.985 37.0058 184.703 37.478 183.169C37.9806 181.531 38.7862 179.942 39.3861 178.334C39.9078 176.934 40.2397 175.57 41.3708 174.519C42.4876 173.479 43.9155 172.78 45.1057 171.821C47.6999 169.731 50.4073 168.482 53.4801 167.244C56.5752 165.996 59.4007 164.157 62.6538 163.327C65.6739 162.556 68.584 161.524 71.5435 160.734C74.7806 159.871 78.1199 159.559 81.3857 158.791C84.5159 158.054 87.5887 156.972 90.7588 156.412C94.1906 155.806 97.6526 155.493 101.072 154.755C103.969 154.128 106.735 152.899 109.649 152.41C110.499 152.266 111.42 152.18 112.243 151.912C113.013 151.661 113.564 151.156 114.342 150.951C116.14 150.477 117.702 149.833 119.405 149.062C120.119 148.74 120.517 148.341 121.136 147.941C121.876 147.462 122.824 147.293 123.653 147.03C125.252 146.521 126.846 146.021 128.28 145.131C129.767 144.207 131.134 143.162 132.503 142.084C133.082 141.626 133.703 141.168 134.296 140.741C135.029 140.214 135.78 140.118 136.6 139.775C140.16 138.282 141.718 134.778 143.657 131.73C143.839 134.199 146.201 135.345 147.658 132.996ZM97.0767 89.7492C96.831 88.6436 96.4816 87.0577 97.8601 86.9955C97.9494 86.9907 98.862 87.2189 98.9577 87.2795C99.4267 87.5826 99.6038 88.5893 99.7841 89.0775C99.9421 89.5099 100.051 90.0843 100.402 90.4097C100.748 90.732 101.108 90.7384 101.432 91.1245C102.415 92.2971 103.146 94.3121 103.741 95.7289C102.933 95.5342 103.521 96.0751 103.178 96.383C102.642 96.8632 102.809 96.7771 102.046 96.8505C100.721 96.9813 100.114 96.6271 99.0773 95.8007C98.1983 95.1003 97.9159 94.6424 97.4085 93.6309C96.6858 92.187 97.0384 91.2665 97.0783 89.7492C96.7145 90.0827 96.3524 90.4161 95.9886 90.7511C96.1019 90.314 96.2152 89.8752 96.3268 89.4381L97.0767 89.7492ZM135.239 2.43432C134.534 0.0223581 133.216 -0.155855 131.447 1.57694C131.166 0.957114 130.833 -0.00540162 130.017 2.28283e-05C129.438 0.00401139 129.336 0.471468 128.948 0.787043C128.479 1.16867 128.114 1.30252 127.521 1.40415C126.222 1.62591 125.017 1.54981 123.795 2.12959C122.683 2.65752 122.154 3.42843 121.298 4.21896C120.496 4.9586 119.912 4.47965 118.998 4.85394C117.98 5.27018 117.525 6.50218 117.329 7.50027C117.088 8.72125 117.339 9.11038 116.49 9.9968C115.689 10.8333 115.263 11.8984 115.167 13.0476C115.076 14.1344 115.316 15.4241 115.944 16.3405C116.649 17.3728 117.382 17.0873 116.463 18.3136C116 18.931 115.947 20.2452 115.391 20.641C114.416 21.3326 113.159 20.2168 112.299 19.936C111.129 19.5545 111.389 20.1927 110.877 20.9625C110.119 22.0997 109.668 20.9262 108.634 21.1534C108.254 21.237 108.144 21.6469 108.01 21.696C107.538 21.8711 108.039 21.8061 107.5 21.6116C107.141 21.4826 107.386 20.7876 106.665 21.1842C106.163 21.4602 106.541 21.951 106.313 22.3063C105.864 23.0049 105.199 22.5976 104.867 23.4992C104.538 24.3973 104.092 25.5881 103.908 26.5699C103.685 27.7625 104.21 28.8005 104.133 29.9289C104.052 31.1073 102.884 31.9017 102.158 32.7278C98.5939 36.777 97.0847 42.1026 95.9216 47.2503C94.8415 52.0345 96.7432 57.4506 100.478 60.6932C102.37 62.3371 104.736 63.0418 106.554 64.851C107.361 65.6535 107.35 65.9088 106.389 66.5661C105.601 67.1053 104.878 67.793 104.044 68.219C101.898 69.3134 99.8065 70.0952 97.4101 70.5547C96.2024 70.7876 94.9436 70.6951 93.7215 70.6504C92.4483 70.6057 91.0125 70.786 89.7681 70.6312C88.6688 70.494 87.8009 69.607 86.6506 69.7011C86.1991 69.7378 85.9231 69.9101 85.4636 69.8686C84.8605 69.816 84.3532 69.4969 83.7134 69.5144C82.7386 69.5384 81.7734 69.5543 80.8321 69.591C79.7615 69.6293 78.5043 69.3374 77.4386 69.5224C76.4287 69.6979 75.2257 70.6057 74.3467 71.1354C73.2634 71.7879 71.9631 72.5441 70.9915 73.3419C70.0757 74.0965 69.4295 75.2963 68.7148 76.2328C67.9586 77.2219 67.0827 78.1074 66.3233 79.0934C63.3302 82.975 60.1777 87.7565 59.2412 92.6433C59.0051 93.8798 59.0178 95.1019 59.1949 96.3431C59.356 97.4535 60.3963 97.8747 60.4282 99.0681C60.492 101.482 59.3353 104.279 58.6636 106.567C57.9568 108.976 57.0698 111.315 55.9722 113.58C55.5478 114.458 55.0085 115.182 54.7405 116.091C54.415 117.2 53.9173 118.253 53.5535 119.373C50.4073 129.056 45.5301 138.068 41.9739 147.604C40.0642 152.727 38.0428 157.807 35.9591 162.866C34.9349 165.356 33.8245 167.77 32.7092 170.222C32.5625 170.545 32.4588 171.165 32.2035 171.387C31.7727 171.762 32.1524 171.548 31.5494 171.484C31.0277 171.43 30.4868 171.192 29.9619 171.105C28.692 170.891 27.3933 170.854 26.1138 170.728C24.6428 170.583 23.3489 170.508 21.8779 170.578C20.5075 170.645 19.1609 170.238 17.7968 170.149C14.8756 169.954 11.9943 170.057 9.07464 170.112C6.79956 170.154 3.8879 169.884 1.78194 170.94C-0.327215 171.997 0.400307 174.433 2.18878 175.36C4.33303 176.472 6.85539 176.63 8.98529 177.762C7.38667 178.254 5.65882 178.128 4.03148 178.512C2.98169 178.76 1.35915 178.941 0.569418 179.707C-0.196386 180.449 -0.11981 181.727 0.38594 182.597C1.01613 183.68 2.22706 183.867 3.31674 184.241C2.82534 184.892 2.06113 184.841 1.6192 185.698C1.03368 186.839 1.40063 188.056 2.11857 189.042C3.6789 191.182 6.76764 191.362 9.17992 191.667C11.5491 191.966 14.038 192.038 16.4231 191.876C17.7824 191.783 19.1242 191.716 20.466 191.525C22.0103 191.304 21.8619 192.385 22.4124 193.492C22.9452 194.564 23.7127 195.022 24.9012 194.956C26.1856 194.885 27.6087 194.797 28.8818 194.583C30.0991 194.377 31.1537 193.749 32.3216 193.487C33.373 193.251 34.2074 192.87 35.2077 192.357C36.3548 191.772 36.9642 190.789 37.9678 190.116C38.9984 189.423 40.0753 190.51 41.0884 191.051C43.5518 192.367 46.2544 192.948 48.9475 193.594C51.6932 194.254 54.3671 195.097 57.1607 195.553C58.461 195.765 59.6959 195.738 60.9882 195.875C62.4799 196.035 63.7722 196.603 65.2942 196.606C70.6708 196.617 76.0825 197.587 81.4623 197.767C86.7862 197.945 92.1979 197.504 97.517 197.862C100.237 198.043 102.87 197.678 105.574 197.819C108.364 197.964 111.254 197.817 114.038 197.603C119.815 197.161 125.415 197.276 131.131 196.99C134.105 196.842 137.138 196.561 140.075 196.089C142.955 195.626 146.213 196.159 148.248 193.656C148.473 194.637 148.534 195.655 149.252 196.429C150.007 197.243 151.222 197.571 152.234 197.943C154.814 198.889 157.42 199.787 160.019 200.685C162.481 201.537 164.959 202.46 167.441 203.24C170.05 204.06 172.532 205.054 175.096 206.016C177.421 206.889 179.828 207.578 182.067 208.629C182.99 209.063 183.959 209.1 184.841 209.505C185.932 210.004 186.945 210.485 188.113 210.845C189.117 211.155 190.033 211.378 191.003 211.78C191.963 212.179 193.324 212.87 194.329 212.34C195.036 211.968 195.312 211.113 195.53 210.398C195.802 209.505 195.57 207.956 196.628 207.996C197.673 208.036 199.149 209.041 200.175 209.382C201.4 209.791 202.656 210.473 203.918 210.705C205.183 210.936 206.178 210.866 206.842 209.692C207.589 208.369 207.464 206.968 207.241 205.529C209.393 205.524 211.386 205.725 213.557 205.799C214.754 205.84 215.917 205.893 217.109 205.762C218.185 205.642 219.786 205.981 220.721 205.488C222.617 204.486 222.335 201.654 221.378 200.105C220.847 199.245 220.014 198.666 219.167 198.144C218.104 197.49 217.325 196.748 216.395 195.915C217.002 195.497 217.791 195.7 218.386 195.202C218.848 194.816 219.135 194.173 219.347 193.623C219.739 192.598 219.234 190.247 220.121 189.666C220.594 189.356 221.434 189.489 221.975 189.24C222.715 188.9 223.233 188.275 223.552 187.53C224.27 185.851 223.655 184.103 222.954 182.534C225.607 182.083 229.497 181.903 230.255 178.833C230.497 177.852 230.531 176.716 230.197 175.752C229.701 174.321 228.548 174.245 227.268 173.825C221.919 172.07 216.907 169.219 211.143 168.796C208.056 168.571 204.947 168.452 201.863 168.131C198.766 167.81 195.779 167.242 192.662 167.628C191.336 167.791 189.8 167.646 188.531 167.885C187.304 168.116 187.15 169.564 188.086 170.398C188.999 171.208 190.32 170.69 191.406 170.781C192.943 170.91 194.24 171.638 195.676 172.095C199.198 173.219 203.059 174.016 206.733 174.42C208.705 174.637 210.569 174.666 212.499 175.192C214.254 175.669 215.99 176.212 217.75 176.67C215.827 177.183 212.102 177.126 211.462 179.468C211.161 180.569 211.494 182.094 212.464 182.775C213.027 183.171 214.256 182.991 214.61 183.583C213.096 183.768 211.37 182.603 210.539 184.269C209.589 186.169 210.518 187.668 211.732 189.079C210.66 188.902 209.557 189.103 208.474 188.966C207.638 188.86 206.858 188.608 206.063 188.87C205.666 189.002 205.717 189.356 205.215 189.358C204.849 189.36 204.302 188.962 203.985 188.809C202.777 188.227 201.553 187.753 200.305 187.268C198.788 186.676 197.346 186.221 195.832 185.851C193.74 185.338 191.642 184.021 189.602 183.278C188.737 182.962 187.627 182.64 187.197 181.74C186.754 180.813 187.094 179.454 187.121 178.472C187.197 175.712 187.164 172.947 187.148 170.186C187.134 167.864 187.078 165.585 186.87 163.273C186.623 160.505 186.845 157.746 186.74 154.973C186.642 152.427 186.87 149.887 186.8 147.342C186.724 144.507 186.582 141.683 186.551 138.845C186.5 133.746 186.328 128.654 186.229 123.556C186.129 118.32 185.573 113.082 184.453 107.963C183.951 105.668 183.297 103.333 182.424 101.153C182.146 100.464 181.858 100.424 182.521 100.03C182.915 99.7956 183.404 100.057 183.79 100.11C184.602 100.218 185.328 100.266 186.156 100.217C190.899 99.9392 195.811 100.164 200.537 100.59C202.995 100.812 205.467 101.024 207.935 101.112C210.397 101.2 212.857 101.581 215.318 101.401C219.444 101.097 224.148 101.57 227.683 98.9149C231.455 96.0815 231.1 91.0623 228.664 87.4359C225.976 83.4329 221.486 81.1531 217.737 78.3483C214.053 75.593 209.725 73.5716 205.708 71.3524C197.107 66.6012 187.866 62.2042 178.608 58.9208C169.188 55.5808 159.735 51.7411 149.477 52.3938C144.279 52.7243 138.464 52.9174 133.878 55.6776C131.429 57.1526 129.057 58.6904 126.953 60.6386C125.962 61.5565 125.088 62.6876 124.033 63.5268C123.052 64.3054 122.088 63.7725 120.968 63.4853C121.763 60.9237 122.556 58.3616 123.35 55.7998C124.448 56.6504 125.957 56.9738 127.383 56.673C129.114 56.3078 128.974 55.5685 128.819 54.0878C128.747 53.401 128.559 53.5182 129.156 53.0844C129.644 52.7285 130.538 52.6122 131.101 52.304C132.505 51.535 133.722 50.406 134.241 48.8559C134.754 47.3146 134.39 45.8848 134.054 44.3549C133.649 42.5152 134.649 43.2844 135.793 42.4289C136.297 42.0526 136.477 41.7255 136.391 41.1039C136.319 40.5993 135.322 39.8726 135.367 39.3757C135.421 38.777 135.755 38.844 136.228 38.4829C136.75 38.0846 137.127 37.5959 137.358 36.9687C137.846 35.6407 136.851 34.8202 136.434 33.5955C136.232 33.002 136.032 32.4944 135.635 31.9948C134.931 31.1098 134.659 31.1292 133.677 31.137C132.851 31.1432 132.859 31.0757 132.24 30.3286C131.999 30.0387 131.76 29.7505 131.552 29.4361C131.196 28.8957 131.096 28.9691 131.479 28.5471C132.64 27.2609 133.172 29.2689 134.204 29.1476C135.397 29.0074 135.613 27.1146 136.361 26.4825C136.884 26.0399 137.482 26.2085 138.055 25.9096C138.756 25.5444 138.896 24.8478 139.351 24.2642C140.089 23.317 141.161 23.1499 141.654 21.9483C141.934 21.2662 141.972 20.5641 142.028 19.841C142.109 18.8115 142.379 17.9977 142.679 17.0178C142.983 16.0181 142.908 15.2957 142.412 14.3759C141.9 13.4282 141.84 13.1095 141.969 12.0404C142.066 11.2265 142.096 10.5041 141.672 9.77822C141.214 8.99567 141.118 8.58723 140.968 7.69603C140.839 6.91443 140.59 6.35157 139.834 6.02738C139.32 5.80625 138.762 6.05242 138.398 5.54891C138.034 5.04635 138.132 4.2413 137.758 3.68609C137.151 2.78021 136.235 2.63854 135.239 2.43432Z" clip-rule="evenodd"/><path fill="#000" fill-rule="evenodd" d="M105.118 42.6863C105.472 41.8558 106.656 38.0257 104.709 38.0061C103.165 37.9905 103.653 41.3142 103.634 42.1301C103.599 43.6572 102 43.8741 101.402 45.2595C100.705 46.8747 101.186 48.8034 102.273 50.1201C103.103 51.1248 104.701 52.2762 105.842 51.0461C107.11 49.6773 105.891 48.9091 105.003 48.0566C103.717 46.8214 106.177 46.4625 106.817 45.4604C107.902 43.7574 106.71 42.8715 105.118 42.6863Z" clip-rule="evenodd"/><path fill="#000" fill-rule="evenodd" d="M110.694 43.5502C110.872 44.3388 110.818 46.1392 111.675 46.5643C113.112 47.2769 113.444 43.8396 113.433 43.0807C113.42 42.2734 113.141 40.3662 111.951 40.6132C110.614 40.8905 111.372 43.3635 110.694 43.5502Z" clip-rule="evenodd"/><path fill="#000" fill-rule="evenodd" d="M105.317 53.5342C103.192 53.6002 103.312 56.1335 105.349 56.2219C107.246 56.3042 107.2 53.476 105.317 53.5342Z" clip-rule="evenodd"/><path fill="#000" fill-rule="evenodd" d="M100.797 91.2904C100.997 92.1344 101.459 92.9305 102.153 93.4634C101.989 93.1283 101.279 91.1404 100.797 91.2904Z" clip-rule="evenodd"/></svg>