<svg width="16" height="17" viewBox="0 0 16 17" fill="none" xmlns="http://www.w3.org/2000/svg">
<g clip-path="url(#clip0_302_918)">
<path d="M7.42442 9.28429L3.32368 6.63983C3.19059 6.554 3.01747 6.56309 2.89412 6.66237L0.137142 8.88099C-0.058121 9.03812 -0.0422724 9.34031 0.168374 9.47615L4.26912 12.1206C4.4022 12.2064 4.57532 12.1974 4.69868 12.0981L7.45565 9.87949C7.65092 9.72233 7.63507 9.42013 7.42442 9.28429Z" fill="#1587EA"/>
<path d="M8.54442 9.87945L11.3014 12.098C11.4248 12.1973 11.5979 12.2064 11.731 12.1206L15.8317 9.47612C16.0423 9.34028 16.0582 9.03808 15.8629 8.88095L13.106 6.66237C12.9826 6.56309 12.8095 6.554 12.6764 6.63983L8.57565 9.28429C8.36504 9.42013 8.34915 9.72233 8.54442 9.87945Z" fill="#1587EA"/>
<path d="M7.45565 2.93479L4.69868 0.716199C4.57529 0.616922 4.4022 0.607835 4.26912 0.69366L0.168374 3.33812C-0.0422724 3.47396 -0.058121 3.77616 0.137142 3.93329L2.89412 6.15187C3.01751 6.25115 3.19059 6.26024 3.32368 6.17441L7.42442 3.52995C7.63507 3.39411 7.65092 3.09191 7.45565 2.93479Z" fill="#1587EA"/>
<path d="M15.8317 3.33812L11.7309 0.69366C11.5978 0.607835 11.4247 0.616922 11.3014 0.716199L8.5444 2.93479C8.34914 3.09191 8.36498 3.39411 8.57563 3.52995L12.6764 6.17441C12.8095 6.26024 12.9826 6.25115 13.106 6.15187L15.8629 3.93329C16.0582 3.77612 16.0423 3.47393 15.8317 3.33812Z" fill="#1587EA"/>
<path d="M7.7991 10.2689L4.71166 12.7317C4.59976 12.821 4.44338 12.8289 4.3231 12.7513L3.56212 12.2605C3.34028 12.1175 3.0481 12.2768 3.0481 12.5407V12.806C3.0481 12.9226 3.10899 13.0307 3.20866 13.0911L7.80514 15.8775C7.91136 15.9419 8.04455 15.9419 8.15077 15.8775L12.7473 13.0911C12.8469 13.0307 12.9078 12.9226 12.9078 12.806V12.5692C12.9078 12.3053 12.6156 12.146 12.3938 12.2891L11.6774 12.751C11.5569 12.8287 11.4002 12.8207 11.2883 12.731L8.21545 10.2694C8.09382 10.1719 7.92091 10.1718 7.7991 10.2689Z" fill="#1587EA"/>
</g>
<defs>
<clipPath id="clip0_302_918">
<rect width="16" height="16" fill="white" transform="translate(0 0.280396)"/>
</clipPath>
</defs>
</svg>
