<svg width="74" height="74" viewBox="0 0 74 74" fill="none" xmlns="http://www.w3.org/2000/svg">
<path d="M27.789 8.89521C27.789 7.97167 27.8828 7.41755 29.4656 7.41755H50.6786C54.3727 7.41755 56.4187 10.5718 57.8964 16.491L59.0899 21.2252H62.6988C63.3524 7.7898 63.9207 1.94736 63.9207 1.94736C63.9207 1.94736 54.8388 2.97035 49.4567 2.97035H22.3217L7.78946 2.50432V6.39739L12.6913 7.32377C16.1297 8.00577 16.9538 8.73323 17.238 11.8875C17.238 11.8875 17.5505 21.1797 17.5505 36.4394C17.5505 51.7417 17.2948 60.906 17.2948 60.906C17.2948 63.671 16.1866 64.694 12.7766 65.376L7.88323 66.3137V70.1471L22.4609 69.6782H46.7571C52.2557 69.6782 64.9153 70.1471 64.9153 70.1471C65.2137 66.8224 67.0465 51.7332 67.3449 50.0737H63.9349L60.2862 58.3429C57.4304 64.8219 53.2503 65.2907 48.607 65.2907H34.6658C30.0339 65.2907 27.8032 63.4721 27.8032 59.4653V38.3206C27.8032 38.3206 38.09 38.3206 41.4148 38.5934C44.0064 38.7752 45.5721 39.5169 46.4161 43.1343L47.5243 47.9509H51.5311L51.2753 35.7943L51.8209 23.561H47.8682L46.5894 28.9317C45.7853 32.4668 45.2254 33.109 41.6052 33.4784C36.871 33.9615 27.9226 33.8762 27.9226 33.8762V8.90942H27.7805L27.789 8.89521Z" fill="black"/>
</svg>
