<svg xmlns="http://www.w3.org/2000/svg" width="16" height="16" fill="none" viewBox="0 0 16 16"><path fill="url(#paint0_linear_302_1039)" d="M8.77945 14.4645C7.40978 14.4645 5.38456 14.4255 3.62224 14.0891C1.26866 13.6402 1.093 12.716 1.11482 11.8078C1.13318 11.0352 1.4868 8.44854 1.83581 7.39001C2.36394 5.78957 3.17104 4.19832 3.66242 3.51406C4.33635 2.57607 6.04471 1.06863 7.76225 1.01697H7.77832C8.00564 1.01697 8.23181 1.16622 8.36729 1.40617L9.03892 2.591C9.19965 2.87572 9.19621 3.22589 9.02974 3.50602C8.89311 3.73564 8.49587 3.79764 8.49243 3.79879L8.17671 3.84471L8.3891 4.08466C8.38795 4.08466 8.45914 4.19717 8.29151 4.44057C8.14226 4.65756 7.8518 4.76203 7.40519 4.76203C6.98614 4.76203 6.50853 4.66674 6.12507 4.59097C6.10211 4.58637 6.078 4.58408 6.05389 4.58408C5.91153 4.58408 5.76457 4.6633 5.63139 4.81255C5.45918 5.00428 4.91614 5.78383 5.13657 7.75969C5.24564 8.74016 4.92073 9.62304 4.91728 9.63222L4.78066 9.99731L5.14231 9.85266C5.14575 9.85036 5.69684 9.63452 6.45457 9.63452H6.53494L6.5866 9.57252C6.60268 9.553 8.18704 7.68047 10.2433 7.68047C11.5865 7.68047 12.8724 8.22467 13.6829 9.13625C14.2547 9.77918 14.5222 10.5404 14.4349 11.2786C14.0974 14.1465 11.3914 14.4565 10.2433 14.4565C10.0825 14.4565 9.89425 14.4576 9.68414 14.4599C9.41664 14.4622 9.1124 14.4645 8.77945 14.4645V14.4645Z"/><path fill="#EDA600" d="M7.77947 1.1905C7.94249 1.1905 8.11471 1.30875 8.21918 1.49244L8.89081 2.67727C9.0217 2.90804 9.01825 3.19276 8.88393 3.42008C8.81849 3.5303 8.5969 3.61067 8.47061 3.63018L7.83572 3.71973L8.23066 4.16519C8.22952 4.18815 8.21689 4.24671 8.1503 4.34315C8.03664 4.50732 7.78635 4.59113 7.40519 4.59113C7.00336 4.59113 6.53494 4.49814 6.15951 4.42351C6.12507 4.41662 6.08948 4.41318 6.05504 4.41318C5.92071 4.41318 5.7152 4.46255 5.50395 4.69905C5.01372 5.24669 4.81281 6.39822 4.9655 7.77937C5.06883 8.71277 4.75885 9.56465 4.7554 9.57269L4.48445 10.2971L5.20545 10.0136C5.2089 10.0101 5.73357 9.8069 6.45457 9.8069H6.61645L6.71978 9.68291C6.73471 9.66454 8.27199 7.85285 10.2444 7.85285C11.5395 7.85285 12.7771 8.37523 13.5555 9.25122C14.0939 9.85742 14.3465 10.5704 14.265 11.2592C14.1399 12.3201 13.668 13.1168 12.8609 13.63C12.0067 14.1708 10.9666 14.2844 10.2433 14.2844C10.0825 14.2844 9.89424 14.2856 9.683 14.2879C9.41549 14.2902 9.11125 14.2925 8.7806 14.2925C7.41782 14.2925 5.40292 14.2534 3.65553 13.9205C2.6257 13.7242 1.95751 13.4268 1.60964 13.0124C1.30999 12.6553 1.27899 12.2248 1.28817 11.8126C1.30654 11.048 1.65556 8.49004 2.00114 7.44528C2.50515 5.91832 3.3134 4.29952 3.80478 3.61641C4.45919 2.70482 6.11474 1.24101 7.76913 1.19164L7.77947 1.1905ZM7.77947 0.846069H7.7588C5.94367 0.900029 4.18825 2.48898 3.52465 3.41434C3.01834 4.12042 2.19976 5.74496 1.67393 7.33621C1.32721 8.38786 0.963266 10.9837 0.943748 11.8034C0.919639 12.8057 1.15614 13.7931 3.59124 14.258C5.3237 14.5887 7.31908 14.6369 8.7806 14.6369C9.37416 14.6369 9.87932 14.6289 10.2433 14.6289C12.195 14.6289 14.3063 13.8493 14.606 11.2994C14.8356 9.34766 12.7691 7.50843 10.2433 7.50843C8.07912 7.50843 6.45457 9.46247 6.45457 9.46247C5.65091 9.46247 5.07687 9.69209 5.07687 9.69209C5.07687 9.69209 5.42129 8.77362 5.30648 7.74034C5.07801 5.68067 5.69683 4.75646 6.05389 4.75646C6.06652 4.75646 6.07915 4.75761 6.09178 4.7599C6.48901 4.83912 6.97121 4.93441 7.40519 4.93441C7.83917 4.93441 8.22492 4.83912 8.43273 4.53832C8.69105 4.16519 8.51769 3.97002 8.51769 3.97002C8.51769 3.97002 8.99644 3.90228 9.17898 3.59459C9.3776 3.2605 9.3822 2.84489 9.19047 2.50621L8.51769 1.32138C8.36499 1.05158 8.0883 0.846069 7.77947 0.846069V0.846069Z"/><path fill="#EDA600" d="M7.6922 2.51885C7.40403 2.46489 7.06075 2.45341 6.79325 2.58888C6.46145 2.75765 6.3455 3.19507 6.53837 3.51309C6.82769 3.98725 7.60954 4.03318 8.10437 4.01366C8.3248 4.00448 8.32595 3.66005 8.10437 3.66923C7.74731 3.68301 7.30185 3.66464 6.99072 3.47521C6.76799 3.33858 6.69222 3.0263 6.96661 2.88738C7.14342 2.79669 7.40862 2.8162 7.59921 2.85179C7.81734 2.89083 7.91034 2.55903 7.6922 2.51885Z"/><path fill="#EDA600" d="M4.64053 9.89175C4.08945 10.6943 3.94709 11.5014 4.14226 12.452C4.18704 12.669 4.51883 12.5771 4.47406 12.3601C4.29725 11.4968 4.43732 10.7941 4.93789 10.0651C5.06418 9.88256 4.76567 9.71035 4.64053 9.89175Z"/><path fill="#EDA600" d="M5.96891 4.40054C5.71403 4.3638 5.35009 4.05496 5.19854 3.72891C5.15262 3.63017 5.17214 3.4901 4.99189 3.47977C4.74275 3.46599 4.9253 3.96656 5.01026 4.08941C5.24332 4.4235 5.55904 4.61064 5.97235 4.64049C6.19393 4.65656 6.19623 4.43268 5.96891 4.40054Z"/><path fill="#EDA600" d="M6.63255 11.0008C6.92187 12.196 8.00566 13.0869 9.20082 13.2488C10.3547 13.4049 12.2926 13.1374 12.8609 11.9032C12.9528 11.7034 12.6566 11.5278 12.5636 11.7298C12.0435 12.8607 10.187 13.0742 9.14457 12.8951C8.12392 12.7195 7.21233 11.9342 6.96549 10.9101C6.91268 10.6943 6.58088 10.785 6.63255 11.0008V11.0008Z"/><defs><linearGradient id="paint0_linear_302_1039" x1="7.782" x2="7.782" y1="13.561" y2="2.551" gradientUnits="userSpaceOnUse"><stop stop-color="#FFB300"/><stop offset=".401" stop-color="#FFCA28"/></linearGradient></defs></svg>