<svg xmlns="http://www.w3.org/2000/svg" width="196" height="204" fill="none" viewBox="0 0 196 204"><g clip-path="url(#clip0_144_1927)"><path fill="url(#paint0_linear_144_1927)" d="M82.3267 76.0266H101.871L120.251 107.715H100.663L82.3267 76.0266Z"/><path fill="url(#paint1_linear_144_1927)" d="M120.251 107.714L110.457 124.645H73.7844L83.6004 107.714H120.251Z"/><path fill="url(#paint2_linear_144_1927)" d="M73.7845 124.645L64.0344 107.715L82.3268 76.0266L92.1428 93.0015L73.7845 124.645Z"/><path fill="#000" d="M73.7844 124.645L92.033 107.715H83.6004L73.7844 124.645ZM120.251 107.715H100.685L96.381 100.292L120.251 107.715ZM82.3268 76.0266L87.9704 100.182L92.1428 93.0015L82.3268 76.0266Z" opacity=".1"/></g><g clip-path="url(#clip1_144_1927)"><path fill="#1587EA" d="M38.8801 49.1856L31.4109 44.3689C31.1685 44.2126 30.8532 44.2291 30.6285 44.41L25.6069 48.451C25.2512 48.7372 25.2801 49.2877 25.6637 49.5351L33.133 54.3518C33.3754 54.5081 33.6907 54.4916 33.9154 54.3107L38.937 50.2697C39.2927 49.9835 39.2638 49.433 38.8801 49.1856Z"/><path fill="#1587EA" d="M40.9201 50.2697L45.9418 54.3107C46.1665 54.4915 46.4818 54.508 46.7242 54.3517L54.1934 49.535C54.5771 49.2876 54.6059 48.7372 54.2503 48.451L49.2286 44.41C49.0039 44.2291 48.6886 44.2126 48.4462 44.3689L40.977 49.1856C40.5934 49.433 40.5645 49.9835 40.9201 50.2697Z"/><path fill="#1587EA" d="M38.937 37.6205L33.9154 33.5795C33.6906 33.3987 33.3754 33.3821 33.133 33.5385L25.6637 38.3552C25.2801 38.6026 25.2512 39.153 25.6069 39.4392L30.6285 43.4802C30.8532 43.661 31.1685 43.6776 31.4109 43.5213L38.8801 38.7046C39.2638 38.4571 39.2927 37.9067 38.937 37.6205Z"/><path fill="#1587EA" d="M54.1934 38.3552L46.7242 33.5385C46.4818 33.3821 46.1665 33.3987 45.9418 33.5795L40.9201 37.6205C40.5645 37.9067 40.5934 38.4571 40.977 38.7046L48.4463 43.5213C48.6887 43.6776 49.004 43.661 49.2287 43.4802L54.2504 39.4392C54.6059 39.153 54.5771 38.6025 54.1934 38.3552Z"/><path fill="#1587EA" d="M39.5625 50.9792L33.939 55.4651C33.7352 55.6276 33.4503 55.642 33.2313 55.5007L31.8452 54.6068C31.4411 54.3462 30.9089 54.6363 30.9089 55.1171V55.6003C30.9089 55.8126 31.0198 56.0096 31.2014 56.1196L39.5736 61.1948C39.767 61.312 40.0096 61.312 40.2031 61.1948L48.5753 56.1196C48.7568 56.0096 48.8677 55.8127 48.8677 55.6003V55.169C48.8677 54.6883 48.3355 54.3982 47.9315 54.6587L46.6266 55.5002C46.4072 55.6417 46.1218 55.6271 45.9179 55.4638L40.3209 50.98C40.0994 50.8025 39.7844 50.8022 39.5625 50.9792Z"/></g><path fill="#2684FF" d="M29.0579 102.961H19.1381C19.1381 104.149 19.6098 105.288 20.4496 106.128C21.2894 106.968 22.4284 107.439 23.6161 107.439H25.4434V109.204C25.445 111.675 27.4476 113.677 29.9185 113.679V103.822C29.9185 103.347 29.5333 102.961 29.0579 102.961Z"/><path fill="url(#paint3_linear_144_1927)" d="M24.1495 107.904H14.2297C14.2313 110.375 16.2339 112.377 18.7048 112.379H20.5322V114.149C20.5353 116.62 22.5393 118.621 25.0102 118.621V108.765C25.0102 108.289 24.6248 107.904 24.1495 107.904V107.904Z"/><path fill="url(#paint4_linear_144_1927)" d="M19.2384 112.844H9.31848C9.31848 115.317 11.3234 117.322 13.7965 117.322H15.6296V119.086C15.6312 121.555 17.6303 123.557 20.099 123.561V113.705C20.099 113.229 19.7137 112.844 19.2384 112.844Z"/><path fill="url(#paint5_radial_144_1927)" d="M63.8822 171.409C59.6349 171.409 56.1923 174.851 56.1923 179.098C56.1923 183.345 59.6349 186.788 63.8822 186.788C68.1289 186.788 71.5714 183.345 71.5714 179.098C71.5714 174.851 68.1289 171.409 63.8822 171.409V171.409ZM43.9039 171.409C39.6572 171.409 36.2143 174.851 36.2143 179.098C36.2143 183.345 39.6572 186.788 43.9039 186.788C48.1509 186.788 51.5938 183.345 51.5938 179.098C51.5938 174.851 48.1509 171.409 43.9035 171.409H43.9039V171.409ZM61.5825 161.797C61.5825 166.043 58.1399 169.487 53.8933 169.487C49.6459 169.487 46.2033 166.043 46.2033 161.797C46.2033 157.55 49.6459 154.107 53.8932 154.107C58.1399 154.107 61.5821 157.55 61.5821 161.797H61.5825Z"/><path fill="#fff" d="M125.621 19.9595H113.317V32.2641H125.621V19.9595Z"/><path fill="#EA4335" d="M125.612 37.7946L131.152 32.2548H125.612V37.7946Z"/><path fill="#FBBC04" d="M131.152 19.9595H125.612V32.2641H131.152V19.9595Z"/><path fill="#34A853" d="M125.621 32.2548H113.317V37.7946H125.621V32.2548Z"/><path fill="#188038" d="M107.777 32.2548V35.9433C107.777 36.9672 108.604 37.7946 109.623 37.7946H113.312V32.2548H107.777Z"/><path fill="#1967D2" d="M131.152 19.9596V16.2663C131.152 15.2472 130.324 14.4197 129.305 14.4197H125.617V19.9596H131.152Z"/><path fill="#4285F4" d="M125.612 14.4197H109.623C108.604 14.4197 107.777 15.2472 107.777 16.2663V32.2595H113.317V19.9596H125.621L125.612 14.4197Z"/><path fill="#4285F4" d="M115.836 29.5012C115.374 29.1926 115.06 28.7391 114.883 28.1361L115.953 27.6966C116.051 28.0659 116.22 28.3511 116.458 28.5568C116.701 28.7578 116.991 28.856 117.332 28.856C117.678 28.856 117.982 28.7532 118.23 28.5381C118.482 28.3231 118.609 28.0519 118.609 27.7247C118.609 27.3927 118.478 27.1169 118.211 26.9019C117.945 26.6915 117.613 26.584 117.216 26.584H116.598V25.5274H117.15C117.491 25.5274 117.781 25.4339 118.015 25.2469C118.249 25.0646 118.366 24.8075 118.366 24.4896C118.366 24.1997 118.263 23.9753 118.052 23.807C117.842 23.6387 117.575 23.5499 117.258 23.5499C116.944 23.5499 116.697 23.634 116.51 23.8023C116.327 23.9706 116.187 24.181 116.108 24.4194L115.051 23.98C115.191 23.5826 115.448 23.232 115.822 22.9281C116.201 22.6289 116.683 22.47 117.267 22.47C117.702 22.47 118.09 22.5541 118.431 22.7224C118.772 22.8907 119.048 23.1245 119.244 23.4143C119.441 23.7088 119.539 24.0454 119.539 24.4148C119.539 24.7934 119.445 25.1067 119.263 25.3731C119.081 25.6349 118.856 25.836 118.59 25.9762V26.0417C118.931 26.1819 119.23 26.4157 119.45 26.7149C119.675 27.0141 119.782 27.374 119.782 27.7901C119.782 28.2109 119.679 28.5802 119.464 28.9074C119.254 29.2347 118.959 29.4918 118.585 29.6788C118.211 29.8658 117.791 29.964 117.323 29.964C116.795 29.964 116.295 29.8097 115.836 29.5012ZM122.391 24.2044L121.217 25.0552L120.633 24.167L122.732 22.6523H123.541V29.805H122.391V24.2044V24.2044Z"/><path fill="#4A8CFF" d="M160.75 182.902C170.893 182.902 179.116 174.679 179.116 164.536C179.116 154.392 170.893 146.17 160.75 146.17C150.607 146.17 142.384 154.392 142.384 164.536C142.384 174.679 150.607 182.902 160.75 182.902Z"/><path fill="#fff" d="M148.966 158.786V167.417C148.97 168.353 149.346 169.249 150.011 169.908C150.676 170.567 151.576 170.935 152.512 170.931H165.093C165.263 170.932 165.426 170.865 165.547 170.746C165.668 170.626 165.737 170.464 165.738 170.294V161.663C165.733 160.727 165.357 159.831 164.693 159.172C164.028 158.513 163.128 158.144 162.192 158.148H149.615C149.531 158.147 149.447 158.163 149.368 158.195C149.29 158.226 149.218 158.273 149.158 158.332C149.098 158.391 149.05 158.462 149.017 158.54C148.984 158.618 148.967 158.701 148.966 158.786V158.786ZM166.539 162.153L171.733 158.358C172.184 157.984 172.534 158.078 172.534 158.755V170.325C172.534 171.095 172.106 171.001 171.733 170.721L166.539 166.935V162.153Z"/><path fill="url(#paint6_linear_144_1927)" d="M178.336 65.5209H157.735C156.354 65.5209 155.235 66.6402 155.235 68.021V88.6219C155.235 90.0027 156.354 91.1221 157.735 91.1221H178.336C179.717 91.1221 180.836 90.0027 180.836 88.6219V68.021C180.836 66.6402 179.717 65.5209 178.336 65.5209Z"/><path fill="#fff" d="M176.308 68.849H170.9C170.237 68.849 169.7 69.3863 169.7 70.0491V78.8495C169.7 79.5122 170.237 80.0495 170.9 80.0495H176.308C176.971 80.0495 177.508 79.5122 177.508 78.8495V70.0491C177.508 69.3863 176.971 68.849 176.308 68.849Z"/><path fill="#fff" d="M165.172 68.849H159.763C159.101 68.849 158.563 69.3863 158.563 70.0491V85.2498C158.563 85.9125 159.101 86.4498 159.763 86.4498H165.172C165.834 86.4498 166.372 85.9125 166.372 85.2498V70.0491C166.372 69.3863 165.834 68.849 165.172 68.849Z"/><defs><linearGradient id="paint0_linear_144_1927" x1="82.327" x2="113.51" y1="76.027" y2="113.347" gradientUnits="userSpaceOnUse"><stop stop-color="#F6C338"/><stop offset=".523" stop-color="#FFD351"/><stop offset="1" stop-color="#F6C338"/></linearGradient><linearGradient id="paint1_linear_144_1927" x1="120.251" x2="109.359" y1="107.714" y2="137.608" gradientUnits="userSpaceOnUse"><stop stop-color="#286EE6"/><stop offset=".521" stop-color="#4286FB"/><stop offset="1" stop-color="#286EE6"/></linearGradient><linearGradient id="paint2_linear_144_1927" x1="82.386" x2="61.102" y1="76.027" y2="118.033" gradientUnits="userSpaceOnUse"><stop stop-color="#069B5A"/><stop offset=".531" stop-color="#11AA62"/><stop offset="1" stop-color="#069B5A"/></linearGradient><linearGradient id="paint3_linear_144_1927" x1="24.798" x2="20.604" y1="107.921" y2="112.298" gradientUnits="userSpaceOnUse"><stop offset=".18" stop-color="#0052CC"/><stop offset="1" stop-color="#2684FF"/></linearGradient><linearGradient id="paint4_linear_144_1927" x1="20.171" x2="15.319" y1="112.893" y2="117.666" gradientUnits="userSpaceOnUse"><stop offset=".18" stop-color="#0052CC"/><stop offset="1" stop-color="#2684FF"/></linearGradient><radialGradient id="paint5_radial_144_1927" cx="0" cy="0" r="1" gradientTransform="translate(53.8977 171.988) scale(23.4418 21.6676)" gradientUnits="userSpaceOnUse"><stop stop-color="#FFB900"/><stop offset=".6" stop-color="#F95D8F"/><stop offset=".999" stop-color="#F95353"/></radialGradient><linearGradient id="paint6_linear_144_1927" x1="168.036" x2="168.036" y1="65.521" y2="91.122" gradientUnits="userSpaceOnUse"><stop stop-color="#0091E6"/><stop offset="1" stop-color="#0079BF"/></linearGradient><clipPath id="clip0_144_1927"><rect width="56.217" height="48.751" fill="#fff" transform="translate(64.0344 75.9603)"/></clipPath><clipPath id="clip1_144_1927"><rect width="29.143" height="29.143" fill="#fff" transform="translate(25.3571 32.7858)"/></clipPath></defs></svg>