<svg xmlns="http://www.w3.org/2000/svg" width="106" height="48" fill="none" viewBox="0 0 106 48"><path stroke="#000" stroke-linecap="round" stroke-linejoin="round" stroke-width="2.122" d="M27.1486 13.4337H19.7227C19.16 13.4337 18.6203 13.6572 18.2224 14.0551C17.8245 14.453 17.601 14.9927 17.601 15.5554V32.5289C17.601 33.0916 17.8245 33.6313 18.2224 34.0292C18.6203 34.4271 19.16 34.6506 19.7227 34.6506H32.4528C33.0155 34.6506 33.5552 34.4271 33.9531 34.0292C34.351 33.6313 34.5745 33.0916 34.5745 32.5289V20.8596L27.1486 13.4337Z"/><path stroke="#000" stroke-linecap="round" stroke-linejoin="round" stroke-width="2.122" d="M27.1486 13.4337V20.8596H34.5745"/><rect width="49.86" height="7.426" x="43.061" y="14.495" fill="#D0D0D0" rx="3.713"/><rect width="49.86" height="5.304" x="43.061" y="28.285" fill="#D0D0D0" rx="2.652"/><rect width="102.902" height="44.556" x="1.688" y="1.764" stroke="#000" stroke-width="2.122" rx="13.791"/></svg>