<svg width="41" height="41" viewBox="0 0 41 41" fill="none" xmlns="http://www.w3.org/2000/svg">
<mask id="mask0_136_1239" style="mask-type:alpha" maskUnits="userSpaceOnUse" x="8" y="8" width="25" height="25">
<path d="M13.5925 8.45622L32.5438 13.5925L27.4075 32.5438L8.45621 27.4075L13.5925 8.45622Z" fill="#D9D9D9" stroke="#3BB3BD" stroke-width="0.165"/>
</mask>
<g mask="url(#mask0_136_1239)">
<path d="M22.5019 50.9593C12.3872 48.218 6.40991 37.7961 9.15126 27.6814C11.8926 17.5667 22.3145 11.5894 32.4292 14.3308C42.5439 17.0721 48.5212 27.494 45.7798 37.6087C43.0385 47.7234 32.6166 53.7007 22.5019 50.9593Z" stroke="black" stroke-width="1.65"/>
<path d="M23.8606 45.9465C16.5143 43.9554 12.173 36.386 14.1641 29.0397C16.1551 21.6934 23.7245 17.3521 31.0708 19.3431C38.4172 21.3342 42.7585 28.9036 40.7674 36.2499C38.7764 43.5962 31.2069 47.9375 23.8606 45.9465Z" stroke="black" stroke-width="1.65"/>
<path d="M25.2189 40.934C20.641 39.6933 17.9357 34.9763 19.1764 30.3984C20.4172 25.8204 25.1341 23.1151 29.7121 24.3559C34.29 25.5966 36.9953 30.3136 35.7546 34.8915C34.5138 39.4694 29.7969 42.1747 25.2189 40.934Z" stroke="black" stroke-width="1.65"/>
</g>
</svg>
