<svg width="16" height="17" viewBox="0 0 16 17" fill="none" xmlns="http://www.w3.org/2000/svg">
<g clip-path="url(#clip0_302_891)">
<path d="M11.8632 5.11621H4.14264V12.8367H11.8632V5.11621Z" fill="white"/>
<path d="M11.8573 16.3069L15.3333 12.8309H11.8573V16.3069Z" fill="#EA4335"/>
<path d="M15.3333 5.11621H11.8573V12.8367H15.3333V5.11621Z" fill="#FBBC04"/>
<path d="M11.8632 12.8309H4.14264V16.3069H11.8632V12.8309Z" fill="#34A853"/>
<path d="M0.666656 12.8309V15.1453C0.666656 15.7877 1.18586 16.3069 1.82532 16.3069H4.13972V12.8309H0.666656Z" fill="#188038"/>
<path d="M15.3334 5.11626V2.79893C15.3334 2.15946 14.8142 1.64026 14.1747 1.64026H11.8603V5.11626H15.3334Z" fill="#1967D2"/>
<path d="M11.8573 1.64026H1.82532C1.18586 1.64026 0.666656 2.15946 0.666656 2.79893V12.8339H4.14266V5.11626H11.8632L11.8573 1.64026Z" fill="#4285F4"/>
<path d="M5.72367 11.1031C5.43327 10.9095 5.23674 10.625 5.12527 10.2466L5.79701 9.97087C5.85861 10.2026 5.96421 10.3815 6.11381 10.5106C6.26634 10.6367 6.44821 10.6983 6.66234 10.6983C6.87941 10.6983 7.07007 10.6338 7.22554 10.4989C7.38394 10.3639 7.46314 10.1938 7.46314 9.98847C7.46314 9.78021 7.38101 9.60714 7.21381 9.47221C7.04661 9.34021 6.83834 9.27274 6.58901 9.27274H6.20181V8.60981H6.54794C6.76207 8.60981 6.94394 8.55114 7.09061 8.43381C7.23727 8.31941 7.31061 8.15807 7.31061 7.95861C7.31061 7.77674 7.24607 7.63594 7.11407 7.53034C6.98207 7.42474 6.81487 7.36901 6.61541 7.36901C6.41887 7.36901 6.26341 7.42181 6.14607 7.52741C6.03167 7.63301 5.94367 7.76501 5.89381 7.91461L5.23087 7.63887C5.31887 7.38954 5.48021 7.16954 5.71487 6.97887C5.95247 6.79114 6.25461 6.69141 6.62127 6.69141C6.89407 6.69141 7.13754 6.74421 7.35167 6.84981C7.56581 6.95541 7.73887 7.10207 7.86207 7.28394C7.98527 7.46874 8.04687 7.67994 8.04687 7.91167C8.04687 8.14927 7.98821 8.34581 7.87381 8.51301C7.75941 8.67727 7.61861 8.80341 7.45141 8.89141V8.93247C7.66554 9.02047 7.85327 9.16714 7.99114 9.35487C8.13194 9.54261 8.19941 9.76847 8.19941 10.0295C8.19941 10.2935 8.13487 10.5253 7.99994 10.7306C7.86794 10.9359 7.68314 11.0973 7.44847 11.2146C7.21381 11.3319 6.94981 11.3935 6.65647 11.3935C6.32501 11.3935 6.01114 11.2967 5.72367 11.1031ZM9.83621 7.77967L9.09994 8.31354L8.73327 7.75621L10.0503 6.80581H10.5578V11.2938H9.83621V7.77967V7.77967Z" fill="#4285F4"/>
</g>
<defs>
<clipPath id="clip0_302_891">
<rect width="16" height="16" fill="white" transform="translate(0 0.973633)"/>
</clipPath>
</defs>
</svg>
