<svg width="220" height="138" viewBox="0 0 220 138" fill="none" xmlns="http://www.w3.org/2000/svg">
<path fill-rule="evenodd" clip-rule="evenodd" d="M206.62 53.0055C212.551 67.6019 193.212 80.4609 181.192 83.4859C180.248 83.7235 179.318 83.9984 178.387 84.2736C177.677 84.4835 176.966 84.6935 176.249 84.887C175.05 85.2105 173.934 85.2967 172.79 85.3851C172.212 85.4298 171.626 85.4751 171.019 85.5518C170.243 85.6498 169.693 86.0245 169.138 86.4021C168.665 86.7243 168.189 87.0486 167.566 87.2049C165.538 87.714 165.41 86.3853 165.257 84.7856C165.239 84.6037 165.221 84.4181 165.2 84.2314C164.329 76.4813 160.195 69.0807 155.854 62.6983C157.752 61.968 159.63 61.1755 161.502 60.3808C162.057 60.1448 162.713 59.7665 163.404 59.3672C164.707 58.6153 166.138 57.7892 167.272 57.7003C168.227 57.6257 169.569 58.1895 170.713 58.6697C171.107 58.8349 171.477 58.9903 171.799 59.1063C173.897 59.861 175.998 60.4964 178.177 60.9936C178.834 61.1435 179.504 61.3035 180.184 61.4656C183.443 62.2436 186.911 63.0714 190.158 63.0773C190.427 63.0778 190.808 63.1039 191.244 63.1338C192.639 63.2294 194.591 63.3632 195.198 62.8157C196.718 61.4457 194.539 60.3844 193.23 59.9386C189.4 58.6349 185.464 57.7267 181.523 56.8175C177.434 55.8739 173.34 54.9292 169.353 53.5401C167.495 52.8925 165.645 52.2076 163.793 51.522C161.63 50.7213 159.464 49.9197 157.281 49.1756C156.321 48.8487 155.35 48.533 154.375 48.2163C151.8 47.3801 149.204 46.5366 146.749 45.4591C142.28 43.4979 137.781 41.0298 133.882 38.0892C133.662 37.9235 133.375 37.7361 133.064 37.533C132.271 37.0146 131.321 36.3938 130.929 35.7714C130.67 35.3609 130.573 35.3944 130.55 35.3663C130.53 35.3423 130.564 35.2728 130.598 34.8387C130.634 34.3885 131.002 33.824 131.34 33.3067C131.508 33.0483 131.669 32.8016 131.777 32.587C132.983 30.1847 134.066 27.7206 134.966 25.187C138.404 26.5694 141.756 28.2482 145.104 29.9246C147.762 31.2554 150.416 32.5847 153.108 33.7628C159.229 36.4425 166.107 38.2729 172.622 39.7086C173.462 39.8937 174.338 40.0355 175.223 40.1786C177.261 40.5084 179.345 40.8455 181.13 41.7351C181.351 41.8451 181.571 41.9587 181.792 42.0725C182.658 42.5196 183.53 42.9694 184.454 43.2094C184.809 43.8544 185.146 43.9746 185.467 43.5698C185.668 43.3328 185.932 43.2286 186.261 43.2569C186.824 43.339 187.4 43.5565 187.946 43.7632C188.086 43.8157 188.223 43.8676 188.357 43.9163C191.719 45.1318 194.948 46.6768 198.149 48.2555C198.379 48.3689 198.61 48.4819 198.842 48.5951C200.136 49.2289 201.444 49.8688 202.679 50.599C203.459 51.0604 204.159 51.5276 204.804 52.171C205.018 52.3844 205.16 52.5887 205.279 52.7602C205.591 53.2087 205.747 53.4323 206.62 53.0055Z" fill="#FFC700"/>
<path fill-rule="evenodd" clip-rule="evenodd" d="M191.493 36.71C191.999 36.2753 192.508 35.838 192.959 35.3431C192.631 37.0826 193.285 38.6417 193.938 40.2002C194.08 40.5376 194.221 40.8749 194.353 41.2141L189.292 39.0852C189.833 38.1364 190.659 37.4268 191.493 36.71ZM128.844 31.5289C126.088 30.3569 123.451 28.2259 121.169 26.3161C118.548 24.1234 116.19 21.8162 114.242 18.9448C114.591 18.9545 115.077 19.301 115.581 19.6603C116.714 20.468 117.938 21.3402 117.893 18.5938C117.873 17.3635 116.824 16.1684 115.802 15.0033C115.143 14.2515 114.494 13.5122 114.14 12.7839C115.139 12.1877 116.143 13.4835 117.178 14.821C118.33 16.3079 119.522 17.8466 120.792 16.8946C122.649 15.5022 120.554 11.5743 119.249 9.12668C118.92 8.51119 118.642 7.98932 118.489 7.62492C119.632 6.82401 125.531 13.8194 128.106 16.8734C128.605 17.465 128.979 17.909 129.17 18.1194C129.44 18.4183 129.844 18.7513 130.268 19.1006C130.994 19.6995 131.778 20.3461 132.047 20.9502C132.301 21.5198 132.378 23.3437 132.274 23.8754C132.137 24.5831 131.603 25.3889 131.098 26.15C130.81 26.5843 130.532 27.0042 130.342 27.383C129.682 28.7031 129.113 30.0722 128.844 31.5289ZM208.522 44.4022C204.132 44.7708 199.915 42.7848 197.127 39.333L197.111 39.3125C196.43 38.4687 195.734 37.6069 195.313 36.5987C195.254 36.4342 195.195 36.2695 195.136 36.105L195.035 35.8247C194.599 35.1167 194.775 34.7738 195.562 34.7958C195.698 34.6003 195.902 34.4434 196.108 34.2859C196.552 33.9444 197.002 33.5994 196.765 32.8493C196.562 32.2044 195.977 32.0668 195.36 31.9218C195.185 31.8809 195.009 31.8394 194.837 31.7857C195.207 31.1294 195.429 30.7992 195.967 30.2108C196.03 30.265 196.095 30.3214 196.162 30.3796L196.164 30.3811C197.656 31.6709 200.125 33.8057 201.02 30.9507C201.271 30.1503 201.107 29.3793 200.944 28.6147C200.816 28.0104 200.688 27.4101 200.766 26.8026C200.84 26.2333 201.524 24.7677 201.932 24.419C204.106 22.5602 207.316 23.2334 209.692 24.2419C211.33 24.9372 211.687 25.273 211.991 26.9472C212.077 27.4219 212.161 27.8966 212.246 28.3712C212.464 29.5986 212.683 30.8251 212.926 32.0488C212.295 31.738 211.985 31.1776 211.672 30.6113C211.497 30.2942 211.321 29.9753 211.086 29.6973L211.062 29.7436L211.059 29.7493C210.841 30.1704 210.622 30.5927 210.403 31.0138C210.064 30.8337 209.752 30.8508 209.467 31.0658C209.065 31.7176 209.273 32.6308 209.438 33.3552C209.459 33.446 209.479 33.5338 209.497 33.6178C207.928 33.5084 207.308 35.2721 208.902 35.9433C210.553 36.6385 211.244 34.6216 211.269 33.3252C211.637 33.7451 212.002 33.7787 212.328 33.8089C212.557 33.83 212.768 33.8494 212.947 34C213.38 34.3647 213.566 35.1417 213.737 35.9935C213.79 36.2587 213.858 36.5461 213.929 36.8472C214.233 38.1347 214.596 39.6751 214.146 40.8286C213.322 42.9428 210.564 44.0973 208.522 44.4022Z" fill="white"/>
<path fill-rule="evenodd" clip-rule="evenodd" d="M36.0866 75.4837C35.0773 75.4837 32.6091 69.8073 31.5012 66.969C43.0265 53.5455 86.7968 38.6514 85.3895 40.494C84.5423 41.6034 84.7679 49.0223 84.9441 54.8122C85.0605 58.6393 85.1553 61.7545 84.9042 61.8655C83.2291 61.8655 74.8638 62.9234 66.1894 65.4346C60.3611 67.1219 54.762 69.1198 49.3465 70.7381C42.0597 72.9154 36.5294 75.4837 36.0866 75.4837Z" fill="#69D3FA"/>
<path fill-rule="evenodd" clip-rule="evenodd" d="M121.054 106.138C118.991 106.44 117.008 106.581 114.935 106.377C113.535 106.301 111.224 103.956 110.243 102.794C105.235 94.4376 101.453 82.5665 98.105 72.0582C97.1419 69.0351 96.2148 66.1248 95.3047 63.4434C91.8993 47.2931 94.3372 43.4162 96.4175 40.1077C96.881 39.3708 97.3266 38.662 97.686 37.8521C103.521 32.7406 115.407 34.3933 120.621 35.8586C130.009 39.601 136.742 46.0706 140.219 49.4109C141.455 50.5988 142.28 51.3909 142.665 51.5239C143.84 51.9293 154.635 70.8129 159.885 80.204C161.825 84.5969 157.417 88.4125 155.066 89.6978C155.066 89.6978 147.705 88.9293 145.911 87.8796C143.52 88.5465 128.716 75.0971 127.78 72.9852C127.03 71.2957 121.449 66.4267 118.752 64.2033C116.044 63.9679 113.685 67.7154 112.961 69.0164C112.6 69.6652 113.914 71.6817 115.257 73.7428C116.607 75.8147 117.987 77.9315 117.723 78.7492C117.198 80.3805 118.249 84.5969 119.673 86.074C122.033 88.2991 125.061 99.6773 126.28 105.088C125.26 105.112 124.233 105.383 123.206 105.654C122.488 105.844 121.769 106.034 121.054 106.138Z" fill="#69D3FA"/>
<path fill-rule="evenodd" clip-rule="evenodd" d="M14.7977 63.9336C13.2121 61.7562 11.7441 59.3497 10.714 56.9008C8.13776 50.7762 5.80921 45.0806 4.45524 38.5696C5.76658 39.1325 6.72676 41.0108 7.49611 42.5158C7.70665 42.9276 7.90288 43.3115 8.08812 43.6329C8.49628 44.3406 8.88812 45.0613 9.28046 45.7829C10.0028 47.1114 10.7268 48.4429 11.5574 49.703C11.9105 50.2385 12.2628 50.7795 12.6165 51.3226C14.6656 54.469 16.7622 57.6883 19.3343 60.3592C19.8029 60.8459 20.2482 61.3548 20.6939 61.8642L20.6949 61.8653C21.5487 62.8411 22.4053 63.8202 23.4353 64.6549C23.7179 64.884 24.0998 65.094 24.4915 65.3094C25.0931 65.6403 25.7179 65.984 26.042 66.4288C26.3315 66.8264 26.2789 67.1483 26.2199 67.5085C26.1761 67.7765 26.1288 68.0657 26.2164 68.4231C26.3416 68.9343 26.7088 69.4601 27.0686 69.9754C27.3137 70.3264 27.5554 70.6726 27.7151 71.006C27.8455 71.2785 27.9738 71.5513 28.102 71.8238L28.1032 71.8265C28.4829 72.6337 28.8613 73.4383 29.29 74.2268C29.9159 75.3778 30.0937 75.9832 30.2818 77.1178C30.3469 77.5109 30.3375 77.7936 30.3295 78.0322C30.3123 78.5469 30.3019 78.8558 31.0621 79.6222L28.5855 80.7856L26.9742 81.5425L25.2211 82.3661L24.7101 82.6063L23.8507 83.0101L23.8411 83.0146L23.8056 83.0313L23.2498 83.2924L22.8115 82.5139C22.3457 82.0816 21.8978 81.1015 21.5737 80.3923C21.5131 80.2597 21.4569 80.1366 21.4056 80.0283C20.045 77.1603 18.517 74.2847 16.97 71.4408C18.7942 68.7301 17.5783 67.294 16.004 65.4345C15.6104 64.9695 15.1943 64.478 14.7977 63.9336Z" fill="white"/>
<path fill-rule="evenodd" clip-rule="evenodd" d="M127.386 112.808C127.539 114.272 127.871 115.71 128.236 117.133C128.274 117.282 128.361 117.524 128.463 117.807C128.711 118.494 129.045 119.42 128.971 119.831C128.942 119.994 128.925 120.112 128.912 120.197C128.891 120.341 128.883 120.393 128.854 120.417C128.838 120.43 128.814 120.434 128.779 120.441C128.693 120.459 128.534 120.49 128.219 120.688C127.581 121.09 126.856 121.189 126.135 121.287C125.886 121.321 125.638 121.355 125.394 121.401C125.163 121.445 124.691 121.638 124.181 121.846C123.399 122.165 122.529 122.52 122.307 122.428C121.987 122.295 121.826 121.983 121.658 121.656C121.488 121.327 121.311 120.984 120.957 120.795C119.996 120.282 118.608 120.773 117.724 121.213C116.467 121.836 115.429 122.792 114.39 123.748C113.472 124.593 112.554 125.439 111.482 126.058C107.424 128.403 102.575 129.761 98.0008 130.382C97.6027 130.436 97.2033 130.496 96.803 130.555C94.7111 130.867 92.5951 131.182 90.5239 130.741C90.1304 130.657 89.7136 130.594 89.29 130.53C87.6209 130.279 85.8455 130.012 84.9686 128.375C85.5919 128.187 86.2373 127.997 86.9001 127.801C96.1046 125.084 108.661 121.377 111.871 111.285C113.541 112.731 116.063 112.296 118.249 111.918C118.745 111.832 119.225 111.749 119.673 111.692C120.204 111.624 120.724 111.57 121.235 111.518C123.288 111.305 125.203 111.107 127.134 110.086C127.335 111.04 127.408 111.833 127.386 112.808Z" fill="white"/>
<path fill-rule="evenodd" clip-rule="evenodd" d="M79.8531 37.6717C81.5713 37.4616 83.4844 37.2276 84.9304 36.5582C86.634 36.3773 90.2611 36.2514 91.1409 37.1953C91.1753 38.301 90.6468 39.6275 90.1272 40.9318C89.7423 41.8981 89.3622 42.8522 89.2194 43.6954C88.411 48.4614 88.3207 53.7203 89.086 58.5044C89.1198 58.7162 89.2488 59.1673 89.4058 59.7166C89.7891 61.057 90.3396 62.9823 90.083 63.4433C89.9216 63.733 88.8068 63.882 88.1649 63.9678C87.9852 63.9918 87.8425 64.0108 87.7682 64.0267C86.1227 64.3771 84.5533 64.7896 82.975 65.2158C79.5657 66.1367 76.1297 66.9254 72.6883 67.7153C68.1823 68.7496 63.6669 69.786 59.1902 71.1241C54.9722 72.3849 50.872 73.9074 46.7032 75.4554L46.6273 75.4836C46.0865 75.6843 45.5462 75.886 45.0057 76.0877C44.0566 76.442 43.1074 76.7963 42.1561 77.1452C41.8997 77.2394 41.6006 77.38 41.2818 77.5298C40.4899 77.9021 39.5762 78.3316 38.8917 78.2493C38.3815 78.1879 38.111 78.0711 37.8902 77.9757C37.5692 77.8371 37.3533 77.7438 36.6586 77.932C36.1582 78.0674 35.731 78.3272 35.3004 78.5889C34.7781 78.9064 34.2509 79.2269 33.5822 79.3322C34.508 81.3632 30.8481 83.0798 28.8805 84.0026C28.6147 84.1273 28.3799 84.2374 28.1913 84.3319C27.9736 84.4411 27.7552 84.5527 27.5363 84.6645C25.1187 85.9 22.6409 87.1663 20.2747 85.4828C17.9853 83.8541 16.4466 81.2636 15.2688 78.7491C13.6572 75.3096 12.4952 72.668 14.708 69.341C11.3912 68.0522 9.60168 64.2289 8.185 61.2023C8.13146 61.0879 8.07846 60.9747 8.02591 60.8627C6.21378 57.0043 4.55261 53.4376 3.19895 49.3822C2.07262 46.0087 1.23887 42.4789 0.94908 38.8902C0.836879 37.4975 0.84764 35.64 2.09148 34.6533C2.56089 34.281 3.75417 33.6793 4.38237 34.0206C5.07235 34.3954 4.99699 34.5868 4.83913 34.9879C4.77383 35.1538 4.6944 35.3556 4.64919 35.621C6.83013 35.4652 8.83383 37.7606 9.97162 39.5086C11.1146 41.2645 12.2244 43.0359 13.2826 44.9C15.3158 48.4802 17.6649 51.7797 20.4762 54.7401C21.6377 55.9636 22.7773 57.4093 23.8707 58.8381C24.545 59.7192 25.3525 60.4845 26.1574 61.2473C26.9174 61.9675 27.6751 62.6855 28.3157 63.4966C28.5249 63.7616 28.6532 64.0031 28.7595 64.2032C28.9739 64.6071 29.0988 64.8422 29.619 64.7607C29.8983 64.7174 30.4417 64.0466 30.8937 63.4887C31.1447 63.1789 31.3676 62.9039 31.5013 62.7904C31.5914 62.7138 31.6744 62.6437 31.7515 62.5785C32.3853 62.0426 32.6283 61.8372 33.2432 61.117C33.9174 60.3261 34.4435 59.7819 35.2989 59.15C38.8942 56.4938 42.8102 53.7185 46.6961 51.4849C48.3254 50.5485 49.9052 49.5243 51.4838 48.5011C53.9995 46.8704 56.5117 45.2418 59.215 43.974C63.1268 42.1392 66.8351 41.0109 70.901 39.7739C71.2398 39.6708 71.581 39.567 71.9251 39.4619C74.1577 38.7801 76.3111 38.1689 78.4682 37.852C78.9048 37.7877 79.3713 37.7307 79.8531 37.6717ZM14.7978 63.9336C13.2122 61.7563 11.7441 59.3498 10.714 56.9009C8.13782 50.7762 5.80926 45.0806 4.45529 38.5697C5.76664 39.1325 6.72681 41.0108 7.49617 42.5158C7.7067 42.9277 7.90294 43.3116 8.08817 43.6329C8.49634 44.3407 8.88818 45.0614 9.28052 45.783C10.0028 47.1114 10.7268 48.443 11.5575 49.703C11.9106 50.2386 12.2628 50.7795 12.6166 51.3227C14.6657 54.4691 16.7623 57.6884 19.3344 60.3592C19.8029 60.8459 20.2483 61.3549 20.694 61.8643L20.6949 61.8653C21.5488 62.8412 22.4054 63.8202 23.4354 64.655C23.7179 64.884 24.0998 65.094 24.4916 65.3095C25.0931 65.6404 25.718 65.984 26.0421 66.4289C26.3316 66.8264 26.2789 67.1484 26.22 67.5086C26.1761 67.7766 26.1288 68.0658 26.2164 68.4231C26.3417 68.9343 26.7088 69.4601 27.0687 69.9755C27.3138 70.3265 27.5555 70.6726 27.7151 71.006C27.8455 71.2786 27.9738 71.5514 28.102 71.8239L28.1033 71.8266C28.483 72.6338 28.8614 73.4384 29.2901 74.2268C29.916 75.3778 30.0938 75.9832 30.2819 77.1179C30.347 77.5109 30.3375 77.7937 30.3295 78.0323C30.3123 78.5469 30.302 78.8559 31.0621 79.6223L28.5856 80.7857L26.9743 81.5426L25.2211 82.3661L24.7102 82.6064L23.8507 83.0102L23.8412 83.0147L23.8057 83.0313L23.2498 83.2924L22.8116 82.514C22.3457 82.0817 21.8978 81.1016 21.5738 80.3924C21.5132 80.2598 21.4569 80.1367 21.4057 80.0284C20.045 77.1604 18.517 74.2848 16.9701 71.4409C18.7943 68.7302 17.5784 67.294 16.0041 65.4345C15.6104 64.9695 15.1943 64.4781 14.7978 63.9336ZM36.0867 75.4836C35.0774 75.4836 32.6092 69.8071 31.5013 66.9689C43.0267 53.5454 86.7969 38.6513 85.3896 40.4939C84.5424 41.6032 84.7681 49.0222 84.9442 54.8121C85.0607 58.6391 85.1554 61.7544 84.9044 61.8653C83.2293 61.8653 74.8639 62.9233 66.1895 65.4345C60.3612 67.1218 54.7621 69.1197 49.3466 70.7379C42.0598 72.9153 36.5295 75.4836 36.0867 75.4836Z" fill="black"/>
<path fill-rule="evenodd" clip-rule="evenodd" d="M93.8667 35.8584C96.5763 32.7911 99.9972 30.9412 103.743 29.5285C104.29 29.4531 104.83 29.3432 105.369 29.2335C106.31 29.0418 107.247 28.8509 108.215 28.8463C109.018 28.8424 109.796 28.9936 110.573 29.1442C111.199 29.2657 111.824 29.3869 112.458 29.426C112.788 29.4464 113.117 29.4587 113.446 29.471C114.47 29.5092 115.492 29.5474 116.515 29.828C117.138 29.9989 117.705 30.2526 118.272 30.506C119.015 30.8385 119.757 31.1704 120.621 31.3132C119.881 30.5054 119.086 29.7006 118.28 28.8838C115.294 25.861 112.146 22.6741 111.029 18.5603C110.755 17.5516 110.598 16.4106 111.237 15.4543C111.34 15.3 111.703 15.0368 111.993 14.8253C112.199 14.6759 112.369 14.5524 112.387 14.5115C112.455 14.3541 112.353 14.108 112.253 13.8643C112.169 13.6591 112.085 13.4556 112.104 13.3082C112.116 13.21 112.128 13.1072 112.141 13.0008C112.282 11.7938 112.477 10.128 113.797 9.67834C114.435 9.46089 114.895 9.73016 115.341 9.99069C115.732 10.2196 116.112 10.4418 116.591 10.3211C116.577 10.2815 116.562 10.2391 116.545 10.1941C115.871 8.33742 113.59 2.05261 117.895 3.24564C120.053 3.84422 122.774 6.63651 124.491 8.39869C124.62 8.53109 124.743 8.65767 124.86 8.77706C126.436 10.3859 127.859 12.0828 129.291 13.7902C129.902 14.5197 130.516 15.2511 131.143 15.9783C131.637 16.5507 132.113 17.1746 132.591 17.802C133.306 18.74 134.027 19.6858 134.825 20.4793C135.712 21.3626 136.788 21.776 137.904 22.2048C138.174 22.3088 138.447 22.4136 138.72 22.5262C141.109 23.5127 143.479 24.5908 145.843 25.6661C148.221 26.7479 150.593 27.8268 152.972 28.8067C157.085 30.5011 161.502 31.6208 165.861 32.726C167.112 33.0431 168.358 33.3589 169.591 33.6868C173.914 34.8367 178.208 35.8786 182.384 36.7943C182.702 36.8641 183.014 36.9969 183.328 37.1308C183.704 37.2909 184.083 37.4523 184.48 37.509C185.302 37.6267 185.435 37.7069 185.475 37.6739C185.517 37.6398 185.458 37.4844 185.96 37.124C186.712 36.5836 187.431 35.4361 188.053 34.4421C188.305 34.0397 188.541 33.6625 188.757 33.3609C190.576 30.8241 192.283 28.2374 193.828 25.5231C194.329 24.6424 194.768 23.665 195.211 22.6797C195.965 20.9994 196.731 19.2958 197.832 18.0088C198.002 17.8096 198.186 17.6168 198.37 17.4227C198.866 16.9017 199.37 16.3719 199.65 15.6884C201.416 15.4061 205.17 14.987 206.053 15.5688C206.782 14.7524 207.743 14.0737 208.76 13.6689C209.835 13.241 209.994 13.3882 210.298 13.6702C210.47 13.829 210.688 14.0307 211.142 14.1965C211.318 14.7918 211.672 14.9616 212.203 14.7036C212.622 14.5866 213.042 14.4776 213.465 14.3774C214.382 14.6631 214.432 15.152 214.496 15.7746C214.525 16.058 214.557 16.3692 214.675 16.7014C214.378 17.4643 214.591 17.8168 215.314 17.7582C215.617 17.8258 215.879 17.9685 216.098 18.1859C216.573 18.7286 216.526 19.7279 216.463 20.3806C216.261 22.4403 215.362 23.7389 214.161 25.2142C213.507 25.2266 213.272 25.5464 213.455 26.1729C213.481 26.6594 213.637 27.1035 213.921 27.5063C213.994 27.7282 214.066 27.9504 214.139 28.1727C214.462 29.1553 214.786 30.1417 215.07 31.134C215.831 33.7991 216.465 36.8674 216.232 39.6561C215.785 44.9853 211.537 47.137 206.861 47.8845C214.952 52.9422 208.51 68.0781 203.759 73.5971C200.527 77.3512 196.835 80.5513 192.486 82.9108C192.372 82.9726 192.258 83.0343 192.145 83.0959C188.478 85.0869 185.019 86.9656 180.942 87.9617C180.161 88.1526 179.383 88.3792 178.605 88.6058C177.003 89.0728 175.399 89.5402 173.757 89.6977C171.766 89.8891 171.25 90.1999 169.549 91.4422C169.422 91.5352 169.296 91.6287 169.17 91.7218C167.75 92.7748 166.405 93.7713 164.462 93.2402C164.052 93.1281 163.577 92.7622 163.106 92.4C162.579 91.9949 162.058 91.5944 161.642 91.5589C161.316 91.5313 160.565 91.8725 159.895 92.1766C159.466 92.3714 159.07 92.5511 158.841 92.6088C156.757 93.1355 154.587 93.4534 152.443 93.2771C151.262 93.1796 150.236 92.7502 149.209 92.3203C148.514 92.0296 147.819 91.7388 147.076 91.5503C143.202 90.567 138.914 89.4727 135.381 87.5245C133.077 86.254 131.109 84.1327 129.224 82.1002C128.48 81.2983 127.749 80.5102 127.016 79.7937C123.624 76.4825 121.016 73.2222 118.753 69.0163C117.204 70.467 120.557 75.3036 121.557 76.6596C123.489 79.2781 124.463 81.5447 125.502 84.5968C125.661 85.0628 125.82 85.5238 125.978 85.9815C126.888 88.6117 127.76 91.1358 128.27 93.9261C128.365 94.4405 128.472 94.949 128.579 95.4566C128.772 96.3696 128.964 97.2799 129.078 98.2174C129.111 98.4867 129.132 98.758 129.153 99.0295C129.195 99.5821 129.238 100.135 129.382 100.672C129.425 100.833 129.551 101.013 129.677 101.193C129.837 101.421 129.997 101.651 129.997 101.849C129.994 102.491 129.668 102.983 129.342 103.475C129.075 103.878 128.808 104.282 128.717 104.77C128.587 105.469 128.749 106.739 128.909 107.419C129.299 109.077 129.97 110.728 130.638 112.37C131.096 113.496 131.552 114.618 131.915 115.736C132.706 118.174 133.377 120.897 131.722 123.148C130.191 125.229 127.791 125.726 125.43 126.215L125.428 126.215C125.119 126.279 124.746 126.397 124.344 126.523C123.304 126.849 122.071 127.237 121.246 126.925C120.849 126.774 120.66 126.571 120.492 126.389C120.267 126.147 120.078 125.945 119.483 125.958C118.06 125.992 116.549 127.504 115.245 128.809C114.678 129.377 114.15 129.905 113.685 130.256C109.395 133.493 104.7 134.964 99.3022 135.137C98.8192 135.153 98.3093 135.103 97.7968 135.053C97.033 134.978 96.2635 134.903 95.5687 135.042C95.1829 135.12 94.9011 135.243 94.6341 135.36C94.179 135.558 93.7666 135.739 92.9542 135.643C90.7814 135.389 87.9482 134.705 85.9568 133.778C83.8358 132.793 82.4505 131.06 81.9977 128.743C81.4572 125.979 83.7278 124.779 85.8236 123.76C87.6685 122.863 89.5445 122.025 91.4189 121.188C94.3608 119.874 97.2988 118.561 100.107 117.026C102.616 115.654 105.323 114.044 107.445 112.119C107.655 111.928 107.927 111.702 108.223 111.456C109.05 110.768 110.063 109.926 110.422 109.281C110.991 108.26 110.968 108.207 110.529 107.192C110.447 107.004 110.352 106.784 110.244 106.519C108.308 107.945 107.185 104.624 106.473 102.521C106.315 102.054 106.178 101.647 106.056 101.365C105.299 99.6138 104.346 97.9203 103.399 96.2386C102.789 95.155 102.182 94.0762 101.632 92.99C100.364 90.4856 99.4416 87.7762 98.5288 85.0945C98.2502 84.2761 97.9726 83.4603 97.6862 82.6537C97.4476 81.9819 97.2066 81.3116 96.9656 80.6417C95.7897 77.3719 94.6172 74.1117 93.7602 70.7379C93.3785 69.2353 92.9635 67.7422 92.5493 66.2522C90.755 59.7966 88.9766 53.3988 89.9956 46.529C90.5024 43.112 91.5246 38.511 93.8667 35.8584ZM191.493 36.71C191.999 36.2753 192.508 35.8379 192.959 35.3431C192.631 37.0825 193.285 38.6417 193.938 40.2002C194.08 40.5376 194.221 40.8749 194.353 41.214L189.292 39.0852C189.833 38.1364 190.659 37.4267 191.493 36.71ZM162.563 55.7459C160.713 56.7116 158.819 57.4614 156.88 58.2281C156.66 58.3149 156.41 58.4361 156.143 58.5653C155.363 58.9434 154.439 59.391 153.721 59.2507C153.132 59.1353 152.826 58.4417 152.53 57.7681C152.43 57.5398 152.33 57.3137 152.221 57.1132C150.644 54.2166 148.788 51.8936 146.499 49.5284C147.23 48.9685 150.18 50.4622 152.277 51.5237C153.105 51.9432 153.8 52.2952 154.173 52.4262C155.488 52.8893 156.729 53.3577 158.019 53.9176C158.433 54.0975 158.984 54.2674 159.567 54.4473C160.692 54.7946 161.938 55.1794 162.563 55.7459ZM128.844 31.5289C126.088 30.3568 123.451 28.2259 121.169 26.316C118.548 24.1233 116.19 21.8162 114.242 18.9448C114.591 18.9544 115.077 19.301 115.581 19.6603C116.714 20.468 117.938 21.3401 117.893 18.5938C117.873 17.3634 116.824 16.1684 115.802 15.0032C115.143 14.2515 114.494 13.5122 114.14 12.7838C115.139 12.1877 116.143 13.4834 117.178 14.8209C118.33 16.3079 119.522 17.8465 120.792 16.8945C122.649 15.5022 120.554 11.5742 119.249 9.12664C118.92 8.51115 118.642 7.98928 118.489 7.62488C119.632 6.82397 125.531 13.8194 128.106 16.8734C128.605 17.465 128.979 17.909 129.17 18.1193C129.44 18.4182 129.844 18.7513 130.268 19.1005C130.994 19.6994 131.778 20.346 132.047 20.9501C132.301 21.5198 132.378 23.3436 132.274 23.8753C132.137 24.5831 131.603 25.3888 131.098 26.15C130.81 26.5843 130.532 27.0041 130.342 27.3829C129.682 28.7031 129.113 30.0721 128.844 31.5289ZM206.62 53.0056C212.551 67.6019 193.212 80.461 181.192 83.486C180.248 83.7235 179.318 83.9985 178.387 84.2736C177.677 84.4836 176.966 84.6936 176.249 84.887C175.05 85.2106 173.934 85.2968 172.79 85.3852C172.212 85.4299 171.626 85.4751 171.019 85.5519C170.243 85.6498 169.693 86.0245 169.138 86.4021C168.665 86.7243 168.189 87.0487 167.566 87.205C165.538 87.7141 165.41 86.3853 165.257 84.7857C165.239 84.6037 165.221 84.4182 165.2 84.2315C164.329 76.4813 160.195 69.0807 155.854 62.6984C157.752 61.968 159.63 61.1755 161.502 60.3808C162.057 60.1449 162.713 59.7665 163.404 59.3672C164.707 58.6153 166.138 57.7893 167.272 57.7003C168.227 57.6257 169.569 58.1895 170.713 58.6697C171.107 58.835 171.477 58.9903 171.799 59.1064C173.897 59.8611 175.998 60.4965 178.177 60.9937C178.834 61.1436 179.504 61.3035 180.184 61.4656C183.443 62.2436 186.911 63.0714 190.158 63.0773C190.427 63.0779 190.808 63.104 191.244 63.1338C192.639 63.2295 194.591 63.3633 195.198 62.8157C196.718 61.4457 194.54 60.3844 193.23 59.9386C189.4 58.6349 185.464 57.7268 181.523 56.8175C177.434 55.874 173.34 54.9292 169.353 53.5401C167.495 52.8926 165.645 52.2076 163.793 51.522C161.63 50.7213 159.464 49.9197 157.281 49.1757C156.322 48.8487 155.35 48.5331 154.375 48.2164C151.8 47.3801 149.204 46.5367 146.749 45.4591C142.28 43.498 137.781 41.0298 133.882 38.0892C133.662 37.9236 133.375 37.7362 133.064 37.533C132.271 37.0146 131.321 36.3938 130.929 35.7714C130.67 35.361 130.573 35.3945 130.55 35.3664C130.53 35.3423 130.564 35.2729 130.598 34.8387C130.634 34.3886 131.002 33.824 131.34 33.3068C131.508 33.0483 131.669 32.8017 131.777 32.587C132.983 30.1847 134.066 27.7206 134.966 25.187C138.404 26.5695 141.756 28.2483 145.104 29.9246C147.762 31.2555 150.416 32.5847 153.108 33.7628C159.23 36.4425 166.107 38.273 172.622 39.7087C173.462 39.8937 174.338 40.0355 175.223 40.1787C177.261 40.5084 179.345 40.8456 181.13 41.7351C181.351 41.8451 181.571 41.9588 181.792 42.0726C182.658 42.5197 183.53 42.9694 184.454 43.2095C184.809 43.8544 185.146 43.9746 185.467 43.5698C185.668 43.3328 185.932 43.2286 186.261 43.2569C186.824 43.3391 187.4 43.5566 187.947 43.7632C188.086 43.8158 188.223 43.8676 188.357 43.9164C191.719 45.1318 194.948 46.6769 198.149 48.2556C198.38 48.3689 198.61 48.4819 198.842 48.5952C200.136 49.229 201.444 49.8689 202.679 50.5991C203.459 51.0605 204.159 51.5276 204.804 52.1711C205.018 52.3845 205.16 52.5888 205.279 52.7602C205.591 53.2087 205.747 53.4324 206.62 53.0056ZM127.386 112.808C127.54 114.272 127.871 115.71 128.236 117.133C128.274 117.282 128.361 117.524 128.464 117.807C128.711 118.494 129.045 119.42 128.971 119.831C128.942 119.994 128.925 120.112 128.912 120.197C128.891 120.342 128.884 120.393 128.854 120.417C128.838 120.43 128.814 120.434 128.779 120.442C128.693 120.459 128.534 120.491 128.219 120.688C127.581 121.09 126.856 121.189 126.135 121.287C125.886 121.321 125.638 121.355 125.394 121.401C125.163 121.445 124.691 121.638 124.181 121.846C123.399 122.165 122.529 122.52 122.307 122.428C121.987 122.295 121.826 121.983 121.658 121.657C121.488 121.328 121.311 120.984 120.957 120.795C119.996 120.282 118.609 120.773 117.724 121.213C116.467 121.836 115.429 122.792 114.39 123.749C113.472 124.593 112.554 125.439 111.483 126.058C107.424 128.403 102.575 129.761 98.0008 130.382C97.6028 130.436 97.2034 130.496 96.8031 130.555C94.7112 130.867 92.5952 131.182 90.524 130.741C90.1304 130.657 89.7137 130.594 89.29 130.53C87.6209 130.279 85.8456 130.012 84.9686 128.375C85.592 128.187 86.2374 127.997 86.9002 127.801C96.1047 125.084 108.661 121.377 111.871 111.285C113.541 112.731 116.063 112.296 118.249 111.918C118.745 111.832 119.225 111.749 119.673 111.692C120.204 111.624 120.724 111.57 121.235 111.518C123.288 111.305 125.203 111.107 127.134 110.086C127.335 111.04 127.408 111.833 127.386 112.808ZM208.522 44.4021C204.132 44.7707 199.915 42.7848 197.127 39.3329L197.111 39.3124C196.43 38.4687 195.734 37.6069 195.313 36.5986C195.254 36.4341 195.195 36.2695 195.136 36.1049L195.035 35.8247C194.599 35.1167 194.775 34.7737 195.562 34.7957C195.698 34.6002 195.902 34.4434 196.108 34.2858C196.552 33.9443 197.002 33.5993 196.765 32.8493C196.562 32.2044 195.977 32.0668 195.36 31.9218C195.185 31.8808 195.009 31.8393 194.837 31.7856C195.207 31.1294 195.429 30.7992 195.967 30.2107C196.03 30.2649 196.095 30.3214 196.162 30.3795L196.164 30.381C197.656 31.6708 200.125 33.8056 201.02 30.9507C201.271 30.1503 201.107 29.3792 200.944 28.6146C200.816 28.0103 200.688 27.4101 200.766 26.8026C200.84 26.2332 201.524 24.7676 201.932 24.4189C204.106 22.5601 207.316 23.2334 209.692 24.2419C211.33 24.9371 211.687 25.2729 211.991 26.9472C212.077 27.4219 212.161 27.8966 212.246 28.3711C212.464 29.5985 212.683 30.8251 212.926 32.0487C212.295 31.738 211.985 31.1776 211.672 30.6112C211.497 30.2942 211.321 29.9753 211.086 29.6972L211.062 29.7435L211.059 29.7492C210.841 30.1703 210.622 30.5927 210.403 31.0138C210.064 30.8337 209.752 30.8507 209.467 31.0658C209.065 31.7176 209.273 32.6308 209.438 33.3552C209.459 33.446 209.479 33.5338 209.497 33.6178C207.928 33.5083 207.308 35.2721 208.902 35.9432C210.553 36.6384 211.244 34.6216 211.269 33.3251C211.637 33.745 212.002 33.7787 212.328 33.8088C212.557 33.83 212.768 33.8494 212.947 33.9999C213.38 34.3647 213.566 35.1417 213.737 35.9934C213.79 36.2587 213.858 36.546 213.929 36.8472C214.233 38.1346 214.596 39.6751 214.146 40.8286C213.322 42.9427 210.564 44.0973 208.522 44.4021ZM121.054 106.138C118.991 106.44 117.008 106.581 114.935 106.376C113.535 106.301 111.224 103.956 110.244 102.794C105.235 94.4375 101.453 82.5664 98.1052 72.058C97.1421 69.035 96.2149 66.1247 95.3048 63.4433C91.8995 47.293 94.3373 43.416 96.4177 40.1076C96.8811 39.3706 97.3268 38.6619 97.6862 37.852C103.522 32.7405 115.407 34.3932 120.621 35.8584C130.009 39.6009 136.743 46.0704 140.219 49.4107C141.455 50.5986 142.28 51.3908 142.665 51.5237C143.841 51.9292 154.635 70.8128 159.885 80.2039C161.825 84.5968 157.417 88.4123 155.066 89.6977C155.066 89.6977 147.705 88.9291 145.912 87.8795C143.52 88.5464 128.717 75.097 127.78 72.9851C127.03 71.2956 121.449 66.4265 118.753 64.2032C116.044 63.9678 113.685 67.7153 112.961 69.0163C112.6 69.6651 113.914 71.6816 115.257 73.7427C116.607 75.8145 117.987 77.9314 117.724 78.7491C117.198 80.3803 118.249 84.5968 119.673 86.0738C122.033 88.299 125.061 99.6772 126.28 105.088C125.261 105.112 124.233 105.383 123.207 105.654C122.488 105.844 121.769 106.033 121.054 106.138Z" fill="black"/>
<path fill-rule="evenodd" clip-rule="evenodd" d="M210.535 37.8951C209.893 38.1297 208.609 38.823 207.853 38.7527C207.249 38.6963 206.734 37.9739 206.153 37.9884C204.587 38.0271 204.92 39.8329 205.699 40.7882C207.807 43.3725 212.312 40.4116 210.535 37.8951Z" fill="black"/>
<path fill-rule="evenodd" clip-rule="evenodd" d="M203.922 28.5949C201.8 29.1968 202.974 33.8754 204.776 34.1568C206.899 34.4885 207.177 30.6553 206.728 29.2826C205.655 29.9553 206.383 32.2484 204.997 31.6423C204.115 31.2564 204.204 29.3753 203.922 28.5949Z" fill="black"/>
</svg>
