<svg xmlns="http://www.w3.org/2000/svg" width="182" height="182" fill="none" viewBox="0 0 182 182"><path fill="#69D3FA" stroke="#000" stroke-width="4" d="M33 76.5162L33.0079 76.0327C33.5241 44.4467 59.2905 19 91 19C122.709 19 148.476 44.4467 148.992 76.0327L149 76.5159V135H33V76.5162Z"/><path fill="#74247A" fill-rule="evenodd" d="M63.315 85.7291C63.844 91.0695 64.3729 96.4101 64.9017 101.75C67.7815 100.107 70.6613 98.4639 73.5409 96.8208V108.987V112.185C73.5409 112.468 73.3729 113.44 73.5409 113.685C73.6834 113.893 74.7386 113.899 74.9881 113.934C76.6162 114.162 78.2484 114.365 79.8828 114.545C84.1904 115.021 88.8007 115.702 93.1249 115.156C96.8835 114.68 100.527 113.344 103.961 111.788C105.167 111.242 106.356 110.657 107.523 110.033C107.77 109.9 108.668 109.588 108.802 109.318C108.912 109.098 108.654 108.324 108.62 108.093C108.475 107.117 108.33 106.141 108.185 105.165L106.158 91.539L109.987 95.3621C110.286 95.6616 110.856 96.512 111.271 96.6447C111.575 96.7421 112.329 96.4407 112.63 96.383C114.797 95.9652 116.965 95.5473 119.133 95.1296C119.638 95.0323 120.776 95.036 121.202 94.7309C121.431 94.5665 121.442 94.2321 121.523 93.9152C122.052 91.8437 122.581 89.7724 123.109 87.7012C123.205 87.3281 123.736 86.1517 123.601 85.7759C123.552 85.6413 123.318 85.5492 123.174 85.4614C119.903 83.463 116.63 81.4646 113.359 79.4662C111.566 78.3715 109.774 77.2767 107.982 76.1821C107.231 75.7234 106.309 74.8971 105.458 74.6406C104.93 74.4814 104.161 74.6006 103.615 74.585C102.504 74.5533 101.394 74.5216 100.283 74.49C100.11 74.4851 99.5006 74.3611 99.3542 74.4635C99.2324 74.5487 99.283 74.6675 99.243 74.8707C99.1453 75.3669 99.1447 75.902 99.0965 76.4057C99.0579 76.8098 99.1346 77.551 98.9525 77.9169C98.836 78.1507 98.9836 78.0575 98.8263 78.1706C98.6388 78.3052 98.0404 78.2619 97.8174 78.2877C96.7292 78.4142 95.6409 78.5405 94.5527 78.6668C93.2589 78.8171 91.9507 79.0991 90.6509 78.9692C88.6803 78.7725 86.5555 78.7822 84.6205 78.3672C84.1176 78.2592 83.9365 77.9758 83.5486 77.5886C82.7915 76.8325 82.0421 76.0677 81.2766 75.3198C80.9014 74.9532 81.0621 75.0154 80.6754 75.1544C80.1907 75.3285 79.6992 75.749 79.2605 76.0162C77.5798 77.0399 75.8991 78.0638 74.2182 79.0875L63.9572 85.3379C63.7431 85.4683 63.5291 85.5987 63.315 85.7291Z" clip-rule="evenodd"/><path fill="#fff" fill-rule="evenodd" d="M161.461 86.3934C159.345 94.4239 155.091 103.18 146.52 105.74C144.436 106.362 142.409 106.832 140.245 106.595C140.108 106.58 139.985 106.588 139.861 106.596C139.799 106.6 139.736 106.604 139.671 106.605C139.512 106.608 139.487 106.636 139.471 106.654C139.451 106.675 139.445 106.683 139.229 106.616C139.074 106.569 138.924 106.485 138.773 106.4C138.624 106.316 138.474 106.232 138.315 106.18C137.832 106.022 137.331 105.936 136.831 105.851C136.449 105.785 136.067 105.72 135.694 105.623C133.57 105.07 131.381 104.388 129.323 103.626C128.491 103.318 127.717 102.906 126.938 102.492C126.809 102.424 126.681 102.355 126.552 102.287C126.033 102.014 125.497 101.798 124.96 101.583C124.539 101.414 124.119 101.245 123.707 101.048C123.564 100.98 123.402 100.907 123.23 100.831C122.506 100.509 121.598 100.104 121.177 99.568C120.738 99.0073 121.127 97.9458 121.418 97.1541C121.494 96.9456 121.564 96.7557 121.61 96.5987C121.836 95.8234 122.075 95.0514 122.313 94.2795C122.864 92.5004 123.415 90.721 123.806 88.8986C125.743 91.1437 128.432 92.5342 131.216 93.4309C132.726 93.9176 134.28 94.2693 135.851 94.4895L136.061 94.5191C137.428 94.7117 138.886 94.9173 140.246 94.6475C141.325 94.4332 142.68 93.9371 143.45 93.1133C143.726 92.8192 144.056 92.2802 143.901 91.853C143.794 91.554 143.572 91.4974 143.343 91.439C143.157 91.3915 142.966 91.3428 142.827 91.1613C142.643 90.9196 142.605 90.4561 142.571 90.0502C142.556 89.8641 142.542 89.69 142.515 89.555C142.363 88.7953 142.155 88.0564 141.901 87.3252C141.805 87.0495 141.705 86.7736 141.605 86.4971C141.187 85.3493 140.765 84.1887 140.646 82.9712C140.518 81.6603 140.817 80.4208 141.471 79.2834C141.491 79.2489 141.512 79.2105 141.536 79.169C141.879 78.5642 142.604 77.2867 143.313 77.3436C143.914 77.3917 143.496 79.2324 143.203 80.5211C143.091 81.0173 142.997 81.4317 142.987 81.6305C142.841 84.4651 143.222 87.4854 144.676 89.9698C145.233 90.9211 146.038 92.0287 147.227 92.1466C148.487 92.2712 149.503 91.2804 150.102 90.2777C151.565 87.8315 150.828 84.4749 150.087 81.9111C149.526 79.97 148.408 78.4012 147.282 76.8205C146.583 75.8397 145.881 74.8542 145.306 73.7725C147.545 73.9975 148.745 75.42 149.894 77.2246C151.159 79.2114 152.144 81.5968 152.629 83.9085C152.803 84.7353 152.769 85.5644 152.735 86.3966C152.721 86.7402 152.706 87.0843 152.707 87.4289V87.4326C152.707 87.8298 152.709 89.2661 153.346 89.2094C153.964 89.1543 154.214 87.8142 154.331 87.1912C154.343 87.1257 154.354 87.0681 154.363 87.0208C154.426 86.7109 154.49 86.401 154.554 86.091L154.555 86.0849C154.726 85.2557 154.897 84.4256 155.042 83.5927C155.193 82.7308 155.308 81.86 155.422 80.9891C155.578 79.8102 155.733 78.6308 155.977 77.4724C155.983 77.4467 155.988 77.4176 155.995 77.3858C156.072 76.9962 156.23 76.2065 156.701 76.4423C157.034 76.6088 157.039 77.6831 157.042 78.214C157.043 78.3097 157.043 78.3877 157.045 78.4396C157.054 78.6506 157.064 78.8616 157.074 79.0726C157.103 79.6986 157.132 80.3246 157.137 80.9511C157.141 81.4609 157.102 81.9781 157.062 82.4961C157.006 83.2397 156.949 83.9848 157.021 84.7122C157.1 85.5186 157.533 86.4096 158.07 85.3222C158.431 84.5892 158.597 83.7331 158.759 82.8958C158.836 82.501 158.912 82.1103 159.007 81.7386C159.318 80.521 159.64 79.2852 160.301 78.2037C160.326 78.1636 160.351 78.1202 160.376 78.0756C160.541 77.7872 160.737 77.4462 161.09 77.5685C161.355 77.6604 161.558 78.2316 161.663 78.5286C161.67 78.549 161.677 78.5682 161.684 78.5858C161.688 78.5984 161.692 78.6102 161.696 78.6212C162.076 79.6508 162.048 80.7863 162.02 81.8737L162.02 81.883C162.018 81.9753 162.015 82.0673 162.013 82.1589C161.982 83.5955 161.827 85.0005 161.461 86.3934ZM63.4342 100.208C63.3251 100.263 63.2142 100.31 63.1043 100.357C62.8821 100.453 62.6635 100.546 62.4691 100.698C62.4213 100.735 62.3884 100.795 62.3556 100.855C62.3192 100.921 62.283 100.987 62.2267 101.022C62.1239 101.085 61.9977 101.093 61.8717 101.101C61.7588 101.108 61.646 101.115 61.55 101.162C61.4104 101.23 61.2872 101.31 61.1623 101.392C60.9863 101.507 60.8068 101.624 60.5732 101.712C60.1195 101.884 59.7086 102.105 59.2896 102.33C59.1605 102.4 59.0305 102.469 58.8984 102.538C57.9638 103.026 56.9606 103.444 55.9835 103.841C55.9174 103.868 55.8356 103.898 55.7436 103.932C55.1498 104.152 54.1326 104.528 54.1735 105.153C54.1257 105.166 54.0775 105.128 54.0196 105.083C53.9436 105.023 53.8507 104.95 53.72 104.961C53.5441 104.976 53.3369 105.095 53.1311 105.214C52.9668 105.309 52.8034 105.403 52.6577 105.443C52.5854 105.463 52.515 105.481 52.447 105.498C51.9381 105.625 51.5681 105.718 51.5681 106.409C51.4885 106.355 51.4331 106.269 51.3778 106.183C51.2973 106.058 51.2171 105.934 51.0629 105.908C50.8816 105.878 50.7653 105.988 50.6474 106.099C50.575 106.167 50.5019 106.236 50.4128 106.274C50.2772 106.331 50.1253 106.333 49.9734 106.335C49.8165 106.337 49.6598 106.339 49.521 106.402C49.4016 106.528 49.2689 106.638 49.1228 106.732C48.9742 106.749 48.8263 106.745 48.6793 106.718C48.4022 106.777 48.1358 106.858 47.8697 106.938C47.5788 107.026 47.2883 107.114 46.9847 107.173L46.9076 107.188C46.384 107.288 46.0414 107.354 46.2686 107.993C45.9878 108.048 45.8053 107.94 45.6223 107.831C45.4105 107.705 45.1979 107.578 44.8312 107.704C43.9933 107.992 43.2101 108.2 42.3355 108.376C42.151 108.413 41.963 108.469 41.7743 108.525C41.5067 108.605 41.2375 108.685 40.974 108.712C40.8146 108.729 40.6604 108.709 40.5068 108.689C40.3517 108.669 40.1972 108.649 40.0386 108.667C39.8701 108.686 39.7162 108.731 39.5628 108.776C39.37 108.832 39.178 108.889 38.9588 108.892C38.5853 108.899 38.1933 108.832 37.8266 108.766C37.8785 108.914 37.9433 109.055 38.0211 109.191C37.8891 109.163 37.7941 109.067 37.703 108.975C37.6191 108.891 37.5386 108.809 37.4356 108.788C37.3203 108.764 37.2111 108.813 37.1068 108.859C37.0071 108.904 36.9119 108.947 36.82 108.922C36.7857 108.912 36.7759 108.861 36.7646 108.803C36.7496 108.725 36.7319 108.633 36.6502 108.606C36.5768 108.582 36.5273 108.587 36.475 108.593C36.4343 108.598 36.392 108.602 36.3354 108.593C36.2923 108.587 35.7514 108.557 35.6651 108.603C35.5622 108.658 35.6008 108.745 35.626 108.802C35.6377 108.828 35.6465 108.848 35.637 108.855C35.1927 109.183 35.1316 109.07 34.9723 108.774C34.9491 108.731 34.924 108.684 34.8953 108.635C34.6765 108.255 34.4281 108.283 34.1118 108.317C33.9466 108.335 33.763 108.355 33.5553 108.321C33.1876 108.259 32.8624 108.32 32.5351 108.381C32.2619 108.431 31.9873 108.483 31.6853 108.463C31.1191 108.427 30.4745 108.085 29.9164 107.788C29.7686 107.71 29.6269 107.634 29.4944 107.569L29.3341 107.49C28.0232 106.843 26.7489 106.213 25.6456 105.23C23.4009 103.229 21.5749 100.769 20.4982 97.9521C19.3413 94.9259 19.1221 91.7699 19.215 88.5594C19.2708 86.6286 19.4254 84.6989 19.7297 82.7908C19.7613 82.5928 19.7892 82.3715 19.8187 82.1364C19.9852 80.8138 20.2064 79.0554 21.463 78.5479C21.5767 79.9212 21.4792 81.3062 21.3819 82.6906C21.2613 84.4044 21.1408 86.1174 21.4209 87.8064C21.5733 88.7262 21.9451 89.9516 22.6488 90.6328C23.6905 91.641 23.9343 90.1835 24.0284 89.3783C24.1362 88.4593 24.3008 87.5434 24.4653 86.6284C24.5684 86.0547 24.6714 85.4814 24.7604 84.9078C24.8298 84.4596 24.8931 84.0099 24.9564 83.56C25.1033 82.5167 25.2503 81.4725 25.4741 80.444C25.591 79.9073 26.5334 75.9771 27.2251 76.1632C27.1699 77.2909 27.0786 78.4109 26.9875 79.5299C26.8475 81.2482 26.7077 82.9642 26.6988 84.7021C26.6973 85.0055 26.689 85.3133 26.6807 85.6231C26.6574 86.4889 26.6338 87.3703 26.7561 88.2124C26.8417 88.8008 27.3775 90.5275 28.2992 90.3835C28.9108 90.2879 28.6016 89.6354 28.3484 89.101C28.2485 88.8901 28.1573 88.6977 28.1347 88.565C27.9341 87.3842 28.1675 85.9292 28.36 84.7296L28.3893 84.5466C28.7616 82.2145 29.5919 79.826 30.949 77.8773C32.1646 76.1322 34.0361 74.4709 36.2909 74.7787C37.2542 74.9102 38.0058 75.1494 38.4898 76.0291C38.602 76.233 38.8115 76.445 39.0287 76.6649C39.5471 77.1897 40.1097 77.7591 39.4987 78.3681C38.8703 78.9948 37.933 78.7232 37.1342 78.4917C36.9297 78.4325 36.7344 78.3759 36.5556 78.3376C35.4813 78.108 34.3301 78.3843 33.4317 79.0138C31.8903 80.0935 31.012 82.024 30.7253 83.8346C30.3388 86.2757 31.3718 92.6656 35.1764 91.2335C37.7039 90.2821 39.6077 86.8597 39.3954 84.2395C39.3854 84.1158 39.3708 83.9789 39.3553 83.8332C39.2395 82.7446 39.0716 81.1661 40.3514 80.9164C42.2105 80.5537 42.4731 82.603 42.2848 83.9346C42.0112 85.8719 40.9873 87.6732 39.8161 89.2048C39.0672 90.184 38.2288 90.8941 37.3503 91.6381C37.0312 91.9083 36.7068 92.183 36.3795 92.4767C36.345 92.5078 36.3053 92.5424 36.262 92.5804C35.8494 92.9415 35.1029 93.5947 35.244 94.1441C35.3986 94.7463 36.6079 94.9584 37.2687 95.0743C37.3378 95.0864 37.401 95.0975 37.4563 95.1079C40.1527 95.6126 43.1705 95.2126 45.9055 94.85C46.0997 94.8243 46.2926 94.7987 46.4838 94.7737C52.4091 93.9977 58.2564 92.0868 63.115 88.5731C63.1636 89.1114 63.2153 89.6493 63.2671 90.1871C63.4242 91.8211 63.5813 93.4541 63.6499 95.0957C63.6601 95.3413 63.6686 95.5877 63.677 95.8345C63.7051 96.652 63.7334 97.4735 63.8264 98.2826C63.8372 98.3761 63.852 98.475 63.8673 98.5769C63.9578 99.1807 64.0641 99.8893 63.4342 100.208ZM47.0045 107.783C46.7718 107.904 47.0233 107.168 46.9586 107.412C47.3062 107.536 47.3215 107.66 47.0045 107.783Z" clip-rule="evenodd"/><path fill="#fff" fill-rule="evenodd" d="M85.6648 74.6875C85.821 75.4752 86.2516 75.4528 86.9465 75.0866C87.9599 74.5526 88.131 73.6782 88.2016 72.6339C88.2695 71.6326 88.392 71.245 89.4245 71.454C90.1451 71.5999 90.7548 71.4773 91.4813 71.4572C92.2566 71.4358 92.5298 71.5542 92.5921 72.3521C92.6546 73.1509 92.7968 73.7575 93.3765 74.3655C93.9659 74.9835 94.7519 75.3526 95.5177 75.6983C95.9116 75.876 96.2813 76.0672 96.7171 76.1058C96.8859 76.1208 97.7648 76.0096 97.7831 76.2875C97.7969 76.4968 96.5798 77.0864 96.4508 77.1566C95.8863 77.4635 95.3235 77.739 94.7069 77.925C93.2885 78.3528 91.7845 78.3781 90.3154 78.3522C87.9466 78.3105 84.6728 77.3086 83.2564 75.2071C84.0593 75.0339 84.8621 74.8607 85.6648 74.6875ZM85.4524 67.8667C85.0776 67.5522 84.8348 67.077 84.5235 66.7045C84.3665 66.5167 84.2515 66.4569 84.1021 66.3629C83.9447 66.2638 83.8561 66.404 83.7247 66.1712C83.3856 65.5698 84.4322 64.7235 83.3221 64.492C82.9466 64.4135 82.0427 64.7112 81.933 64.173C81.7779 63.412 83.2303 63.3623 83.5719 62.9761C84.2515 62.2082 83.7902 60.9066 84.2041 60.0208C84.5958 59.1817 85.607 59.0327 86.4052 58.7805C87.5174 58.4294 88.6428 58.2258 89.772 57.9448C90.5615 57.7483 91.8733 56.9593 92.6056 57.6565C91.4756 57.9074 92.1324 58.3011 92.8856 58.5234C93.7386 58.7754 94.6427 58.8736 95.5266 58.9439C96.4366 59.016 97.3638 59.0298 98.2629 58.8484C99.0944 58.6806 100.023 57.9579 100.895 58.143C100.411 58.9841 98.9701 59.4435 98.0944 59.6639C97.6484 59.7761 97.3627 59.741 97.4226 60.2973C97.4806 60.8363 97.9492 61.3769 98.0552 61.9385C98.1952 62.6818 98.0729 63.3649 97.8082 64.0638C97.548 64.7514 97.4873 64.8414 97.7147 65.4986C98.0692 66.5218 97.3074 67.6528 96.6034 68.3958C93.7562 71.4004 88.3074 70.2622 85.4524 67.8667ZM93.5739 57.492C93.4558 57.5802 92.7759 57.7652 92.8044 57.4994C92.8423 57.1434 93.4551 57.2719 93.5739 57.492Z" clip-rule="evenodd"/><path fill="#fff" fill-rule="evenodd" d="M76.7836 122.915C75.2476 123.942 73.9756 125.345 72.5653 126.533C71.1514 127.725 70.0293 129.049 68.7578 130.368C67.5822 131.587 66.502 132.741 65.0807 133.662C64.1813 134.245 63.379 134.963 62.4552 135.513C61.7631 135.925 60.7148 136.467 61.0524 135.207C61.3984 133.916 62.0372 132.611 62.5919 131.406C63.3807 129.692 64.1753 127.994 65.0285 126.313C65.3493 125.682 65.5287 125.053 66.0372 124.55C66.5906 124.002 66.9781 123.287 67.584 122.77C70.1331 120.593 73.9746 122.275 76.7836 122.915ZM81.6016 123.653C80.9049 124.018 80.1251 124.108 79.3868 124.35C78.7576 124.555 78.1725 124.921 77.4958 124.948C78.1119 124.486 78.641 123.858 79.3356 123.506C80.1167 123.111 80.8257 123.399 81.6016 123.653ZM112.182 126.696C109.619 125.831 107.233 124.557 104.737 123.532C104.306 123.355 100.936 122.245 101.005 121.717C103.366 121.284 105.798 120.542 108.165 121.351C110.319 122.088 112.07 123.854 113.737 125.332C114.172 125.718 116.862 127.474 116.622 128.034C116.455 128.422 115.159 128.316 114.853 128.236C114.457 128.133 114.23 127.893 113.919 127.63C113.401 127.189 112.827 126.914 112.182 126.696ZM107.451 112.25C107.84 111.891 108.073 111.348 108.445 111.017C108.923 110.592 109.694 110.799 110.216 111.02C111.783 111.682 113.122 112.795 114.68 113.486C116.406 114.252 117.9 115.275 119.456 116.33C120.879 117.294 122.418 118.092 123.87 119.012C125.35 119.949 127.007 120.558 128.507 121.463C130.034 122.383 131.555 123.307 133.023 124.321C135.639 126.13 138.363 127.987 140.299 130.558C141.294 131.88 142.225 133.379 142.955 134.863C143.619 136.212 144.339 138.085 143.479 139.489C142.653 140.836 141.245 141.898 140.054 142.904C139.602 143.284 139.173 143.747 138.588 143.912C137.877 144.113 137.047 144.057 136.315 144.117C132.403 144.434 128.759 144.134 124.903 143.435C121.186 142.76 117.453 142.382 113.707 141.914C111.594 141.649 109.481 141.341 107.397 140.901C106.506 140.712 105.599 140.495 104.727 140.238C103.966 140.014 103.326 139.521 102.543 139.326C99.2197 138.496 95.418 138.179 92.1284 136.783C95.0395 135.573 98.133 134.842 101.117 133.837C104.257 132.779 107.324 131.891 110.634 131.591C112.337 131.436 113.861 131.001 115.499 130.546C117.061 130.112 118.691 129.979 120.294 129.785C121.007 129.698 123.043 129.828 123.279 128.895C123.631 127.508 121.631 127.347 120.779 127.472C119.569 127.648 118.572 127.95 117.647 126.958C116.702 125.945 115.783 124.907 114.821 123.907C113.037 122.052 111.198 119.907 108.676 119.075C105.6 118.06 102.032 119.023 98.9625 119.6C95.7202 120.21 92.4831 120.794 89.3015 121.68C87.984 122.047 86.2848 122.856 84.9174 122.726C83.5697 122.598 82.0433 122.377 80.741 121.989C80.1517 121.813 79.6674 121.487 79.1402 121.183C78.4545 120.788 77.7032 120.535 76.9756 120.228C75.5043 119.607 74.0699 119.035 72.4826 118.791C71.1457 118.585 69.7261 118.463 68.4307 118.932C67.1597 119.391 66.0335 120.328 65.1468 121.327C64.1835 122.414 63.3874 123.631 62.598 124.845C62.219 125.428 61.7564 125.936 61.3637 126.506C61.0342 126.984 60.8419 127.516 60.4931 127.981C59.7127 129.021 59.1827 130.351 58.7099 131.561C58.1843 132.905 57.6006 134.503 57.7261 135.965C57.7734 136.517 57.8229 137.249 58.0367 137.762C58.3086 138.413 58.6962 138.397 59.255 138.643C60.215 139.065 60.4842 140.232 61.7249 140.004C62.8886 139.791 63.8978 138.832 64.7468 138.068C65.8534 137.072 66.9125 136.021 67.9715 134.975C69.058 133.901 70.1287 132.71 70.9931 131.447C71.3334 130.949 71.5987 130.388 72.0008 129.935C72.5129 129.358 73.0878 129.289 73.7834 129.059C79.8644 127.05 85.9748 125.112 92.2458 123.785C93.7481 123.467 95.2627 123.057 96.7385 122.634C98.3038 122.185 99.1144 122.66 100.406 123.514C103.105 125.298 106.295 126.555 109.301 127.719C110.247 128.086 111.753 128.109 112.493 128.832C108.108 129.5 103.93 130.787 99.7005 132.067C97.6153 132.699 95.5063 133.246 93.4132 133.85C91.3193 134.454 89.3052 135.236 87.2401 135.917C85.1849 136.595 83.0128 136.872 80.9378 137.497C78.8194 138.135 76.71 138.574 74.5355 138.962C72.34 139.353 70.1599 139.805 67.9568 140.156C66.9481 140.317 65.9395 140.483 64.9421 140.704C63.9661 140.92 63.023 141.438 62.0421 141.558C57.6614 142.094 53.3666 143.288 49.0029 143.963C45.7447 144.467 40.0763 145.17 37.9635 141.901C35.839 138.614 38.4455 134.779 40.7712 132.429C42.2166 130.968 43.8407 129.682 45.5446 128.539C47.3683 127.315 49.123 125.993 50.947 124.771C55.0749 122.005 59.551 119.749 63.9858 117.526C66.1144 116.459 68.1711 115.315 70.2417 114.144C71.2695 113.563 71.8382 114.501 72.6507 115.138C73.2896 115.639 74.4629 116.875 75.3569 116.304C75.3913 116.509 75.4258 116.715 75.4602 116.921C75.722 116.802 75.9841 116.682 76.2459 116.563C76.4218 117.024 76.4012 117.311 76.8926 117.553C77.1943 117.702 77.8383 117.881 78.126 117.619C78.1847 117.801 78.2433 117.983 78.3021 118.165C78.5536 118.146 78.6021 117.427 78.6496 117.258C79.0805 117.888 79.6767 118.414 80.4342 118.592C80.4379 118.55 80.3111 118.033 80.3165 118.03C80.5562 117.883 80.8586 118.512 80.9856 118.646C81.4069 119.092 81.6583 119.023 82.1237 118.663C82.1576 118.7 82.3151 119.111 82.338 119.104C82.4387 119.072 82.6299 118.707 82.651 118.674C82.6218 119.153 83.5468 119.25 83.8735 119.147C83.8002 119.006 83.7269 118.866 83.6538 118.726C84.7916 118.574 85.2383 119.783 86.3304 119.721C87.1378 119.676 86.4903 119.499 86.9473 119.154C87.3464 118.851 87.4175 119.512 87.4567 119.491C87.5329 119.411 87.5918 119.32 87.6338 119.216C87.7815 119.782 88.9577 120.29 88.836 119.36C89.2988 119.545 89.6273 119.852 90.1394 119.917C90.7618 119.996 91.4266 119.863 92.0475 119.812C93.3854 119.701 94.6466 119.428 95.8526 118.815C96.5677 118.451 97.3288 118.121 98.0009 117.683C98.5634 117.316 99.6306 116.202 100.38 116.682C100.188 116.116 101.091 116.64 101.119 115.912C101.264 116.021 101.41 116.13 101.555 116.24C101.641 116.049 101.617 115.748 101.734 115.582C101.894 115.354 101.972 115.488 102.108 115.36C102.261 115.216 102.394 114.831 102.577 114.722C102.765 114.609 102.987 114.744 103.19 114.645C103.499 114.495 104.828 113.03 104.603 114.285C105.174 114.091 104.734 113.914 104.805 113.533C104.948 112.77 105.297 113.319 105.645 113.386C106.214 113.495 106.202 113.024 106.519 112.682C106.809 112.37 107.354 112.23 107.166 111.688C107.381 111.804 107.426 112.03 107.451 112.25Z" clip-rule="evenodd"/><path fill="#000" fill-rule="evenodd" d="M161.461 86.3933C159.345 94.4239 155.091 103.18 146.52 105.74C144.436 106.362 142.409 106.832 140.245 106.595C140.039 106.572 139.867 106.601 139.671 106.605C139.32 106.612 139.623 106.738 139.229 106.616C138.922 106.521 138.635 106.284 138.315 106.18C137.465 105.901 136.558 105.848 135.694 105.623C133.57 105.07 131.381 104.388 129.323 103.626C128.354 103.268 127.464 102.768 126.552 102.287C125.626 101.799 124.644 101.496 123.707 101.048C122.966 100.693 121.698 100.232 121.177 99.5679C120.622 98.8595 121.39 97.3516 121.61 96.5986C122.356 94.0364 123.245 91.5117 123.806 88.8985C125.743 91.1437 128.432 92.5341 131.216 93.4308C132.726 93.9175 134.28 94.2692 135.851 94.4894C137.277 94.6892 138.816 94.9311 140.246 94.6474C141.325 94.4331 142.68 93.937 143.45 93.1133C143.726 92.8191 144.056 92.2801 143.901 91.8529C143.706 91.3106 143.136 91.5658 142.827 91.1612C142.559 90.8086 142.601 89.9842 142.515 89.5549C142.363 88.7952 142.155 88.0564 141.901 87.3251C141.408 85.9052 140.794 84.482 140.646 82.9711C140.518 81.6602 140.817 80.4207 141.471 79.2833C141.78 78.7456 142.556 77.2827 143.313 77.3435C144.145 77.4102 143.023 80.9155 142.987 81.6304C142.841 84.465 143.222 87.4853 144.676 89.9697C145.233 90.921 146.038 92.0286 147.227 92.1465C148.487 92.2711 149.503 91.2803 150.102 90.2776C151.565 87.8315 150.828 84.4748 150.087 81.911C149.178 78.7654 146.806 76.5974 145.306 73.7724C147.546 73.9974 148.745 75.4199 149.894 77.2246C151.159 79.2113 152.144 81.5967 152.629 83.9084C152.875 85.0765 152.705 86.2493 152.707 87.4288C152.707 87.8207 152.707 89.2662 153.346 89.2093C154.029 89.1485 154.263 87.5181 154.363 87.0207C154.594 85.8799 154.843 84.7389 155.043 83.5926C155.396 81.5642 155.553 79.4866 155.977 77.4724C156.049 77.1319 156.191 76.1872 156.701 76.4423C157.094 76.6387 157.031 78.0999 157.045 78.4395C157.081 79.2764 157.13 80.1133 157.137 80.951C157.147 82.1927 156.899 83.478 157.021 84.7121C157.1 85.5185 157.533 86.4095 158.07 85.3221C158.602 84.2435 158.71 82.8985 159.007 81.7385C159.318 80.5209 159.64 79.2851 160.301 78.2036C160.485 77.9036 160.682 77.4272 161.09 77.5684C161.386 77.6711 161.605 78.3733 161.696 78.6211C162.11 79.7411 162.04 80.9864 162.013 82.1588C161.982 83.5954 161.827 85.0004 161.461 86.3933ZM120.214 88.4773C120.101 88.4408 119.621 88.3953 119.502 88.3848C119.362 88.3727 119.52 88.1155 119.183 88.1886C119.248 88.3503 119.364 88.4581 119.53 88.5122C119.022 88.684 118.648 88.2597 118.3 88.2051C117.968 88.1529 117.954 88.2051 117.626 88.556C117.271 88.1227 117.337 88.3929 117.045 88.3931C116.939 88.3933 116.934 88.5538 116.761 88.5346C116.61 88.5178 116.594 88.2887 116.505 88.2617C116.02 88.115 115.522 88.8532 114.972 88.2128C114.839 88.8791 113.312 88.0446 112.725 88.1616C112.11 88.2841 112.375 88.5048 111.878 88.1276C111.404 87.7683 111.536 88.007 110.984 88.3011C110.997 88.2942 110.673 88.513 110.703 88.5166C110.322 88.4719 110.343 88.0774 109.86 88.0983C109.348 88.1205 109.13 88.5216 108.662 88.0281C108.56 88.3976 108.539 88.2385 108.299 88.3316C108.167 88.3629 108.051 88.3282 107.952 88.2277C107.922 88.3293 107.857 88.3916 107.754 88.4145C107.493 88.4379 107.003 88.4743 106.765 88.3485C106.409 88.1596 106.695 88.087 106.448 87.8746C106.338 88.4603 106.095 88.3358 105.583 88.3904C105.193 88.4323 105.107 88.3126 104.734 88.2543C104.367 88.197 103.892 88.3395 103.534 88.4002C103.386 88.4254 103.188 88.5284 103.038 88.4923C102.902 88.4596 102.844 88.3543 102.763 88.3267C102.665 88.2937 102.685 88.2075 102.515 88.1658C102.398 88.1374 102.188 88.2472 102.071 88.2662C101.236 88.4019 100.434 88.4032 99.6373 88.0747C100.03 88.7642 98.7203 88.3919 98.4868 88.1064C98.195 88.5636 97.8419 88.2408 97.2538 88.2765C96.6875 88.3109 95.8356 88.4844 95.606 87.7789C95.561 87.9223 95.2396 88.3385 95.1117 88.402C94.7405 88.586 94.6962 88.3138 94.351 88.2029C93.8812 88.052 93.9792 88.3385 93.6878 88.3966C93.196 88.4952 92.9302 88.1488 92.4956 87.9647C92.4772 88.2509 92.4678 88.427 92.2203 88.6052C92.0012 87.8072 91.219 88.6705 91.3533 87.604C91.0556 87.7978 90.637 87.9465 90.5523 88.3385C91.0499 88.2016 90.6053 88.5269 90.5845 88.5376C90.5188 88.572 90.2966 88.2602 90.245 88.2162C90.2309 88.3633 90.2169 88.5105 90.2029 88.6576C90.0046 88.5585 89.8185 88.381 89.6576 88.292C89.5126 88.212 89.7203 88.0452 89.4753 88.0338C89.3463 88.0275 89.2115 88.3072 89.0761 88.3311C88.8689 88.3673 88.9684 88.0702 88.8817 88.0801C88.7496 88.0953 88.5343 88.2885 88.4344 88.2848C88.107 88.2726 88.3286 88.1202 88.0787 88.0503C87.6321 87.9253 87.6607 88.2174 87.3396 88.3227C86.605 88.5639 86.6788 87.4541 85.9315 88.1943C85.7526 88.3714 85.6376 88.6449 85.3926 88.6296C84.8854 88.5978 85.0634 87.9965 85.1665 87.7021C85.2732 87.7546 83.3133 88.7613 83.3288 88.7219C83.3411 88.4805 83.6494 88.2944 83.374 88.0799C83.1488 88.5632 82.9117 88.5717 82.3922 88.6616C82.1397 88.7054 82.09 88.7639 81.8198 88.6588C81.6476 88.5922 81.5321 88.3176 81.3609 88.3025C81.384 88.3045 81.0698 88.5437 81.022 88.5651C80.7385 88.6929 80.5591 88.5481 80.2837 88.6006C80.0487 88.6454 79.9562 88.8451 79.7225 88.7905C79.4107 88.7175 79.5938 88.3451 79.1648 88.449C79.018 88.4846 78.9299 88.7672 78.6988 88.8255C78.3385 88.9168 77.8969 88.7467 77.5162 88.8355C77.214 88.906 76.9898 88.9359 76.7255 88.9505C76.5121 88.9625 76.5998 88.7964 76.2068 88.9925L76.0402 88.5723C75.8435 88.7494 75.6467 88.9261 75.4499 89.1031C75.4127 88.9445 75.389 88.7839 75.379 88.6212C75.0856 88.9151 74.7161 88.9653 74.3216 88.9918C73.8946 89.0203 73.5764 89.1134 73.1608 89.1916C73.0294 89.2162 72.691 89.2556 72.583 89.2096C72.5988 89.2163 72.3808 89.1257 72.4465 89.1429C72.4182 89.0853 72.3919 89.0267 72.3677 88.967C72.331 88.8013 72.2117 88.794 72.0102 88.9451C71.9059 88.9291 71.7038 88.7923 71.5999 88.826C71.3318 88.913 71.3682 89.1208 71.1012 89.0903C70.9279 89.0705 70.8394 88.8144 70.659 88.7971C70.3829 88.7704 70.1435 89.0796 69.8947 89.1469C70.6513 88.9416 68.9136 89.101 69.4539 89.1151C69.0996 89.1058 68.7319 89.0883 68.4046 89.247C68.2236 89.1234 68.4433 88.8747 68.2605 88.7725C68.0948 88.6796 68.082 88.9247 68.0626 88.9301C68.1672 88.9005 68.115 89.109 68.0104 89.1461C67.6844 89.2617 67.4235 88.9679 67.4066 88.6764C67.1297 89.0934 67.0519 88.9258 66.6445 88.9515C66.2428 88.977 65.8962 89.1875 65.4943 89.1837C64.6994 89.1761 64.16 88.8998 63.8946 88.1901C64.7416 88.2932 65.5942 87.7486 66.4225 87.8769C66.6947 87.9191 66.8647 88.1236 67.1032 88.0872C67.397 88.0425 67.6022 87.722 67.979 87.6874C68.81 87.6115 69.6292 87.6854 70.466 87.5581C71.4654 87.4058 72.5083 87.3156 73.5174 87.3898C74.2972 87.447 74.9286 87.149 75.7193 87.0916C76.7417 87.0171 77.7725 87.004 78.7967 86.9503C79.8489 86.895 80.9812 86.7271 82.0305 86.781C82.3582 86.7976 82.6402 86.8298 82.9653 86.8103C83.1028 86.8019 83.233 86.7085 83.3772 86.7225C83.5652 86.7407 83.6459 86.9331 83.8408 86.9263C84.172 86.9151 84.5261 86.6422 84.9198 86.6347C85.5671 86.6224 86.2117 86.624 86.8607 86.5871C87.4321 86.5546 88.0443 86.4211 88.6132 86.4284C89.0144 86.4334 89.1135 86.7752 89.3473 86.8106C89.7678 86.8739 91.8947 85.6636 92.0785 86.7498C93.1858 85.9921 94.6707 86.6337 95.9033 86.4914C97.4867 86.3084 99.0991 86.4715 100.693 86.4063C102.315 86.3401 103.984 86.4014 105.6 86.5544C106.269 86.6177 106.916 86.6772 107.587 86.6388C107.886 86.6216 108.232 86.5453 108.531 86.6142C108.603 86.631 109.158 87.0181 109.089 87.0293C109.392 86.7572 109.187 86.7175 109.721 86.7035C110.132 86.6927 110.52 86.7815 110.929 86.8056C111.662 86.849 112.402 86.7474 113.133 86.7698C113.745 86.7885 114.342 86.8787 114.956 86.883C115.619 86.8878 116.401 86.9066 116.88 87.4405C116.829 87.2729 116.779 87.1052 116.728 86.9376C117.467 86.9954 118.198 87.2592 118.945 87.1359C118.756 87.317 118.564 87.4649 118.492 87.7304C118.895 87.6793 119.168 87.398 119.592 87.3958C119.948 87.3936 120.022 87.5724 120.399 87.3414C120.445 87.6244 120.491 87.9074 120.538 88.1903C121.059 88.0676 120.717 87.6792 120.755 87.329C121.178 87.4561 121.537 87.3101 121.37 87.9192C121.241 88.3889 120.655 88.6203 120.214 88.4773ZM119.482 93.7089C119.3 94.2194 117.728 93.9278 117.357 93.8737C116.877 93.8041 116.327 93.6939 115.885 93.6392C115.832 93.5684 115.769 93.5085 115.695 93.4591C115.639 93.5366 115.569 93.5915 115.484 93.6239C115.28 93.6683 115.28 93.8779 115.013 93.8316C115.001 94.1417 115.216 93.9655 115.381 94.078C114.965 94.3568 115.155 94.0359 114.922 94.041C114.864 93.9589 114.784 93.9267 114.681 93.9444C114.549 93.9785 114.428 94.0347 114.317 94.1132C114.213 94.2231 114.124 94.2286 114.05 94.1304C113.979 94.059 113.892 94.0148 113.79 93.998C113.38 94.0647 113.266 94.2465 112.804 94.2168C112.145 94.1744 111.432 94.3481 110.783 94.2566C110.381 94.2 109.709 93.5681 109.526 94.184C109.248 93.7275 108.805 93.4168 108.539 92.9502C109.779 92.8786 111.019 92.7932 112.26 92.7484C113.346 92.7093 114.535 92.8316 115.55 92.7804C116.502 92.7324 117.509 92.6273 118.48 92.5405C119.509 92.4485 119.85 92.6743 119.482 93.7089ZM87.1336 93.7842C87.5839 93.9089 88.0126 93.6264 88.4493 93.7157C88.5936 93.7451 88.8925 94.0079 88.9582 94.0132C89.0785 94.0228 89.4319 93.7647 89.5835 93.7302C90.5425 93.5118 91.7044 93.5351 92.6632 93.6692C93.1713 93.7401 93.2493 93.5076 93.6928 93.3948C94.1537 93.2772 94.809 93.3676 95.2943 93.3353C96.4363 93.2588 97.5778 93.3132 98.712 93.2297C99.8764 93.1439 101.035 93.0976 102.2 93.0376C102.994 92.9969 104.9 92.5442 105.558 93.1333C106.101 93.619 105.402 94.4623 104.859 94.6548C104.454 94.7983 104.259 94.4956 103.958 94.5246C103.615 94.5574 103.735 94.9626 103.429 94.5868C103.239 94.9606 102.047 94.8012 101.705 94.826C100.96 94.8797 100.331 95.0291 99.8237 94.3346C99.858 94.5347 99.8924 94.7352 99.9267 94.9355C99.2548 94.5763 98.5334 94.6912 97.9501 94.8165C97.6612 94.8785 96.7744 95.3069 96.4614 95.1221C96.2461 94.9951 96.6257 94.7778 96.2623 94.6693C96.0719 94.6124 95.7433 94.9286 95.5106 94.9127C94.8668 94.8684 95.0494 94.4355 94.417 94.9865C94.2028 94.8012 94.1315 94.4862 94.1598 94.2161C93.7004 94.608 93.7388 95.2611 92.9174 95.1415C92.6113 95.097 92.5551 94.7847 92.3955 94.7273C92.0556 94.6044 92.017 94.8251 91.7225 94.9998C91.6114 95.0657 91.4758 95.1716 91.3449 95.1849C91.076 95.2117 91.0334 95.0883 90.9965 95.0923C90.8176 95.112 90.5922 95.203 90.38 95.1379C90.1894 95.0797 90.1337 94.7434 89.7981 94.8219C89.4769 94.8974 89.4742 95.1155 89.5324 95.4422C89.2156 95.4093 89.024 95.233 88.787 95.0418C88.5478 95.5999 88.0441 95.1376 87.7655 95.6084C87.4026 95.1752 87.1698 95.2944 86.7195 94.8713C86.7418 95.0478 86.7639 95.2244 86.7858 95.4011C86.4345 95.3334 86.2782 95.0856 85.9783 95.4134C85.6874 94.8714 84.8054 95.6437 84.3522 95.1201C84.1502 95.7831 82.814 95.6246 82.2497 95.6361C81.7496 95.6464 81.3793 95.6054 80.8906 95.7215C80.4588 95.8241 79.8603 95.9305 79.4542 95.8835C79.1888 95.8529 78.8988 95.8042 78.5681 95.8402C78.0915 95.8918 77.6798 96.1386 77.1861 96.0218C76.4427 95.8461 75.987 94.8696 76.815 94.4407C77.3816 94.1471 78.4025 94.2559 79.0261 94.2017C80.0596 94.1119 81.2179 93.9237 82.2527 94.0091C83.06 94.076 83.7958 93.8834 84.6194 93.8021C85.2395 93.7408 86.2558 93.6306 86.6603 94.2451C86.8154 94.0657 86.7994 93.6917 87.1336 93.7842ZM75.8197 102.196C75.7087 101.644 80.4337 101.339 80.9027 101.303C81.8874 101.227 82.8747 101.173 83.8617 101.148C84.673 101.127 85.4302 101.282 86.2416 101.158C86.9995 101.042 87.9142 100.803 88.5739 101.34C88.671 100.606 91.5152 100.963 92.0563 100.965C94.4118 100.974 96.6658 100.979 98.9441 100.833C100.246 100.75 101.629 100.638 102.931 100.703C103.519 100.733 103.992 100.889 104.576 100.753C104.957 100.665 105.367 100.48 105.732 100.741C106.158 101.046 106.341 102.082 106.047 102.515C105.833 102.83 105.643 102.795 105.302 102.74C104.776 102.657 104.386 102.535 103.85 102.748C103.937 102.714 103.491 102.813 103.528 102.81C102.921 102.856 102.088 103.28 101.565 102.791C101.775 102.828 102.079 102.454 101.815 102.423C101.617 102.4 101.491 102.613 101.336 102.684C100.806 102.927 100.535 102.851 100.219 102.34C99.5814 102.892 99.5127 102.739 99.2327 102.06C99.0171 102.226 98.9708 102.618 98.8011 102.747C98.7758 102.766 98.8803 103.005 98.7578 102.995C98.6441 102.986 98.6069 102.8 98.5195 102.785C98.4637 102.775 98.4346 102.612 98.3812 102.602C98.3232 102.591 98.2637 102.696 98.198 102.693C98.0228 102.684 97.5217 103.057 97.7014 102.534C97.4358 102.872 97.3216 102.656 97.2257 102.349C96.9191 102.582 96.6127 102.815 96.3059 103.048C96.1634 102.652 95.918 102.76 95.6094 102.898C95.7023 102.623 95.6441 102.362 95.4108 102.554C95.2755 102.665 95.1849 103.016 95.0466 103.166C94.4868 102.599 94.2833 102.754 93.5099 102.828C93.2147 102.856 92.8479 102.911 92.5842 102.732C92.3523 102.576 92.2212 102.001 91.8246 102.465C91.9131 102.362 91.7746 103.156 91.7502 103.282C91.5753 103.164 91.4267 103.019 91.3044 102.847C91.0763 103.299 90.4773 102.893 89.9866 102.986C89.2139 103.131 88.4169 103.376 87.7343 102.801C87.6862 102.986 87.127 103.223 87.1262 103.23C87.1594 102.901 87.3668 103.017 86.9433 102.955C86.8653 102.943 86.7768 103.083 86.7032 103.099C86.4507 103.151 86.1557 103.101 85.9012 103.094C84.8424 103.064 83.8733 103.298 82.8279 103.383C82.4754 103.412 82.0573 103.468 81.7265 103.335C81.3857 103.198 81.395 103.043 81.0501 103.131C81.1593 103.103 80.8347 103.444 80.8522 103.431C80.8059 103.465 80.6125 103.299 80.5437 103.311C80.5237 103.384 80.5037 103.456 80.4836 103.529C80.4004 103.519 80.3173 103.509 80.2343 103.498C80.0069 103.529 79.8019 103.299 79.5883 103.291C79.6275 103.292 79.0118 103.522 79.0399 103.536C78.61 103.321 78.7335 103.383 78.1882 103.514C77.6727 103.637 77.1596 103.608 76.6308 103.685C75.0926 103.909 76.009 103.138 75.8197 102.196ZM74.4613 109.887C74.172 109.476 74.9415 109.334 75.1875 109.298C75.5916 109.239 76.128 109.357 76.3973 109.293C76.8075 109.195 77.2036 108.963 77.6653 108.899C78.2482 108.82 78.8356 108.807 79.4208 108.757C79.6157 108.74 79.8571 108.673 80.0468 108.684C80.3293 108.701 80.4465 108.851 80.6746 108.852C81.0631 108.854 81.5424 108.608 81.9404 108.563C82.4502 108.506 82.9651 108.479 83.4774 108.453C84.5567 108.4 85.6249 108.422 86.7037 108.421C87.1958 108.42 88.506 107.909 88.7513 108.482C89.0924 108.048 89.9674 108.107 90.4551 108.094C91.3142 108.072 92.1644 107.99 93.0229 107.95C93.7579 107.915 94.5791 108.073 95.3009 107.963C95.6986 107.902 95.8306 107.774 96.2815 107.832C96.6167 107.874 97.1277 107.697 97.4154 107.776C97.4004 107.772 97.7744 108.003 97.6576 108.011C97.7862 108.002 97.7786 108.092 97.9203 108.052C98.1062 108 98.0208 107.766 98.4064 107.683C99.0078 107.553 99.8098 107.703 100.435 107.67C101.041 107.638 101.646 107.624 102.253 107.627C102.532 107.628 102.878 107.561 103.149 107.616C103.282 107.642 103.565 107.816 103.678 107.799C103.998 107.748 104.161 107.526 104.593 107.54C105.083 107.556 105.524 107.549 106.012 107.512C106.483 107.476 106.559 107.408 106.793 107.801C107.025 108.19 107.089 108.697 106.662 108.962C106.939 108.944 107.28 109.315 106.953 109.52C106.752 109.647 106.347 109.361 106.105 109.381C105.808 109.407 105.574 109.564 105.25 109.574C104.91 109.584 104.564 109.67 104.228 109.677C103.878 109.683 103.614 109.527 103.282 109.594C102.99 109.652 102.959 109.892 102.608 109.682C102.433 109.577 102.403 109.19 102.165 109.186C101.846 109.181 101.973 109.594 101.789 109.785C101.74 109.195 101.285 110.171 101.103 109.455C100.936 109.693 100.318 110.026 100.019 109.835C99.746 109.66 99.8366 109.266 99.7229 108.982C99.5336 109.493 99.0258 110.022 99.0718 109.093C98.825 109.397 98.1585 109.349 98.3256 109.88C98.1246 109.876 98.0771 109.589 97.908 109.568C97.7619 109.549 97.646 109.661 97.6236 109.659C97.7036 109.666 97.3846 109.772 97.3795 109.773C97.5956 109.73 96.7564 109.655 96.8992 109.656C96.7045 109.654 96.4661 109.814 96.2384 109.813C96.031 109.813 95.8246 109.731 95.6198 109.708C95.089 109.647 95.1995 109.764 94.8661 109.93C94.7426 109.992 94.7117 110.097 94.5363 110.084C94.4069 110.074 94.3586 109.905 94.3439 109.904C94.162 109.886 94.2964 109.824 94.0139 109.853C93.9814 109.908 93.9492 109.964 93.9167 110.02C93.8148 110.15 93.6824 110.183 93.52 110.118C93.1019 110.207 91.7155 110.596 91.8513 109.876C91.6388 109.98 91.4264 110.084 91.214 110.188C91.1228 109.608 89.9686 110.377 89.7108 110.416C89.38 110.466 89.3495 110.339 89.0368 110.271C88.9804 110.259 88.8674 110.445 88.7353 110.418C88.3922 110.349 88.331 110.315 88.2722 109.942C88.0276 110.4 87.8243 110.195 87.3806 110.27C87.2824 110.287 87.2197 110.48 87.0787 110.447C86.9771 110.423 86.9744 110.237 86.9043 110.213C86.8413 110.192 86.8508 110.045 86.758 110.024C86.6515 110 86.2885 110.298 86.1844 110.344C85.9495 110.447 85.5638 110.619 85.3345 110.567C85.051 110.504 85.1772 110.294 84.7766 110.318C84.1447 110.355 83.881 110.893 83.4879 110.045C83.3105 110.384 83.3331 110.477 83.048 110.589C82.8375 110.671 82.3041 110.585 82.0268 110.575C80.8428 110.531 79.6785 110.934 78.5042 110.829C77.9881 110.782 77.5528 110.679 77.0319 110.764C76.4846 110.852 75.9493 110.983 75.394 111.036C75.1117 111.062 74.5217 111.143 74.3831 110.782C74.2613 110.465 74.716 110.248 74.4613 109.887ZM76.7836 122.915C75.2476 123.942 73.9756 125.345 72.5653 126.533C71.1514 127.725 70.0293 129.049 68.7578 130.368C67.5822 131.587 66.502 132.741 65.0807 133.662C64.1813 134.245 63.379 134.963 62.4552 135.513C61.7631 135.925 60.7148 136.467 61.0524 135.207C61.3984 133.916 62.0372 132.611 62.592 131.406C63.3807 129.692 64.1753 127.994 65.0285 126.313C65.3493 125.682 65.5287 125.053 66.0372 124.55C66.5906 124.002 66.9781 123.287 67.584 122.77C70.1331 120.593 73.9746 122.275 76.7836 122.915ZM81.6017 123.652C80.9049 124.018 80.1251 124.108 79.3868 124.35C78.7576 124.555 78.1725 124.921 77.4959 124.948C78.1119 124.486 78.641 123.858 79.3356 123.506C80.1167 123.111 80.8257 123.399 81.6017 123.652ZM112.182 126.696C109.619 125.831 107.233 124.557 104.737 123.532C104.306 123.355 100.936 122.245 101.005 121.717C103.366 121.284 105.798 120.542 108.165 121.351C110.319 122.088 112.07 123.854 113.737 125.332C114.172 125.718 116.862 127.474 116.622 128.034C116.455 128.422 115.159 128.316 114.853 128.236C114.457 128.133 114.23 127.893 113.919 127.63C113.401 127.189 112.827 126.914 112.182 126.696ZM107.451 112.249C107.84 111.891 108.073 111.348 108.445 111.017C108.923 110.592 109.694 110.799 110.216 111.02C111.783 111.682 113.122 112.795 114.68 113.486C116.406 114.252 117.9 115.275 119.456 116.33C120.879 117.294 122.418 118.092 123.87 119.012C125.35 119.949 127.007 120.558 128.508 121.463C130.034 122.383 131.555 123.307 133.023 124.321C135.639 126.13 138.363 127.987 140.299 130.558C141.294 131.88 142.225 133.379 142.955 134.863C143.619 136.212 144.339 138.085 143.479 139.488C142.653 140.836 141.245 141.898 140.054 142.904C139.602 143.284 139.173 143.747 138.588 143.912C137.877 144.113 137.047 144.057 136.315 144.116C132.403 144.434 128.759 144.134 124.903 143.435C121.186 142.76 117.453 142.382 113.707 141.914C111.594 141.649 109.481 141.341 107.397 140.9C106.506 140.712 105.599 140.495 104.727 140.238C103.966 140.014 103.326 139.521 102.543 139.326C99.2197 138.496 95.418 138.179 92.1284 136.783C95.0395 135.573 98.133 134.842 101.117 133.837C104.257 132.779 107.324 131.891 110.634 131.591C112.337 131.436 113.861 131.001 115.499 130.546C117.061 130.112 118.691 129.979 120.294 129.785C121.007 129.698 123.043 129.828 123.279 128.895C123.631 127.507 121.631 127.347 120.779 127.472C119.569 127.648 118.572 127.95 117.647 126.958C116.702 125.945 115.783 124.907 114.821 123.907C113.037 122.052 111.198 119.907 108.676 119.075C105.6 118.06 102.032 119.023 98.9625 119.6C95.7202 120.21 92.4831 120.794 89.3015 121.68C87.984 122.047 86.2848 122.856 84.9174 122.726C83.5697 122.598 82.0434 122.377 80.741 121.989C80.1517 121.813 79.6674 121.487 79.1402 121.183C78.4545 120.788 77.7032 120.535 76.9757 120.228C75.5044 119.607 74.0699 119.035 72.4826 118.79C71.1457 118.585 69.7261 118.463 68.4307 118.932C67.1597 119.391 66.0335 120.327 65.1468 121.327C64.1835 122.414 63.3874 123.631 62.598 124.845C62.219 125.428 61.7564 125.936 61.3637 126.506C61.0342 126.984 60.8419 127.516 60.4932 127.98C59.7127 129.021 59.1827 130.351 58.7099 131.561C58.1843 132.905 57.6006 134.503 57.7261 135.965C57.7734 136.517 57.8229 137.249 58.0367 137.762C58.3086 138.413 58.6962 138.397 59.255 138.642C60.215 139.065 60.4842 140.232 61.7249 140.004C62.8886 139.791 63.8978 138.832 64.7469 138.068C65.8535 137.072 66.9125 136.021 67.9715 134.975C69.058 133.901 70.1287 132.71 70.9931 131.447C71.3334 130.949 71.5987 130.388 72.0008 129.935C72.5129 129.358 73.0878 129.289 73.7834 129.059C79.8644 127.05 85.9748 125.111 92.2458 123.785C93.7481 123.467 95.2627 123.057 96.7385 122.634C98.3038 122.185 99.1144 122.66 100.406 123.514C103.105 125.298 106.295 126.555 109.301 127.719C110.247 128.086 111.753 128.109 112.493 128.832C108.108 129.5 103.93 130.786 99.7005 132.067C97.6153 132.698 95.5063 133.246 93.4132 133.85C91.3193 134.454 89.3052 135.236 87.2401 135.917C85.1849 136.595 83.0128 136.871 80.9378 137.497C78.8194 138.135 76.71 138.574 74.5356 138.962C72.3401 139.353 70.1599 139.805 67.9568 140.156C66.9481 140.317 65.9395 140.483 64.9421 140.704C63.9661 140.92 63.023 141.438 62.0421 141.558C57.6614 142.094 53.3666 143.288 49.0029 143.963C45.7447 144.467 40.0763 145.17 37.9635 141.901C35.839 138.614 38.4455 134.779 40.7712 132.429C42.2166 130.968 43.8407 129.682 45.5446 128.539C47.3683 127.315 49.123 125.993 50.947 124.771C55.0749 122.004 59.551 119.749 63.9858 117.526C66.1144 116.459 68.1711 115.315 70.2418 114.144C71.2695 113.563 71.8382 114.501 72.6507 115.138C73.2897 115.639 74.463 116.875 75.357 116.304C75.3913 116.509 75.4259 116.715 75.4602 116.921C75.722 116.802 75.9841 116.682 76.2459 116.563C76.4218 117.024 76.4012 117.311 76.8926 117.553C77.1943 117.702 77.8383 117.881 78.1261 117.619C78.1847 117.801 78.2433 117.983 78.3021 118.165C78.5536 118.146 78.6021 117.426 78.6496 117.258C79.0805 117.888 79.6767 118.414 80.4342 118.592C80.438 118.55 80.3111 118.033 80.3165 118.03C80.5562 117.883 80.8586 118.512 80.9856 118.646C81.4069 119.092 81.6583 119.023 82.1237 118.663C82.1576 118.7 82.3151 119.111 82.338 119.103C82.4387 119.071 82.6299 118.707 82.651 118.674C82.6218 119.153 83.5468 119.25 83.8735 119.147C83.8002 119.006 83.7269 118.866 83.6538 118.726C84.7916 118.574 85.2383 119.783 86.3304 119.721C87.1378 119.676 86.4903 119.499 86.9473 119.154C87.3464 118.851 87.4175 119.512 87.4567 119.491C87.5329 119.411 87.5918 119.32 87.6338 119.216C87.7815 119.782 88.9577 120.29 88.836 119.36C89.2988 119.545 89.6273 119.852 90.1394 119.917C90.7618 119.995 91.4266 119.863 92.0475 119.812C93.3854 119.7 94.6466 119.428 95.8526 118.815C96.5677 118.451 97.3288 118.121 98.0009 117.683C98.5634 117.316 99.6306 116.202 100.38 116.682C100.188 116.116 101.091 116.64 101.119 115.912C101.264 116.021 101.41 116.13 101.555 116.24C101.641 116.049 101.617 115.748 101.734 115.582C101.894 115.354 101.972 115.488 102.108 115.36C102.261 115.216 102.394 114.831 102.577 114.722C102.765 114.609 102.987 114.744 103.19 114.645C103.499 114.495 104.828 113.03 104.603 114.285C105.174 114.091 104.734 113.914 104.805 113.533C104.948 112.77 105.297 113.319 105.645 113.386C106.214 113.495 106.202 113.024 106.519 112.682C106.809 112.37 107.354 112.23 107.166 111.688C107.381 111.804 107.426 112.03 107.451 112.249ZM73.1503 95.9548C72.7021 96.4541 72.3663 96.2407 71.868 96.1674C71.8146 95.9887 71.7235 95.9641 71.5948 96.0931C71.4471 96.178 71.2884 96.2339 71.1182 96.2605C70.7096 96.3613 70.285 96.3185 69.8853 96.4711C69.8968 96.3372 70.0374 96.0992 69.9473 95.9632C69.5268 96.254 69.2662 96.4389 68.7499 96.4445C68.3316 96.4489 67.5973 96.1293 67.25 96.5114C67.2392 96.3626 67.2284 96.2141 67.218 96.0653C67.0478 96.15 66.8997 96.2634 66.7739 96.4056C66.75 96.1852 66.7368 96.0186 66.5911 95.8406C66.3147 96.409 66.012 96.4224 65.4751 96.2051C65.5504 96.2356 64.9377 95.8765 64.9611 95.976C64.7674 95.1598 67.8251 95.2272 68.1461 95.1951C68.9478 95.114 69.7494 95.067 70.5522 94.9931C71.3137 94.9232 71.882 94.8044 72.409 95.4397C72.1741 94.5221 74.3959 94.5676 73.1503 95.9548ZM38.0921 81.7244C38.1763 83.1116 38.4851 84.5861 37.9457 85.9213C37.5121 86.9946 36.647 88.2066 35.7151 88.9071C33.807 90.3411 32.1898 88.5863 31.9242 86.6578C31.6474 84.6463 32.1961 82.1885 33.9282 80.9481C34.9632 80.2073 35.9653 80.2585 37.1568 80.5022C37.4366 80.5595 37.8909 80.5374 38.051 80.8156C38.0885 80.8806 38.0548 81.723 38.0921 81.7244ZM63.4342 100.207C63.1046 100.374 62.7597 100.471 62.4692 100.698C62.3682 100.776 62.3339 100.955 62.2267 101.021C62.0318 101.142 61.7532 101.062 61.5501 101.162C61.2138 101.326 60.9727 101.561 60.5732 101.712C59.9797 101.937 59.4593 102.246 58.8984 102.538C57.9638 103.026 56.9606 103.444 55.9836 103.841C55.4903 104.041 54.1263 104.431 54.1735 105.153C54.0631 105.183 53.9504 104.942 53.72 104.961C53.4038 104.987 52.986 105.353 52.6577 105.443C52.0435 105.611 51.5681 105.626 51.5681 106.409C51.3727 106.276 51.323 105.951 51.0629 105.908C50.7702 105.86 50.647 106.175 50.4129 106.274C50.1371 106.389 49.7941 106.278 49.521 106.401C49.4016 106.528 49.2689 106.638 49.1228 106.732C48.9742 106.749 48.8263 106.745 48.6793 106.718C48.0994 106.841 47.5659 107.059 46.9848 107.173C46.4184 107.283 46.0304 107.323 46.2686 107.993C45.6627 108.112 45.5148 107.469 44.8312 107.704C43.9933 107.992 43.2101 108.2 42.3355 108.376C41.8894 108.465 41.4233 108.665 40.974 108.712C40.6535 108.746 40.3543 108.631 40.0386 108.667C39.6582 108.709 39.3525 108.886 38.9588 108.892C38.5853 108.899 38.1933 108.832 37.8266 108.766C37.8785 108.914 37.9433 109.055 38.0212 109.191C37.7676 109.138 37.6505 108.833 37.4356 108.788C37.21 108.74 37.0079 108.973 36.8201 108.922C36.74 108.9 36.7933 108.653 36.6503 108.606C36.5197 108.563 36.4648 108.613 36.3354 108.593C36.2923 108.587 35.7514 108.557 35.6651 108.603C35.5145 108.683 35.667 108.832 35.637 108.855C35.1282 109.231 35.122 109.028 34.8953 108.635C34.5622 108.057 34.1606 108.422 33.5554 108.321C32.8807 108.208 32.3492 108.506 31.6853 108.463C30.9692 108.418 30.1276 107.882 29.4944 107.569C28.1272 106.893 26.7938 106.253 25.6456 105.23C23.4009 103.229 21.5749 100.769 20.4982 97.952C19.3413 94.9259 19.1221 91.7698 19.215 88.5594C19.2708 86.6285 19.4254 84.6988 19.7297 82.7907C19.9392 81.4781 19.9831 79.1455 21.463 78.5478C21.7174 81.6211 20.9146 84.7529 21.4209 87.8064C21.5733 88.7261 21.9451 89.9515 22.6488 90.6327C23.6905 91.6409 23.9343 90.1835 24.0284 89.3782C24.2038 87.883 24.5296 86.396 24.7604 84.9077C24.9908 83.4201 25.1537 81.9159 25.4741 80.4439C25.591 79.9072 26.5334 75.977 27.2251 76.1631C27.0851 79.0223 26.7135 81.8324 26.6988 84.702C26.6931 85.8531 26.59 87.0689 26.7561 88.2123C26.8417 88.8008 27.3775 90.5274 28.2992 90.3834C29.1521 90.2502 28.2144 89.0339 28.1347 88.5649C27.9238 87.3234 28.1927 85.7788 28.3893 84.5465C28.7616 82.2144 29.5919 79.8259 30.949 77.8772C32.1646 76.1321 34.0361 74.4708 36.2909 74.7786C37.2542 74.9101 38.0058 75.1493 38.4898 76.029C38.8697 76.7194 40.3657 77.5039 39.4987 78.368C38.7095 79.1551 37.4329 78.5252 36.5556 78.3376C35.4813 78.108 34.3301 78.3842 33.4317 79.0137C31.8903 80.0934 31.012 82.0239 30.7253 83.8345C30.3388 86.2756 31.3718 92.6655 35.1764 91.2334C37.7039 90.282 39.6077 86.8596 39.3954 84.2394C39.3104 83.1906 38.9003 81.1995 40.3514 80.9163C42.2105 80.5536 42.4731 82.6029 42.2848 83.9345C42.0112 85.8718 40.9873 87.6731 39.8161 89.2047C38.7952 90.5396 37.6079 91.3743 36.3795 92.4767C36.0158 92.8031 35.0881 93.5369 35.244 94.1441C35.4148 94.8093 36.8726 94.9985 37.4563 95.1078C40.3442 95.6484 43.6008 95.1511 46.4838 94.7736C52.4091 93.9977 58.2564 92.0867 63.115 88.573C63.3113 90.7471 63.5587 92.9138 63.6499 95.0957C63.694 96.1548 63.7053 97.2292 63.8264 98.2825C63.901 98.9304 64.1704 99.8355 63.4342 100.207ZM47.0045 107.783C46.7718 107.904 47.0233 107.168 46.9586 107.412C47.3062 107.536 47.3215 107.66 47.0045 107.783ZM71.5842 81.4734C71.9535 81.0664 72.9623 80.0981 73.2826 81.017C73.4017 80.6254 73.4172 80.0452 73.8771 80.5742C74.0602 79.9244 76.0801 79.9852 76.5805 79.9564C78.1825 79.865 79.7909 79.8159 81.3872 79.6567C84.6676 79.3298 88.005 79.4986 91.2974 79.4878C92.0103 79.4854 92.7213 79.4468 93.429 79.5503C94.1119 79.65 94.8297 79.93 95.5258 79.8277C96.1447 79.7368 96.5505 79.5661 97.1875 79.6391C97.9497 79.7265 98.6898 79.7885 99.4588 79.7858C102.86 79.7733 106.26 79.9111 109.662 79.9165C110.325 79.9175 111.12 79.788 111.742 80.0696C111.972 80.1741 112.224 80.5214 112.4 80.5595C112.602 80.6031 112.482 80.2883 112.752 80.4306C113.114 80.6208 112.834 81.2059 112.595 81.2985C112.738 81.2431 112.336 81.1884 112.377 81.1862C112.186 81.1964 112.024 81.3425 111.819 81.3334C111.507 81.3198 111.247 81.1297 110.996 80.9625C110.991 81.0308 111.129 81.4862 110.972 81.5091C110.836 81.529 110.709 81.08 110.696 80.9756C109.935 81.6469 109.128 81.2726 108.184 81.3577C107.514 81.418 106.117 81.8649 105.65 81.1656C105.63 81.3144 105.571 81.4446 105.471 81.5563C105.337 81.7596 105.222 81.7422 105.124 81.5037C105.091 81.5054 104.766 81.5761 104.759 81.5756C104.531 81.5574 104.234 81.4752 104.001 81.4552C103.64 81.4245 103.706 81.687 103.419 81.6912C103.262 81.6934 102.862 81.467 102.589 81.4528C102.115 81.4281 101.631 81.629 101.164 81.5682C100.842 81.5264 100.552 81.2645 100.236 81.2544C99.8425 81.2413 99.715 81.5413 99.4034 81.1198C99.3395 81.1026 99.2999 81.3504 99.2747 81.3546C99.2807 81.3536 98.978 81.3984 98.9423 81.4124C98.8801 81.4362 98.6381 81.547 98.5644 81.5482C98.4054 81.5512 98.319 81.4373 98.1504 81.4346C97.8714 81.4299 96.9808 81.6754 97.0057 81.1594C96.0101 81.5283 95.1606 81.3844 94.1387 81.4717C93.6699 81.512 93.3754 81.4491 92.9294 81.363C92.3708 81.2552 91.9998 81.3907 91.4428 81.418C90.9074 81.4444 90.7386 81.2178 90.2866 81.0133C90.1084 80.9326 89.9906 80.8263 89.772 80.8712C89.6473 80.8968 89.7361 81.1067 89.6992 81.121C89.5072 81.1951 89.3731 81.1166 89.1098 81.1345C88.6236 81.1676 88.4301 81.574 87.9304 81.1926C88.0963 81.1725 88.2624 81.152 88.4287 81.1319C87.9508 80.9293 87.3201 80.826 87.4358 81.5635C87.0283 81.5064 87.3811 81.229 87.1808 81.1296C86.9803 81.0305 86.7561 81.1964 86.5038 81.2785C85.8373 81.4946 85.2818 81.3873 84.5871 81.3486C83.7975 81.3044 81.9507 81.9486 81.3854 81.1122C81.3683 81.2886 81.1792 81.7795 80.9273 81.7564C80.8453 81.7488 81.074 81.2276 81.1 81.1725C80.9703 81.4486 80.3787 81.501 80.0869 81.6442C80.1197 81.4958 80.1523 81.3475 80.1849 81.1993C79.9142 81.4875 79.7827 81.3117 79.4641 81.408C79.3248 81.4501 79.1231 81.7374 79.004 81.7547C78.8654 81.5938 78.6909 81.5246 78.481 81.547C78.3412 81.5121 78.2015 81.5052 78.0619 81.5266C77.5028 81.567 76.993 81.8779 76.4368 81.6663C75.9553 81.4828 75.7692 81.0111 75.4821 81.7616C75.4065 81.6282 75.331 81.4948 75.2555 81.3614C75.1624 81.5062 75.0692 81.6509 74.9759 81.7956C74.6117 81.5571 74.5893 81.419 74.1702 81.5066C74.0718 81.5458 73.9709 81.5403 73.8676 81.4901C73.8429 81.5635 73.8183 81.637 73.7935 81.7104C73.7837 81.895 73.7288 81.9562 73.6291 81.8933C73.5452 81.8632 73.4696 81.8175 73.402 81.7561C73.1247 81.7773 72.7705 81.8502 72.4728 81.81C72.3579 81.7945 71.6378 81.4143 71.5842 81.4734ZM80.0707 76.5068C80.1034 76.557 80.1361 76.607 80.1688 76.6572C79.7185 76.8949 79.6125 76.7584 79.566 76.281C79.786 76.2852 79.8236 76.6722 80.0707 76.5068ZM80.3497 76.2266C80.5665 76.3223 80.8151 76.5101 81.0193 76.2585C81.1568 76.658 80.1357 77.2033 80.3497 76.2266ZM81.7499 76.403C82.2051 76.7108 81.1133 76.4635 81.115 76.464C81.3112 76.2827 81.5228 76.2625 81.7499 76.403ZM85.6648 74.6876C85.821 75.4753 86.2516 75.4529 86.9465 75.0867C87.9599 74.5527 88.1311 73.6782 88.2016 72.6339C88.2695 71.6326 88.392 71.245 89.4245 71.4541C90.1451 71.6 90.7548 71.4773 91.4813 71.4573C92.2566 71.4359 92.5298 71.5543 92.5921 72.3521C92.6546 73.1509 92.7968 73.7576 93.3765 74.3655C93.9659 74.9836 94.7519 75.3527 95.5177 75.6983C95.9116 75.8761 96.2813 76.0673 96.7171 76.1058C96.8859 76.1208 97.7648 76.0097 97.7831 76.2876C97.7969 76.4968 96.5798 77.0864 96.4508 77.1567C95.8863 77.4636 95.3235 77.739 94.7069 77.925C93.2885 78.3529 91.7845 78.3782 90.3154 78.3522C87.9466 78.3106 84.6728 77.3086 83.2564 75.2071C84.0593 75.034 84.8621 74.8608 85.6648 74.6876ZM85.4524 67.8668C85.0776 67.5523 84.8348 67.0771 84.5235 66.7046C84.3665 66.5168 84.2515 66.457 84.1021 66.363C83.9447 66.2639 83.8561 66.4041 83.7247 66.1713C83.3856 65.5699 84.4322 64.7235 83.3221 64.4921C82.9466 64.4136 82.0427 64.7112 81.933 64.173C81.7779 63.4121 83.2303 63.3624 83.5719 62.9761C84.2515 62.2083 83.7902 60.9066 84.2041 60.0209C84.5958 59.1818 85.6071 59.0327 86.4052 58.7805C87.5174 58.4295 88.6428 58.2258 89.772 57.9448C90.5615 57.7484 91.8733 56.9594 92.6056 57.6566C91.4756 57.9074 92.1324 58.3011 92.8856 58.5235C93.7387 58.7755 94.6428 58.8737 95.5267 58.9439C96.4367 59.016 97.3638 59.0299 98.2629 58.8484C99.0944 58.6806 100.023 57.958 100.895 58.1431C100.411 58.9842 98.9701 59.4436 98.0944 59.6639C97.6484 59.7761 97.3627 59.7411 97.4226 60.2973C97.4806 60.8364 97.9492 61.377 98.0552 61.9386C98.1952 62.6818 98.0729 63.3649 97.8082 64.0639C97.548 64.7515 97.4873 64.8415 97.7147 65.4986C98.0692 66.5218 97.3074 67.6528 96.6034 68.3959C93.7562 71.4005 88.3074 70.2622 85.4524 67.8668ZM92.6871 49.9096C92.6986 49.9403 92.6888 49.9286 92.6871 49.9096V49.9096ZM93.5739 57.492C93.4558 57.5803 92.7759 57.7653 92.8044 57.4994C92.8423 57.1435 93.4551 57.272 93.5739 57.492ZM95.1235 50.3001C94.964 50.1811 94.5171 50.23 94.8439 49.7792C94.9502 49.9775 95.0369 50.1387 95.1235 50.3001ZM84.4001 47.4505C84.6034 46.9222 84.8286 46.4306 84.9203 45.8681C84.9769 45.5216 84.8643 45.1259 85.3488 45.0715C84.7314 44.8023 84.7252 43.7397 84.6886 43.1888C84.6386 42.4302 84.3989 41.4145 84.7324 40.7085C85.0746 39.9832 85.5363 39.9952 85.6756 40.859C85.7302 41.1972 85.5215 41.3066 85.4822 41.5421C85.4046 42.0081 85.559 41.9059 85.8596 41.5509C85.9837 41.9117 86.0312 42.4539 86.5363 42.4309C86.5026 42.3334 86.3092 42.1181 86.3739 41.9969C86.4731 41.8108 86.9581 42.0952 87.0196 42.1383C87.4626 42.4481 87.5586 42.7309 87.2428 43.1216C87.6801 43.1688 87.313 43.5517 87.5954 43.6514C88.0261 43.8037 87.7372 43.0824 87.6905 42.9555C87.9527 43.0578 88.0406 43.1745 88.2067 43.3817C88.3041 43.5246 88.3928 43.673 88.4728 43.8264C88.5621 44.1066 88.7457 44.1768 89.024 44.0372C89.582 44.2122 90.3522 44.1848 90.8521 44.4907C91.0806 44.6305 91.1629 44.9362 91.3538 45.0523C91.5684 45.183 91.8561 45.1237 92.0868 45.2058C92.0024 45.3975 92.0708 45.5011 92.2913 45.5174C92.4628 45.5331 92.6288 45.5717 92.7894 45.6331C92.9093 45.5427 93.0401 45.4711 93.1811 45.419C93.2759 45.5861 93.4098 45.6274 93.5832 45.5434C94.0976 45.6397 94.3448 45.8343 94.6717 46.1252C94.9652 46.3863 94.7263 46.4075 95.0479 46.3843C95.1771 46.375 95.4035 46.1559 95.699 46.1987C95.8691 46.2317 96.033 46.2841 96.191 46.3558C96.3617 46.5019 96.5431 46.5202 96.7348 46.4109C97.0463 46.5632 97.077 46.8331 97.4568 46.87C97.8768 46.9109 97.7417 46.3872 98.0301 47.1257C98.4186 46.3427 98.5609 47.5901 98.962 47.6908C99.3774 47.7953 99.4222 47.4584 99.7778 47.8265C99.8845 47.9368 99.8786 48.1191 99.9982 48.236C100.194 48.4273 100.459 48.3891 100.63 48.6502C100.535 48.5045 100.652 49.1667 100.65 49.1448C100.677 49.4369 100.417 49.7642 100.949 49.7393C100.943 49.7699 100.688 50.1424 100.638 50.1003C100.626 50.0578 100.615 50.0147 100.607 49.9711C100.55 49.9957 100.525 50.3504 100.535 50.4131C100.58 50.4202 100.599 50.3867 100.591 50.3125C100.503 50.5861 100.635 50.76 100.467 51.0197C100.36 51.1857 100.065 51.3105 99.9091 51.4129C99.5319 51.6602 99.1628 51.9083 98.7947 52.1715C97.9368 52.7855 96.9761 53.5259 95.8956 53.6539C96.4382 53.1211 99.5604 51.1046 97.9944 50.5258C97.704 50.4185 97.1752 50.3169 96.8714 50.2944C96.4936 50.2662 96.1029 50.4825 95.6863 50.3476C95.1833 50.185 95.3728 49.7123 95.0657 49.5427C94.4135 49.183 94.5675 50.029 94.3623 50.2506C94.1465 50.0243 94.1926 49.9141 93.8522 49.8938C93.5065 49.8729 93.4243 50.1924 93.0209 49.9933C92.4651 49.7191 92.7592 49.1726 91.9709 49.1598C91.984 49.0399 92.0984 48.7046 91.9479 48.6111C91.7451 48.8741 91.9021 49.1682 91.7138 49.4214C91.6196 49.5484 91.4151 49.6497 91.2659 49.6908C90.9163 49.7868 90.8666 49.9706 90.9236 49.4443C90.6645 49.9109 89.8702 49.7191 89.3977 49.6721C88.6295 49.5958 87.8132 49.4504 87.0767 49.2041C86.3956 48.976 86.0319 48.5845 85.4701 48.2284C85.2578 48.0936 85.1564 48.1452 84.852 48.0615C84.5513 47.9789 84.2586 47.8189 84.4001 47.4505ZM86.0208 39.1878C86.1369 39.118 86.2201 40.1605 86.0796 40.3553C85.8222 39.9482 85.366 39.3512 86.0208 39.1878ZM86.3912 38.772C86.7642 38.4345 86.5051 39.3062 86.4367 39.4525C86.2986 39.3639 86.1604 39.2754 86.0223 39.1868C86.1985 39.0786 86.2425 38.9066 86.3912 38.772ZM100.461 37.3671C103.906 38.0901 107.32 39.4416 110.083 41.6656C112.6 43.6913 114.377 46.5656 115.373 49.6229C116.407 52.7963 116.059 56.317 113.6 58.7458C112.304 60.0251 110.593 60.797 108.962 61.5501C108.181 61.911 107.376 62.2115 106.592 62.5641C106.028 62.8173 105.341 63.2222 104.698 63.152C105.026 62.807 105.502 62.7999 105.899 62.5888C106.378 62.3338 106.77 61.8443 107.183 61.4946C107.594 61.1474 108.504 60.0541 109.135 60.3187C109.047 59.7362 109.711 59.4658 110.01 59.0817C110.326 58.6754 110.349 58.2002 110.932 58.0673C110.306 57.5774 110.497 56.6538 110.633 55.987C110.808 55.1343 110.888 54.3515 110.957 53.4837C111.081 51.9195 111.18 49.9266 110.316 48.5515C110.036 48.1049 109.678 47.6946 109.428 47.2306C109.127 46.6717 109.193 46.1796 109.193 45.5669C108.642 45.9374 108.525 45.182 108.292 44.8138C108.118 44.5375 107.888 44.3832 107.832 44.0355C107.791 43.7826 108.065 43.7399 107.915 43.4747C107.73 43.614 107.657 43.83 107.563 44.0304C107.393 43.9624 107.594 43.7252 107.496 43.648C107.493 43.646 107.165 43.5033 107.181 43.5239C106.969 43.2559 106.901 42.8112 106.798 42.4922C106.41 42.6884 106.483 42.6653 106.051 42.3374C105.975 42.2798 105.594 42.0148 105.559 41.9281C105.391 41.523 105.684 41.763 105.603 41.5116C105.367 40.7895 104.047 40.926 103.942 39.844C103.298 40.2528 103.053 39.6736 102.672 39.2616C102.282 38.8396 101.628 38.6773 101.663 38.0079C101.46 38.0772 101.258 38.1464 101.055 38.2154C101.16 37.5977 100.243 37.637 99.9104 37.3237C100.095 37.326 100.278 37.3405 100.461 37.3671ZM100.985 75.6235C101.305 75.338 101.208 75.7181 101.413 75.6746C101.589 75.6374 101.624 75.5044 101.792 75.4639C102.486 75.2961 103.524 75.5068 104.254 75.4706C105.1 75.4288 106.549 75.6043 106.952 76.5937C107.195 77.1894 106.824 76.9867 106.416 76.9424C106.1 76.9082 105.819 76.9722 105.505 76.969C105.351 76.9929 105.196 76.9906 105.043 76.9618C104.968 76.9124 104.923 76.8428 104.91 76.7532C104.474 76.6874 104.011 76.9451 103.529 76.9579C102.885 76.9751 102.313 76.8516 101.823 76.4168C101.629 76.7067 101.496 76.8504 101.147 76.8829C101.137 76.8838 100.796 76.7461 100.743 76.7325C100.673 76.7143 100.496 76.8612 100.361 76.8193C100.6 76.4379 100.635 75.9367 100.985 75.6235ZM144.964 79.0663C145.077 78.6709 145.172 78.2703 145.276 77.8724C146.865 79.6818 148.256 82.1039 148.882 84.4246C149.289 85.9324 149.922 88.6648 147.983 89.4426C146.404 90.0762 145.524 87.8052 145.124 86.6866C144.243 84.2174 144.243 81.5787 144.964 79.0663ZM73.8518 50.714C73.8722 50.7098 72.8229 51.3201 73.1685 50.826C73.3073 50.6272 73.8341 50.4876 74.0678 50.4876L73.8518 50.714ZM72.8424 50.9726C72.7209 51.0746 72.5983 51.1755 72.4747 51.2751C72.3559 51.0874 72.2368 50.8996 72.118 50.712C72.3524 50.6132 73.3468 50.5391 72.8424 50.9726ZM72.1027 69.9471C71.8832 69.7983 71.7092 69.8773 71.6431 70.127C71.6431 69.8787 71.7725 69.3015 71.9713 69.2343C72.0998 69.1907 71.5443 68.5335 71.7004 68.3615C72.0975 68.589 71.8598 68.8068 71.976 69.1004C72.0286 69.2328 72.1863 69.3581 72.2208 69.4599C72.2794 69.6327 72.5164 70.2267 72.1027 69.9471ZM71.0271 68.4682C70.8022 68.5258 71.1959 68.8969 71.1956 69.061C71.1952 69.1851 71.0463 69.2803 70.9848 69.4501C70.8516 69.8178 71.0808 70.0663 70.7035 70.347C70.7035 69.5411 70.1626 67.4055 71.202 67.0129C70.6949 66.6136 71.1113 66.1527 71.5087 66.6305C71.8908 67.09 71.6474 68.3095 71.0271 68.4682ZM70.4857 65.2879C70.2813 64.5635 69.6665 64.3101 68.9637 64.3531C68.9905 63.9822 69.2714 63.4475 69.4744 64.1159C69.558 63.9183 69.6158 63.6606 69.8061 63.5297C70.1267 64.5345 71.7247 65.0898 70.7298 66.1787C70.6484 65.8818 70.5694 65.5844 70.4857 65.2879ZM68.6286 64.407C64.9281 64.6754 59.7329 65.4432 56.7716 62.6067C54.8407 60.7572 54.9438 57.8771 56.5043 55.8223C57.3947 54.6496 58.6103 53.824 59.8311 53.0375C60.3021 52.7338 60.7012 52.5335 61.2184 52.359C61.3021 52.3499 61.3809 52.3686 61.4545 52.4151C61.4837 52.2901 61.5539 52.1976 61.6659 52.1373C61.8657 52.0305 62.1503 51.9922 62.2653 51.7704C62.1425 52.1871 62.0793 52.6162 62.0344 53.0473C61.9346 52.9312 61.8351 52.8151 61.7355 52.6991C61.6523 53.4844 60.8341 53.009 60.3456 53.1071C60.6673 53.5525 60.8974 53.7142 60.9252 54.3028C60.6855 53.8603 60.1844 53.5693 59.7184 53.4268C59.9714 54.1753 60.1503 54.6195 59.8956 55.4402C59.5879 55.2645 59.5671 54.8425 59.1938 54.7414C59.0953 55.2308 59.0779 55.7739 58.9518 56.2488C57.9959 55.8128 58.0891 56.987 58.473 57.568C58.677 57.8771 58.7773 58.2349 58.9594 58.5316C59.4061 59.2593 59.0667 58.1711 59.5633 58.2226C59.4518 58.9903 59.4128 59.0667 59.9746 59.6289C60.523 60.177 60.8073 60.9376 61.3937 61.4526C61.5635 61.2355 61.2965 61.0086 61.2731 60.8008C61.8187 60.8923 62.0743 61.4395 62.5989 60.9548C62.8276 61.4007 63.0753 61.8916 63.6231 61.9832C63.2609 61.2948 64.3186 61.7617 64.5899 61.8594C64.7955 61.9336 65.1641 61.9923 65.2435 62.021C65.6904 62.1824 65.384 61.8928 65.6552 62.4219C66.0534 62.3016 66.2037 61.9713 66.6801 62.2504C67.0674 62.4775 67.0682 62.8663 67.1568 63.2647C67.2491 63.0041 67.3423 62.7437 67.4444 62.4866C67.5483 62.5304 67.9844 63.0102 67.9368 63.0125C68.9574 62.9625 68.9214 63.5962 68.6286 64.407ZM63.4329 51.4158C63.6379 51.2719 63.8881 51.4634 64.1182 51.4119C64.4369 51.3408 64.6178 51.0677 64.9738 51.0386C64.8747 51.355 64.6889 51.3255 64.5316 51.574C64.478 51.6587 64.506 51.8618 64.4583 51.9105C64.0594 52.3192 63.9216 51.9858 63.5144 51.6765C63.5498 52.0495 63.6216 52.1673 63.2702 52.2673C62.9521 52.3579 62.427 52.0241 62.2667 51.7678C62.4019 51.4973 63.1876 51.5879 63.4329 51.4158ZM65.972 50.8327C66.3176 50.8658 65.9013 51.8853 65.4062 50.8962C65.5927 50.8558 65.7814 50.8346 65.972 50.8327ZM67.7488 50.6358C68.2937 50.5246 70.1114 50.0066 70.3137 50.8548C70.3499 50.8338 70.4852 50.3548 70.548 50.4133C70.7997 50.6474 70.8278 50.9577 70.8086 51.2829C70.5044 50.6491 70.6125 51.2057 70.4063 51.1624C70.3526 51.151 70.2702 51.2515 70.1339 51.2101C69.9552 51.1555 69.8272 50.7753 69.7143 50.6464C69.5265 50.9146 69.2937 51.2599 68.9175 51.2367C68.6512 51.2202 68.2221 50.5346 68.567 51.2852C68.3645 51.2183 68.1301 51.0669 67.9046 51.0972C67.6521 51.1312 67.5208 51.3806 67.2842 51.4208C66.7594 51.5098 66.6802 51.0049 66.3396 50.7307C66.8094 50.7034 67.2848 50.7303 67.7488 50.6358ZM71.0456 50.6276C71.084 50.4537 71.5609 50.3835 71.6824 50.4387C71.9787 50.5733 71.8691 50.7509 71.8146 51.0467C71.5948 50.9426 71.3748 50.8386 71.155 50.7345C71.4831 51.2631 70.8885 51.3398 71.0456 50.6276ZM163.35 81.5893C163.311 80.3227 163.274 79.034 162.953 77.8007C162.728 76.9377 162.176 75.3901 161.132 75.2403C159.557 75.0142 158.685 78.1268 158.244 79.1952C158.155 77.9373 158.233 76.5984 157.757 75.4046C157.377 74.4477 156.416 73.5416 155.588 74.616C154.852 75.5723 154.71 76.9838 154.516 78.1344C154.265 79.6252 154.114 81.1275 153.931 82.6273C153.211 81.2372 153.086 79.646 152.517 78.2013C151.981 76.838 151.137 75.536 150.323 74.3234C149.659 73.3329 148.851 72.4016 147.811 71.7962C146.905 71.2693 145.322 70.6992 144.459 71.5743C143.739 72.3046 143.851 73.2818 143.889 74.2033C143.906 74.6138 143.97 74.8951 143.609 75.1018C143.432 75.2036 143.155 75.151 142.96 75.2053C142.646 75.293 142.405 75.4416 142.139 75.639C140.277 77.0233 139.418 79.5178 139.153 81.7417C138.816 84.5597 139.915 86.9754 140.86 89.5536C141.011 89.9646 141.489 90.8364 141.423 91.2951C141.351 91.7976 140.72 91.8108 140.294 91.8212C139.008 91.8529 137.664 91.757 136.385 91.6372C133.34 91.3524 130.296 89.8861 127.569 88.5771C127.072 88.338 126.368 88.2014 125.962 87.8252C125.58 87.4716 125.479 86.9049 125.15 86.4993C124.341 85.5041 123.826 84.6549 122.635 84.0535C121.422 83.4413 120.184 82.8755 119.001 82.205C117.538 81.3753 116.186 80.3245 114.784 79.3956C112.178 77.6698 109.589 75.7779 106.826 74.3103C105.543 73.6282 104.108 73.5178 102.775 72.9594C101.477 72.4156 99.8836 72.4149 98.5291 72.7583C97.8692 72.9257 97.4203 73.3223 96.8133 73.5812C96.1023 73.8846 95.5221 73.5497 94.8963 73.1875C93.9401 72.6343 92.9924 71.7327 94.354 71.1359C94.8158 70.9332 95.3946 70.8566 95.798 70.538C96.2281 70.1987 96.5734 69.5729 96.9232 69.1479C97.7006 68.203 98.165 67.1153 99.303 66.5279C100.561 65.8781 102.053 65.7013 103.395 65.2766C104.849 64.8167 106.272 64.2697 107.699 63.7327C110.269 62.7652 112.941 61.7206 114.789 59.5907C116.382 57.7533 117.076 55.3814 117.012 52.9725C116.88 48.048 114.242 43.05 110.457 39.971C105.816 36.1954 99.9118 34.9365 94.0493 35.0024C91.2979 35.0335 88.0143 35.3936 85.7186 37.0652C83.7357 38.5091 83.4058 41.0345 83.7008 43.3142C83.8204 44.2393 84.2296 45.4601 83.5772 46.2755C83.2119 46.7315 82.5565 46.8445 82.0646 47.1289C81.4465 47.4862 80.9014 47.8286 80.2013 48.0175C77.2275 48.8207 74.095 48.5411 71.0544 48.4966C65.9892 48.4225 60.7974 49.7939 57.0189 53.363C53.9675 56.2449 53.0524 61.6795 56.774 64.489C59.7807 66.7588 64.4969 66.5092 68.0422 66.1133C69.1416 65.9903 69.8976 65.8118 69.9001 67.1569C69.9028 68.6262 69.6596 70.1618 70.0344 71.6042C70.6248 73.876 72.8077 73.93 74.7375 73.4408C75.7559 73.1828 76.7403 72.7946 77.7073 72.3882C79.1257 71.792 80.4258 70.9153 81.8265 70.3202C82.7761 69.9169 83.4872 71.2213 84.3295 70.317C84.4851 70.1499 84.5139 69.9009 84.7486 69.8153C85.1165 69.6814 85.7336 70.1511 86.0563 70.2995C86.5395 70.522 87.0265 70.6856 87.2195 71.2213C87.4001 71.7223 87.3209 72.5191 87.1479 73.0133C86.7721 74.0877 85.76 73.8755 84.836 73.8035C83.2244 73.6782 81.6237 73.4122 80.0128 73.3005C78.5674 73.2003 77.2139 73.6322 75.9673 74.345C73.3488 75.842 71.2065 78.2232 68.9362 80.1813C67.7676 81.189 66.6381 82.2776 65.3675 83.1551C64.8149 83.5368 64.2166 83.8875 63.7365 84.3618C63.2599 84.8321 63.2075 85.2598 63.0446 85.8858C62.7543 87.0003 61.313 87.5451 60.4121 88.133C59.1381 88.9645 57.7874 89.5512 56.3591 90.0615C53.3344 91.1418 50.2858 91.8963 47.1236 92.4539C45.5753 92.7272 44.04 92.9066 42.4767 93.054C41.129 93.181 39.6961 93.5961 38.3501 93.2645C38.7378 92.6357 39.4247 92.2582 39.9598 91.772C40.6494 91.1455 41.236 90.4031 41.758 89.6339C42.774 88.136 43.4867 86.5288 43.6503 84.712C43.7979 83.0768 43.6288 81.1208 42.6421 79.7395C42.3013 79.2622 41.627 79.1323 41.3221 78.7026C41.0187 78.2754 41.1344 77.5397 40.9683 77.0416C40.5457 75.7745 39.2912 74.2043 38.1871 73.4683C36.9894 72.6697 35.2372 72.3762 33.8537 72.7925C31.2905 73.5635 29.7159 76.3028 28.5429 78.5166C27.9023 77.1685 28.9752 75.1682 27.7235 74.0641C26.6678 73.1327 25.8299 74.9369 25.4768 75.7088C23.8194 79.3321 23.4429 83.1751 22.7485 87.052C22.4655 86.773 22.6105 86.0571 22.6372 85.7242C22.6867 85.1048 22.682 84.4972 22.6833 83.8751C22.6867 82.3037 22.9788 80.7251 22.8449 79.1551C22.7675 78.2474 22.4781 76.3338 21.1595 76.6353C20.0413 76.891 19.3408 78.4636 18.9894 79.4249C18.4826 80.8117 18.3656 82.1844 18.3972 83.6493C18.4321 85.2679 18.1237 86.86 18.049 88.4763C17.9038 91.6158 18.0472 94.7281 18.948 97.7581C20.4231 102.72 23.8148 106.842 28.3414 109.332C30.8355 110.704 33.6022 111.571 36.4468 111.758C37.9883 111.859 39.4765 111.676 41.0049 111.516C42.5131 111.359 44.0292 111.286 45.5348 111.102C48.8878 110.69 52.155 109.629 55.2028 108.201C56.807 107.449 58.3157 106.525 59.8936 105.724C60.5268 105.402 60.9546 105 61.495 104.553C62.0307 104.109 62.1789 104.075 62.7882 104.075C62.6095 103.597 63.131 103.449 63.3632 103.147C63.3502 103.294 63.337 103.44 63.3241 103.587C63.5009 103.203 63.6657 103.207 63.8182 103.598C63.9688 103.16 64.0803 102.709 64.2622 102.282C64.9578 102.634 64.8991 103.471 65.8294 102.86C66.5953 102.357 67.2997 101.764 68.0805 101.271C69.8592 100.149 71.3928 98.6878 73.1766 97.578C73.1766 98.659 73.2529 99.7493 73.1084 100.825C72.9709 101.847 72.5892 102.803 72.2855 103.782C71.7255 105.589 71.6868 107.519 71.0662 109.307C70.8095 110.047 70.1409 110.667 69.949 111.387C69.7536 112.123 70.205 112.712 69.4483 113.195C68.9147 113.535 68.2477 113.679 67.6568 113.885C66.7555 114.199 65.8998 114.643 65.0225 115.019C60.907 116.782 56.8929 118.578 53.08 120.949C49.4616 123.199 45.7879 125.523 42.4639 128.195C39.579 130.514 36.6629 133.512 35.9606 137.296C35.2792 140.965 37.0948 144.904 40.7404 146.113C42.6359 146.741 44.7788 146.663 46.7528 146.69C48.8769 146.72 51.1278 146.208 53.2161 145.837C55.4216 145.446 57.5893 144.834 59.8011 144.485C61.9234 144.149 63.8697 143.4 65.9572 142.938C68.1805 142.447 70.4609 142.18 72.6965 141.738C73.703 141.539 74.689 141.245 75.6983 141.061C76.8032 140.859 77.9202 140.783 79.0143 140.516C81.1365 139.997 83.1685 139.161 85.3 138.678C86.2581 138.461 87.2018 138.171 88.1605 137.968C89.0431 137.781 89.7307 137.285 90.6153 137.693C91.3299 138.022 91.8999 138.586 92.5763 138.979C93.4535 139.489 94.3783 139.946 95.2928 140.385C97.1304 141.267 99.0361 141.876 100.958 142.538C102.976 143.234 104.958 144.027 107.048 144.486C109.192 144.957 111.379 145.088 113.537 145.46C117.957 146.223 122.34 146.565 126.826 146.592C129.094 146.607 131.362 146.338 133.625 146.37C135.628 146.398 137.369 146.849 139.201 145.785C142.127 144.083 145.522 141.52 145.45 137.797C145.385 134.426 143.362 131.204 141.465 128.545C139.161 125.316 135.876 123.041 132.657 120.814C129.226 118.44 125.372 116.799 121.766 114.727C119.922 113.667 118.221 112.527 116.219 111.774C115.263 111.414 114.33 110.997 113.385 110.61C112.625 110.299 111.528 110.127 110.877 109.61C110.471 109.288 110.432 108.8 110.325 108.32C110.087 107.26 109.714 106.254 109.353 105.231C108.655 103.255 108.19 101.244 107.89 99.172C107.604 97.197 106.969 95.1433 107.298 93.1362C109.461 95.2282 111.684 97.2394 113.897 99.2761C114.726 100.039 115.54 100.819 116.373 101.577C116.999 102.147 117.782 102.993 118.654 103.162C119.768 103.378 119.361 102.145 120.126 101.954C120.594 101.838 122.004 103.026 122.374 103.26C124.717 104.748 127.311 105.69 129.888 106.703C132.59 107.764 135.369 108.707 138.277 108.975C140.963 109.222 143.71 108.905 146.302 108.173C151.463 106.716 155.262 103.258 158.049 98.7761C161.226 93.6688 163.537 87.6861 163.35 81.5893Z" clip-rule="evenodd"/><path fill="#000" fill-rule="evenodd" d="M84.4607 70.4553C84.4598 70.457 84.4511 70.4753 84.4511 70.4753C84.4618 70.468 84.4649 70.4614 84.4607 70.4553Z" clip-rule="evenodd"/><path fill="#000" fill-rule="evenodd" d="M84.7091 70.5214C84.6897 70.3586 84.6479 70.1994 84.5839 70.0435C84.4131 70.3143 84.2602 70.4304 84.4847 70.7173C84.5593 70.6519 84.6341 70.5867 84.7091 70.5214Z" clip-rule="evenodd"/><path fill="#000" fill-rule="evenodd" d="M96.6119 109.24C96.803 109.036 96.4688 108.96 96.3417 108.957C96.3544 109.175 96.2462 109.698 96.5447 109.799C96.4731 109.602 96.4955 109.415 96.6119 109.24Z" clip-rule="evenodd"/><path fill="#000" fill-rule="evenodd" d="M91.5697 66.6815C91.2412 67.3159 91.9669 67.5126 92.387 67.2062C92.703 66.9758 92.89 66.3884 92.9419 66.0115C93.1099 64.7922 92.2566 63.6316 91.8311 62.5496C91.7213 62.2699 91.5707 61.3107 91.2166 61.2845C90.8099 61.2541 90.7798 62.1375 90.7745 62.3654C90.7589 63.0527 90.9408 63.7529 91.1541 64.4016C91.3838 65.101 91.9534 65.9406 91.5697 66.6815Z" clip-rule="evenodd"/><path fill="#000" fill-rule="evenodd" d="M93.1321 64.1371C94.3947 65.2614 95.4047 63.3888 95.3165 62.2812C95.2947 62.0068 95.1093 60.9949 94.5887 61.3631C94.3273 61.5481 94.5501 62.1493 94.4255 62.4133C93.8216 63.6929 93.2401 61.708 92.8334 61.5522C92.3386 61.3623 92.2889 62.0124 92.2896 62.3599C92.2908 63.0497 92.6191 63.6803 93.1321 64.1371Z" clip-rule="evenodd"/><path fill="#000" fill-rule="evenodd" d="M88.5486 64.3123C88.846 63.844 89.2117 63.2158 89.2521 62.6547C89.3148 61.7826 88.8067 61.8553 88.3883 62.4638C88.093 62.8937 87.8713 63.6228 87.219 63.4415C86.4138 63.2182 86.6599 62.1353 86.2091 61.6208C85.0708 63.1498 87.2249 66.3961 88.5486 64.3123Z" clip-rule="evenodd"/><path fill="#000" fill-rule="evenodd" d="M90.2547 68.9909C90.7255 69.0927 91.9531 69.0553 91.5277 68.3343C90.9913 67.4263 89.2077 68.7645 90.2547 68.9909Z" clip-rule="evenodd"/><path fill="#000" fill-rule="evenodd" d="M106.748 41.9114C106.835 41.6547 106.716 41.6081 106.511 41.406C106.316 41.5856 106.565 41.7746 106.748 41.9114Z" clip-rule="evenodd"/><path fill="#000" fill-rule="evenodd" d="M115.53 88.3969C115.841 88.4462 115.941 88.282 115.83 87.904C115.34 87.8723 115.24 88.0366 115.53 88.3969Z" clip-rule="evenodd"/><path fill="#000" fill-rule="evenodd" d="M98.569 48.7423C98.9117 48.8989 98.7804 49.2204 98.7745 49.4919C98.9511 49.3002 99.3075 48.9495 99.1623 48.6741C98.9388 48.2494 98.3544 48.6442 98.569 48.7423Z" clip-rule="evenodd"/><path fill="#000" fill-rule="evenodd" d="M86.8991 43.3958C86.8468 43.2939 86.7946 43.192 86.7424 43.0901C86.5296 43.2609 86.2011 43.7124 86.5392 43.9324C86.6779 43.7641 86.7978 43.5854 86.8991 43.3958Z" clip-rule="evenodd"/><path fill="#000" fill-rule="evenodd" d="M91.0096 46.3925C91.436 46.7267 91.2315 45.7007 91.2187 45.6169C91.1554 45.7372 90.7944 46.2236 91.0096 46.3925Z" clip-rule="evenodd"/><path fill="#000" fill-rule="evenodd" d="M90.7734 45.8715C90.7409 45.7867 90.7081 45.7018 90.6756 45.6169C90.5027 45.777 90.2912 46.1036 90.5765 46.2908C90.6549 46.1597 90.7204 46.0199 90.7734 45.8715Z" clip-rule="evenodd"/><path fill="#000" fill-rule="evenodd" d="M93.4808 49.3954C93.5156 49.4274 93.5503 49.4596 93.585 49.4919C93.7257 49.2083 93.5658 48.9953 93.3004 48.9866C93.3192 49.1458 93.3794 49.282 93.4808 49.3954Z" clip-rule="evenodd"/><path fill="#000" fill-rule="evenodd" d="M82.0584 81.3022C82.2275 81.1871 82.381 81.0557 82.5191 80.9083C82.0186 80.6024 82.3185 81.2654 81.7161 80.8583C81.5863 81.0377 81.7983 81.4393 82.0584 81.3022Z" clip-rule="evenodd"/><path fill="#000" fill-rule="evenodd" d="M103.088 109.126C103.278 108.834 103.313 108.842 103.053 108.62C102.836 108.981 102.858 108.889 103.088 109.126Z" clip-rule="evenodd"/><path fill="#000" fill-rule="evenodd" d="M63.315 62.6441C63.4186 62.7521 63.5222 62.8602 63.6258 62.968C63.6742 62.8267 63.938 62.4271 63.7587 62.2942C63.611 62.4108 63.4629 62.5273 63.315 62.6441Z" clip-rule="evenodd"/><path fill="#000" fill-rule="evenodd" d="M66.9999 63.7134C66.8344 63.6858 66.4387 63.5652 66.3473 63.719C66.5893 63.9172 67.1353 63.7361 66.9999 63.7134Z" clip-rule="evenodd"/></svg>