<svg xmlns="http://www.w3.org/2000/svg" width="18" height="19" fill="none" viewBox="0 0 18 19"><path fill="#000" d="M9.16059 8.35243V11.1059H13.7147C13.5307 12.2869 12.339 14.568 9.16059 14.568C6.42049 14.568 4.1829 12.3003 4.1829 9.5C4.1829 6.69967 6.42116 4.43197 9.16059 4.43197C10.7197 4.43197 11.7642 5.09375 12.3624 5.6692L14.5398 3.56946C13.1413 2.26398 11.3279 1.47038 9.16059 1.47038C4.72089 1.47038 1.13098 5.06029 1.13098 9.5C1.13098 13.9397 4.72089 17.5296 9.16059 17.5296C13.795 17.5296 16.869 14.2716 16.869 9.68334C16.869 9.15606 16.8121 8.75324 16.7426 8.35243H9.16059Z"/></svg>