<svg width="25" height="23" viewBox="0 0 25 23" fill="none" xmlns="http://www.w3.org/2000/svg">
<g filter="url(#filter0_dd_144_2152)">
<path d="M15 7.5C16.3924 7.5 17.7277 8.05312 18.7123 9.03769C19.6969 10.0223 20.25 11.3576 20.25 12.75V18.875H16.75V12.75C16.75 12.2859 16.5656 11.8408 16.2374 11.5126C15.9092 11.1844 15.4641 11 15 11C14.5359 11 14.0908 11.1844 13.7626 11.5126C13.4344 11.8408 13.25 12.2859 13.25 12.75V18.875H9.75V12.75C9.75 11.3576 10.3031 10.0223 11.2877 9.03769C12.2723 8.05312 13.6076 7.5 15 7.5V7.5Z" fill="white"/>
<path d="M20.25 19.875C20.8023 19.875 21.25 19.4273 21.25 18.875V12.75C21.25 11.0924 20.5915 9.50269 19.4194 8.33058C18.2473 7.15848 16.6576 6.5 15 6.5C13.3424 6.5 11.7527 7.15848 10.5806 8.33058C9.40848 9.50269 8.75 11.0924 8.75 12.75V18.875C8.75 19.4273 9.19772 19.875 9.75 19.875H13.25C13.8023 19.875 14.25 19.4273 14.25 18.875V12.75C14.25 12.5511 14.329 12.3603 14.4697 12.2197C14.6103 12.079 14.8011 12 15 12C15.1989 12 15.3897 12.079 15.5303 12.2197C15.671 12.3603 15.75 12.5511 15.75 12.75V18.875C15.75 19.4273 16.1977 19.875 16.75 19.875H20.25Z" stroke="black" stroke-width="2" stroke-linecap="round" stroke-linejoin="round"/>
</g>
<g filter="url(#filter1_dd_144_2152)">
<path d="M6.25 8.375H2.75V18.875H6.25V8.375Z" fill="white"/>
<path d="M2.75 7.375C2.19772 7.375 1.75 7.82272 1.75 8.375V18.875C1.75 19.4273 2.19772 19.875 2.75 19.875H6.25C6.80228 19.875 7.25 19.4273 7.25 18.875V8.375C7.25 7.82272 6.80228 7.375 6.25 7.375H2.75Z" stroke="black" stroke-width="2" stroke-linecap="round" stroke-linejoin="round"/>
</g>
<g filter="url(#filter2_dd_144_2152)">
<path d="M4.5 5.75C5.4665 5.75 6.25 4.9665 6.25 4C6.25 3.0335 5.4665 2.25 4.5 2.25C3.5335 2.25 2.75 3.0335 2.75 4C2.75 4.9665 3.5335 5.75 4.5 5.75Z" fill="white"/>
<path d="M4.5 6.75C6.01878 6.75 7.25 5.51878 7.25 4C7.25 2.48122 6.01878 1.25 4.5 1.25C2.98122 1.25 1.75 2.48122 1.75 4C1.75 5.51878 2.98122 6.75 4.5 6.75Z" stroke="black" stroke-width="2" stroke-linecap="round" stroke-linejoin="round"/>
</g>
<defs>
<filter id="filter0_dd_144_2152" x="7.75" y="5.5" width="16.5" height="17.375" filterUnits="userSpaceOnUse" color-interpolation-filters="sRGB">
<feFlood flood-opacity="0" result="BackgroundImageFix"/>
<feColorMatrix in="SourceAlpha" type="matrix" values="0 0 0 0 0 0 0 0 0 0 0 0 0 0 0 0 0 0 127 0" result="hardAlpha"/>
<feOffset dx="1" dy="1"/>
<feComposite in2="hardAlpha" operator="out"/>
<feColorMatrix type="matrix" values="0 0 0 0 0 0 0 0 0 0 0 0 0 0 0 0 0 0 1 0"/>
<feBlend mode="normal" in2="BackgroundImageFix" result="effect1_dropShadow_144_2152"/>
<feColorMatrix in="SourceAlpha" type="matrix" values="0 0 0 0 0 0 0 0 0 0 0 0 0 0 0 0 0 0 127 0" result="hardAlpha"/>
<feOffset dx="2" dy="2"/>
<feComposite in2="hardAlpha" operator="out"/>
<feColorMatrix type="matrix" values="0 0 0 0 0 0 0 0 0 0 0 0 0 0 0 0 0 0 1 0"/>
<feBlend mode="normal" in2="effect1_dropShadow_144_2152" result="effect2_dropShadow_144_2152"/>
<feBlend mode="normal" in="SourceGraphic" in2="effect2_dropShadow_144_2152" result="shape"/>
</filter>
<filter id="filter1_dd_144_2152" x="0.75" y="6.375" width="9.5" height="16.5" filterUnits="userSpaceOnUse" color-interpolation-filters="sRGB">
<feFlood flood-opacity="0" result="BackgroundImageFix"/>
<feColorMatrix in="SourceAlpha" type="matrix" values="0 0 0 0 0 0 0 0 0 0 0 0 0 0 0 0 0 0 127 0" result="hardAlpha"/>
<feOffset dx="1" dy="1"/>
<feComposite in2="hardAlpha" operator="out"/>
<feColorMatrix type="matrix" values="0 0 0 0 0 0 0 0 0 0 0 0 0 0 0 0 0 0 1 0"/>
<feBlend mode="normal" in2="BackgroundImageFix" result="effect1_dropShadow_144_2152"/>
<feColorMatrix in="SourceAlpha" type="matrix" values="0 0 0 0 0 0 0 0 0 0 0 0 0 0 0 0 0 0 127 0" result="hardAlpha"/>
<feOffset dx="2" dy="2"/>
<feComposite in2="hardAlpha" operator="out"/>
<feColorMatrix type="matrix" values="0 0 0 0 0 0 0 0 0 0 0 0 0 0 0 0 0 0 1 0"/>
<feBlend mode="normal" in2="effect1_dropShadow_144_2152" result="effect2_dropShadow_144_2152"/>
<feBlend mode="normal" in="SourceGraphic" in2="effect2_dropShadow_144_2152" result="shape"/>
</filter>
<filter id="filter2_dd_144_2152" x="0.75" y="0.25" width="9.5" height="9.5" filterUnits="userSpaceOnUse" color-interpolation-filters="sRGB">
<feFlood flood-opacity="0" result="BackgroundImageFix"/>
<feColorMatrix in="SourceAlpha" type="matrix" values="0 0 0 0 0 0 0 0 0 0 0 0 0 0 0 0 0 0 127 0" result="hardAlpha"/>
<feOffset dx="1" dy="1"/>
<feComposite in2="hardAlpha" operator="out"/>
<feColorMatrix type="matrix" values="0 0 0 0 0 0 0 0 0 0 0 0 0 0 0 0 0 0 1 0"/>
<feBlend mode="normal" in2="BackgroundImageFix" result="effect1_dropShadow_144_2152"/>
<feColorMatrix in="SourceAlpha" type="matrix" values="0 0 0 0 0 0 0 0 0 0 0 0 0 0 0 0 0 0 127 0" result="hardAlpha"/>
<feOffset dx="2" dy="2"/>
<feComposite in2="hardAlpha" operator="out"/>
<feColorMatrix type="matrix" values="0 0 0 0 0 0 0 0 0 0 0 0 0 0 0 0 0 0 1 0"/>
<feBlend mode="normal" in2="effect1_dropShadow_144_2152" result="effect2_dropShadow_144_2152"/>
<feBlend mode="normal" in="SourceGraphic" in2="effect2_dropShadow_144_2152" result="shape"/>
</filter>
</defs>
</svg>
