<svg xmlns="http://www.w3.org/2000/svg" width="25" height="25" fill="none" viewBox="0 0 25 25"><path fill="#BDBDBD" d="M18.6062 6.16055V10.8204H15.901V6.21291C15.901 5.2181 15.0982 4.41527 14.1034 4.41527H10.6128C10.4558 4.41527 10.3161 4.43272 10.1765 4.46763C10.1242 4.48508 10.0544 4.50253 10.002 4.51999C9.94964 4.53744 9.89728 4.55489 9.84492 4.5898C9.79256 4.60725 9.7402 4.64216 9.7053 4.67706C9.3737 4.86904 9.1119 5.16574 8.97228 5.5148C8.95483 5.5497 8.95483 5.56715 8.93738 5.60206C8.90247 5.67187 8.88502 5.75914 8.86757 5.82895V5.86385C8.85011 5.96857 8.83266 6.07329 8.83266 6.19546V10.8204H6.14493V6.21291C6.14493 5.98602 6.16238 5.77659 6.19729 5.56715C6.21474 5.49734 6.21474 5.42753 6.23219 5.35772C6.23219 5.32282 6.24964 5.30536 6.24964 5.27046C6.28455 5.14829 6.302 5.00867 6.35436 4.8865C6.79068 3.49027 7.90766 2.37329 9.30389 1.93697C9.42605 1.90207 9.54822 1.86716 9.68785 1.83226C9.72275 1.83226 9.7402 1.8148 9.77511 1.8148C9.84492 1.79735 9.91473 1.79735 9.98454 1.7799C10.194 1.74499 10.4209 1.72754 10.6303 1.72754H14.1209C14.5572 1.72754 14.976 1.79735 15.36 1.90207C15.6043 1.97188 15.8312 2.05914 16.0407 2.16386C16.1803 2.23367 16.3199 2.30348 16.4595 2.39075C16.5293 2.42565 16.5642 2.4431 16.6166 2.47801C16.7388 2.54782 16.8435 2.63508 16.9482 2.7398C17.0529 2.82707 17.1576 2.93178 17.2624 3.01905C17.3671 3.12376 17.4543 3.22848 17.5416 3.3332C17.6812 3.50772 17.8034 3.68225 17.9081 3.85678C17.9779 3.97895 18.0477 4.10112 18.1175 4.24074C18.1874 4.36291 18.2397 4.50253 18.2921 4.64216C18.327 4.76433 18.3793 4.8865 18.4142 5.00867C18.519 5.37517 18.6062 5.75914 18.6062 6.16055V6.16055Z"/><path fill="#424242" d="M18.4841 5.27045C18.4666 5.18319 18.4492 5.07847 18.4142 4.99121C18.3793 4.86904 18.3444 4.74687 18.2921 4.6247C18.2397 4.48508 18.1874 4.36291 18.1176 4.22329C18.0477 4.10112 17.9779 3.96149 17.9081 3.83932C17.7859 3.6648 17.6638 3.49027 17.5416 3.31574C17.4543 3.21102 17.3496 3.10631 17.2624 3.00159C17.1576 2.89687 17.0529 2.80961 16.9482 2.72235C16.8435 2.63508 16.7213 2.54782 16.6166 2.46055C16.5643 2.42565 16.5293 2.40819 16.477 2.37329C16.3374 2.28603 16.1977 2.21621 16.0581 2.1464C15.8487 2.04169 15.6043 1.95442 15.3775 1.88461C15.3251 1.86716 15.2727 1.84971 15.2378 1.84971C14.8888 1.76244 14.5223 1.71008 14.1383 1.71008H10.6478C10.4732 1.71008 10.3161 1.71008 10.1591 1.74499C10.1067 1.74499 10.0544 1.76244 10.002 1.76244C9.93219 1.77989 9.86238 1.77989 9.79257 1.79735C9.75766 1.79735 9.74021 1.8148 9.7053 1.8148C9.58313 1.84971 9.44351 1.86716 9.32134 1.91952C7.92512 2.35584 6.80814 3.47282 6.37182 4.86904C6.33691 4.99121 6.30201 5.11338 6.2671 5.253C6.2671 5.28791 6.24965 5.30536 6.24965 5.34027C6.2322 5.41008 6.21474 5.47989 6.21474 5.5497C6.21474 5.60206 6.19729 5.65442 6.19729 5.70677C6.17984 5.86385 6.16238 6.03838 6.16238 6.19545V10.803H6.68597V6.21291C6.68597 4.03131 8.46615 2.25112 10.6478 2.25112H14.1383C16.3025 2.25112 18.0652 4.01385 18.0652 6.178V10.8204H18.5888V6.16055C18.5713 5.86385 18.5539 5.56715 18.4841 5.27045V5.27045ZM14.086 3.87423H10.6128C9.33879 3.87423 8.30908 4.90395 8.30908 6.178V10.803H8.83266V6.178C8.83266 6.12564 8.83266 6.05583 8.85011 6.00347C8.85011 5.95111 8.86757 5.89875 8.86757 5.8464C8.86757 5.82894 8.86757 5.82894 8.86757 5.81149C8.88502 5.72423 8.90247 5.65442 8.93738 5.5846C8.93738 5.5497 8.95483 5.53225 8.97228 5.49734C9.11191 5.14828 9.3737 4.83413 9.7053 4.64215C9.75766 4.60725 9.81002 4.58979 9.84492 4.55489C9.89728 4.53744 9.94964 4.50253 10.002 4.48508C10.0544 4.46763 10.1067 4.45017 10.1765 4.43272C10.3162 4.39781 10.4732 4.38036 10.6128 4.38036H14.086C15.0808 4.38036 15.8836 5.18319 15.8836 6.178V10.7855H16.4072V6.21291C16.4072 4.9214 15.3775 3.87423 14.086 3.87423V3.87423Z" opacity=".2"/><path fill="url(#paint0_linear_302_1049)" d="M19.1996 22.7233H5.55155C4.85344 22.7233 4.2775 22.1474 4.2775 21.4492V11.0823C4.2775 10.3842 4.85344 9.80823 5.55155 9.80823H19.1996C19.8978 9.80823 20.4737 10.3842 20.4737 11.0823V21.4492C20.4737 22.1474 19.8978 22.7233 19.1996 22.7233Z"/><path fill="#424242" d="M19.1996 10.3144C19.6185 10.3144 19.9501 10.646 19.9501 11.0648V21.4318C19.9501 21.8507 19.6185 22.1823 19.1996 22.1823H5.55155C5.13268 22.1823 4.80108 21.8507 4.80108 21.4318V11.0823C4.80108 10.6634 5.13268 10.3318 5.55155 10.3318L19.1996 10.3144ZM19.1996 9.79077H5.55155C4.85344 9.79077 4.2775 10.3667 4.2775 11.0648V21.4318C4.2775 22.1299 4.85344 22.7058 5.55155 22.7058H19.1996C19.8978 22.7058 20.4737 22.1299 20.4737 21.4318V11.0823C20.4737 10.3667 19.8978 9.79077 19.1996 9.79077Z" opacity=".2"/><defs><linearGradient id="paint0_linear_302_1049" x1="12.376" x2="12.376" y1="22.554" y2="9.861" gradientUnits="userSpaceOnUse"><stop offset=".005" stop-color="#FFA000"/><stop offset="1" stop-color="#FFC107"/></linearGradient></defs></svg>