<svg width="123" height="42" viewBox="0 0 123 42" fill="none" xmlns="http://www.w3.org/2000/svg">
<path d="M14.6145 30.42H18.2825C30.1265 30.42 32.5065 26.836 32.5065 23.14V22.748C32.5065 18.52 29.6506 16.56 21.5305 16.336L17.3305 16.224C14.1105 16.14 13.2985 15.748 13.2985 14.964V14.908C13.2985 14.208 13.8025 13.816 16.3225 13.816C19.0665 13.816 19.4585 14.824 19.5145 15.496H31.7225V15.356C31.7225 11.772 29.1185 8.80396 17.9465 8.80396H14.3905C4.31055 8.80396 1.17455 11.212 1.17455 15.132V15.384C1.17455 18.66 2.96655 21.712 11.5345 21.992L15.9305 22.132C19.5145 22.244 19.7945 22.944 19.7945 23.616V23.7C19.7945 24.456 19.0945 25.156 16.6025 25.156C13.6625 25.156 13.3265 23.812 13.2985 22.916H0.838547V23.14C0.838547 25.828 1.98655 30.42 14.6145 30.42Z" fill="black"/>
<path d="M43.5574 9.16796H33.3654V30H43.5574V9.16796Z" fill="black"/>
<path d="M58.6804 23.98C58.6804 25.156 57.7564 26.164 56.0204 26.164C54.7044 26.164 54.3404 25.464 54.3404 24.932V24.904C54.3404 24.316 54.7324 24.036 55.4324 23.84L58.6804 22.972V23.98ZM58.7644 28.096C58.9604 29.216 59.7444 30 61.3124 30H70.0764V25.044H69.2084C68.9284 25.044 68.8164 24.876 68.8164 24.568V19.416C68.8164 17.652 68.0884 14.572 57.3364 14.572H55.7404C45.4924 14.572 44.8204 17.484 44.8204 19.556V19.892H54.2844C54.3124 19.528 54.3684 18.66 56.5804 18.66H56.6364C58.3444 18.66 58.7084 19.136 58.7084 19.612V19.64C58.7084 19.948 58.5964 20.2 58.0364 20.256L50.1124 20.9C45.6604 21.264 44.4564 22.944 44.4564 25.016V25.576C44.4564 27.872 46.3044 30.28 51.3444 30.28H51.5124C55.7964 30.28 58.0084 28.796 58.7644 28.096Z" fill="black"/>
<path d="M84.5209 30.42C96.0569 30.42 96.5329 25.072 96.5329 23.168V23.084H86.2009C86.1729 23.588 85.8369 25.66 83.5409 25.66H83.4009C80.9929 25.66 80.6569 23.784 80.6569 22.272V22.244C80.6569 20.872 80.9929 19.192 83.4009 19.192H83.5409C85.8369 19.192 86.1729 21.068 86.2009 21.572H96.5329V21.488C96.5329 19.388 95.7769 14.516 84.5489 14.516H82.5329C70.8009 14.516 70.3249 19.528 70.3249 22.188V22.58C70.3249 25.296 70.8009 30.42 82.5609 30.42H84.5209Z" fill="black"/>
<path d="M107.596 30V23.588L111.376 30H122.576L117.396 21.208L121.624 14.936H110.928L107.596 20.396V9.16796H97.4044V30H107.596Z" fill="black"/>
</svg>
