<svg width="19" height="19" viewBox="0 0 19 19" fill="none" xmlns="http://www.w3.org/2000/svg">
<path d="M7.58443 16.969C4.70515 16.969 2.69307 14.8727 2.69307 11.8697V9.57473L2.41936 5.34924C2.39435 5.00051 2.48515 4.68995 2.67333 4.47282C2.8273 4.29517 3.04311 4.19253 3.29577 4.1741C3.32209 4.17279 3.34841 4.17147 3.37341 4.17147C3.909 4.17147 4.28405 4.57283 4.32747 5.19396C4.32747 5.19922 4.32879 5.2058 4.32879 5.21107L4.83674 8.36801C4.85253 8.46276 4.93412 8.53382 5.03019 8.53382C6.33823 8.5404 8.08317 8.70226 9.58203 8.95624C9.59256 8.95755 9.6044 8.95887 9.61493 8.95887C9.66099 8.95887 9.70573 8.94308 9.74126 8.91281C9.786 8.87597 9.81101 8.82201 9.81232 8.76411L9.9097 2.58444C9.93734 2.08438 10.2374 1.57117 10.844 1.57117C10.8638 1.57117 10.8835 1.57117 10.9046 1.57248C11.1822 1.58696 11.4125 1.70671 11.5691 1.91594C11.7218 2.12123 11.7968 2.40284 11.7797 2.70814L11.7178 9.16021C11.7152 9.4155 11.7323 9.64185 11.7704 9.85371C11.9481 10.8446 12.4087 11.0578 12.7127 11.1999C12.8443 11.2618 12.9206 11.2986 12.9548 11.3644C13.1864 11.8105 12.9943 12.9791 12.2731 14.1647C11.7626 15.0083 10.2795 16.969 7.58443 16.969V16.969Z" fill="url(#paint0_radial_302_1074)"/>
<path d="M10.8467 1.7699C10.8625 1.7699 10.8796 1.76991 10.8967 1.77122C11.0941 1.78175 11.2546 1.85413 11.3744 1.98704C11.5244 2.15416 11.602 2.4134 11.5862 2.69896V2.71738L11.5244 9.16024C11.5217 9.42738 11.5402 9.66556 11.581 9.89059C11.777 10.9815 12.3139 11.2315 12.6337 11.3802C12.689 11.4066 12.764 11.4408 12.785 11.4605C12.9509 11.7908 12.8508 12.8409 12.1073 14.0648C11.6112 14.878 10.1795 16.7717 7.58444 16.7717C6.18428 16.7717 4.99466 16.2782 4.14325 15.3452C3.33526 14.4595 2.89179 13.2265 2.89179 11.8698V9.57476C2.89179 9.56687 2.89179 9.55766 2.89047 9.54976L2.61675 5.33479C2.5957 5.04397 2.67071 4.77684 2.82336 4.60313C2.94442 4.46364 3.1076 4.386 3.31026 4.37284C3.33263 4.37152 3.35368 4.37021 3.37474 4.37021C3.88927 4.37021 4.10509 4.82289 4.1314 5.20978C4.13272 5.22162 4.13404 5.23347 4.13535 5.24399L4.64331 8.40094C4.67357 8.59175 4.83807 8.73256 5.03151 8.73256C6.32903 8.73914 8.06213 8.89968 9.55177 9.15235C9.57414 9.15629 9.5952 9.15761 9.61757 9.15761C9.70969 9.15761 9.79917 9.12603 9.87023 9.06681C9.9584 8.99312 10.011 8.88521 10.0124 8.76941L10.1097 2.59763C10.1321 2.21338 10.3387 1.7699 10.8467 1.7699M10.8467 1.37512C10.1768 1.37512 9.75311 1.9015 9.71495 2.58184L9.61757 8.76151C8.22267 8.52596 6.45799 8.34304 5.03283 8.33646L4.52487 5.17951C4.47618 4.49654 4.04324 3.97279 3.37342 3.97279C3.34315 3.97279 3.31289 3.97411 3.28131 3.97543C2.56017 4.02543 2.17065 4.64524 2.22197 5.3598L2.49569 9.57213V11.8671C2.49569 14.7806 4.41302 17.1638 7.58444 17.1638C11.7941 17.1638 13.7654 12.4922 13.1325 11.271C12.9311 10.8828 12.206 11.1447 11.9678 9.8169C11.9284 9.60108 11.9165 9.38 11.9178 9.16024L11.9797 2.71738C12.0179 2.0173 11.627 1.41592 10.9164 1.37644C10.8927 1.37512 10.869 1.37512 10.8467 1.37512V1.37512Z" fill="#4A2F27"/>
<path opacity="0.4" d="M7.56075 13.4187C9.56229 13.4187 11.1849 12.2127 11.1849 10.725C11.1849 9.23728 9.56229 8.03125 7.56075 8.03125C5.55921 8.03125 3.93665 9.23728 3.93665 10.725C3.93665 12.2127 5.55921 13.4187 7.56075 13.4187Z" fill="url(#paint1_radial_302_1074)"/>
<path d="M8.42402 11.9316C8.15951 11.9316 7.93185 11.8435 7.76605 11.675C7.58576 11.4921 7.48838 11.2276 7.49233 10.9289L7.38705 8.16805C7.39363 7.6193 7.88974 7.16267 8.49245 7.16003C8.80301 7.16003 9.08331 7.27452 9.28728 7.48112C9.47019 7.66667 9.5702 7.90881 9.56626 8.16278L9.3965 10.9039C9.3886 11.5105 8.99119 11.929 8.42797 11.9316H8.42402Z" fill="url(#paint2_radial_302_1074)"/>
<path d="M8.49637 6.96265V7.35743C8.74903 7.35743 8.97932 7.45086 9.14645 7.6193C9.28989 7.76537 9.36884 7.95355 9.36884 8.15094L9.19908 10.8907C9.19908 10.8973 9.19909 10.9039 9.19777 10.9105C9.19251 11.3184 8.953 11.7303 8.42268 11.7329C8.20818 11.7329 8.03448 11.6658 7.90551 11.5355C7.76208 11.3908 7.68575 11.1763 7.68838 10.9302V10.9105L7.58442 8.17068C7.59495 7.72326 8.00026 7.35875 8.49374 7.35743L8.49637 6.96265ZM8.49637 6.96265H8.49111C7.7805 6.96528 7.19754 7.50876 7.18832 8.17463L7.2936 10.9263C7.2857 11.5908 7.71602 12.129 8.42268 12.129H8.42794C9.13855 12.1264 9.58466 11.5829 9.59255 10.9171L9.76362 8.16542C9.77284 7.49955 9.20566 6.96265 8.49637 6.96265V6.96265Z" fill="#4A2F27"/>
<path d="M6.16454 11.7514C5.64474 11.7514 5.25128 11.379 5.18811 10.8236L4.78938 8.56022C4.76175 8.31151 4.83807 8.05227 5.00651 7.84303C5.19206 7.61274 5.47499 7.46272 5.78423 7.43114C5.82503 7.42719 5.86714 7.42456 5.90793 7.42456C6.48168 7.42456 6.95937 7.82329 7.01991 8.3523L7.13966 10.592C7.1765 10.9131 7.10281 11.2 6.93305 11.4106C6.77909 11.6014 6.55538 11.7172 6.28692 11.7448C6.24481 11.7501 6.20402 11.7514 6.16454 11.7514V11.7514Z" fill="url(#paint3_radial_302_1074)"/>
<path d="M5.90663 7.62464C6.37511 7.62464 6.76726 7.9431 6.82121 8.36683L6.94228 10.6053C6.94228 10.6131 6.94359 10.621 6.94491 10.6289C6.97386 10.8855 6.91596 11.1198 6.7791 11.2895C6.65935 11.4382 6.4817 11.529 6.26588 11.5501C6.23167 11.554 6.19746 11.5554 6.16456 11.5554C5.74345 11.5554 5.43684 11.2606 5.3842 10.8026L5.38025 10.779L4.98547 8.54054C4.96442 8.33657 5.02627 8.13391 5.15918 7.9681C5.31183 7.77861 5.54606 7.65491 5.80267 7.62859C5.8382 7.62596 5.87242 7.62464 5.90663 7.62464M5.90663 7.22986C5.85926 7.22986 5.81188 7.23249 5.76319 7.23644C5.03942 7.31013 4.51568 7.9181 4.59464 8.59581L4.99205 10.8474C5.06443 11.4804 5.5158 11.9488 6.16456 11.9488C6.21061 11.9488 6.25799 11.9462 6.30536 11.9423C7.02913 11.8686 7.4147 11.2606 7.33706 10.5829L7.21599 8.3313C7.1423 7.69833 6.57118 7.22986 5.90663 7.22986V7.22986Z" fill="#4A2F27"/>
<path d="M15.5341 9.37749C16.521 9.55909 17.2777 10.1829 17.1724 10.8987C17.0922 11.4422 16.6855 11.8449 15.9144 11.7422C14.5853 11.5646 13.5496 12.1791 13.1088 13.1042C12.5574 14.2623 11.8086 15.2913 11.481 15.4137C10.0677 15.9427 8.80566 14.9216 8.99516 13.2845C9.1965 11.5409 11.2494 10.3184 11.785 10.0618C12.5561 9.69069 13.9878 9.09456 15.5341 9.37749V9.37749Z" fill="url(#paint4_radial_302_1074)"/>
<path d="M15.5341 9.37753C15.2525 9.3262 14.9748 9.30383 14.705 9.30383C13.4891 9.30383 12.4166 9.75783 11.7837 10.0618C11.5428 10.1776 10.7112 10.7198 10.1624 11.1869C10.5072 11.2685 11.7771 10.5027 11.9547 10.4171C12.3245 10.2395 13.4496 9.69862 14.705 9.69862C14.963 9.69862 15.2183 9.72099 15.463 9.76573C16.2697 9.91311 16.8487 10.3855 16.7816 10.8409C16.7303 11.1883 16.5171 11.3633 16.146 11.3633C16.0894 11.3633 16.0289 11.3593 15.9657 11.3501C15.7973 11.3278 15.6275 11.3159 15.463 11.3159C14.2655 11.3159 13.2259 11.9357 12.7509 12.9332C12.5732 13.3056 12.3864 13.6754 12.1679 14.0268C12.064 14.1939 11.956 14.3571 11.8284 14.5071C11.6521 14.7137 11.4665 14.9124 11.2783 15.1085C11.1836 15.2072 11.0888 15.3045 10.9941 15.4019C10.9454 15.4519 10.8993 15.5085 10.8467 15.5532C10.823 15.573 10.752 15.6493 10.7256 15.6506C10.9072 15.6388 11.5534 16.1441 13.1062 13.1016C13.5181 12.295 14.3511 11.7094 15.4617 11.7094C15.6078 11.7094 15.7578 11.7199 15.9118 11.7396C15.9934 11.7502 16.071 11.7554 16.1434 11.7554C16.7645 11.7554 17.0974 11.3817 17.1698 10.8961C17.2777 10.1842 16.5211 9.55913 15.5341 9.37753V9.37753Z" fill="#4A2E26"/>
<defs>
<radialGradient id="paint0_radial_302_1074" cx="0" cy="0" r="1" gradientUnits="userSpaceOnUse" gradientTransform="translate(7.54201 2.22541) rotate(90.1261) scale(15.0563 6.71652)">
<stop offset="0.2457" stop-color="#5C4037"/>
<stop offset="0.6884" stop-color="#70534A"/>
<stop offset="0.9991" stop-color="#5C4037"/>
</radialGradient>
<radialGradient id="paint1_radial_302_1074" cx="0" cy="0" r="1" gradientUnits="userSpaceOnUse" gradientTransform="translate(7.56128 10.7249) scale(3.88874 2.37058)">
<stop offset="0.3" stop-color="#70534A" stop-opacity="0.8"/>
<stop offset="1" stop-color="#70534A" stop-opacity="0"/>
</radialGradient>
<radialGradient id="paint2_radial_302_1074" cx="0" cy="0" r="1" gradientUnits="userSpaceOnUse" gradientTransform="translate(8.47877 7.86192) rotate(90.3909) scale(3.83232 1.30775)">
<stop offset="0.6064" stop-color="#70534A"/>
<stop offset="0.9991" stop-color="#5C4037"/>
</radialGradient>
<radialGradient id="paint3_radial_302_1074" cx="0" cy="0" r="1" gradientUnits="userSpaceOnUse" gradientTransform="translate(5.98465 9.1874) scale(1.92904)">
<stop offset="0.6064" stop-color="#70534A"/>
<stop offset="0.9991" stop-color="#5C4037"/>
</radialGradient>
<radialGradient id="paint4_radial_302_1074" cx="0" cy="0" r="1" gradientUnits="userSpaceOnUse" gradientTransform="translate(11.6846 7.64839) rotate(163.581) scale(8.70997 9.77632)">
<stop stop-color="#70534A"/>
<stop offset="0.9991" stop-color="#5C4037"/>
</radialGradient>
</defs>
</svg>
