<svg width="17" height="17" viewBox="0 0 17 17" fill="none" xmlns="http://www.w3.org/2000/svg">
<g clip-path="url(#clip0_302_411)">
<path d="M8.60474 0.694362C8.06173 0.694362 7.54096 0.910073 7.15699 1.29404C6.77302 1.67801 6.55731 2.19878 6.55731 2.74179V8.20161C6.55731 8.74462 6.77302 9.26539 7.15699 9.64936C7.54096 10.0333 8.06173 10.249 8.60474 10.249C9.14776 10.249 9.66853 10.0333 10.0525 9.64936C10.4365 9.26539 10.6522 8.74462 10.6522 8.20161V2.74179C10.6522 2.19878 10.4365 1.67801 10.0525 1.29404C9.66853 0.910073 9.14776 0.694362 8.60474 0.694362V0.694362Z" stroke="black" stroke-width="1.02372" stroke-linecap="round" stroke-linejoin="round"/>
<path d="M13.3821 6.83665V8.20161C13.3821 9.46864 12.8788 10.6838 11.9829 11.5797C11.0869 12.4756 9.87179 12.9789 8.60476 12.9789C7.33773 12.9789 6.1226 12.4756 5.22667 11.5797C4.33075 10.6838 3.82742 9.46864 3.82742 8.20161V6.83665" stroke="black" stroke-width="1.02372" stroke-linecap="round" stroke-linejoin="round"/>
<path d="M8.60474 12.9789V15.7089" stroke="black" stroke-width="1.02372" stroke-linecap="round" stroke-linejoin="round"/>
<path d="M5.87485 15.7089H11.3347" stroke="black" stroke-width="1.02372" stroke-linecap="round" stroke-linejoin="round"/>
</g>
<defs>
<clipPath id="clip0_302_411">
<rect width="16.3794" height="16.3794" fill="white" transform="translate(0.415009 0.0118847)"/>
</clipPath>
</defs>
</svg>
