<svg width="74" height="74" viewBox="0 0 74 74" fill="none" xmlns="http://www.w3.org/2000/svg">
<path fill-rule="evenodd" clip-rule="evenodd" d="M46.0658 35.5399C46.2533 35.7275 46.4722 36.3214 46.7535 36.6653C39.8764 41.0724 24.7784 50.7946 16.3383 57.0153C19.4955 60.1408 23.4655 62.5482 27.9981 63.8924C42.7214 68.2062 58.257 59.7036 62.5709 44.9799C64.5407 38.2903 63.853 31.4762 61.1651 25.5993C59.0394 27.5374 56.6003 29.5068 53.9749 31.4762C53.8807 31.5074 53.819 31.5699 53.7248 31.6325C51.6617 33.1954 49.5043 34.7584 47.2541 36.2901C47.0353 35.915 46.7852 35.5399 46.5664 35.1648C48.1294 34.0707 49.6615 33.0079 51.1615 31.9451L51.2245 31.8825C52.9433 30.6634 54.6001 29.4755 56.1318 28.2564C53.0063 30.1007 49.7236 31.5699 46.4726 32.7886C46.4422 32.1947 46.5039 31.6008 46.4726 31.0381C46.1292 31.3194 45.7228 31.6008 45.3785 31.8821C44.9096 31.8508 44.6287 31.6633 44.1286 31.5382C43.753 31.0381 43.3779 30.5692 43.0032 30.1003C48.0048 27.9746 53.2247 25.1925 58.7264 21.2538C55.1086 16.0124 49.8009 12.1721 43.6909 10.375C28.9672 6.0612 13.4312 14.5326 9.08606 29.2875C7.80442 33.6952 7.64812 38.1336 8.46087 42.3853C10.1176 41.5092 11.7431 40.7286 13.4312 40.0409V40.6031L12.7747 41.5096C11.3592 41.9427 9.96174 42.433 8.58591 42.9793C9.68043 48.0746 12.2125 52.7631 15.8069 56.4834C23.4963 50.2315 38.1258 40.4477 46.0658 35.5399V35.5399Z" fill="black"/>
<path fill-rule="evenodd" clip-rule="evenodd" d="M20.6832 37.4467C20.6207 37.4467 20.5581 37.478 20.4644 37.5097L20.6832 37.8531V37.4467V37.4467Z" fill="black"/>
<path fill-rule="evenodd" clip-rule="evenodd" d="M16.807 38.728C16.1958 38.9387 15.5911 39.1681 14.9939 39.4157V40.8536C15.8379 40.6348 16.7445 40.3848 17.651 40.1659L16.807 38.728V38.728ZM13.431 40.0413C9.86736 41.5101 6.4288 43.2923 3.08401 45.7306C5.92864 43.9488 9.2109 42.6354 12.7745 41.5101L13.3997 40.5723L13.431 40.0413ZM43.003 30.1012C43.3777 30.5701 43.7528 31.0698 44.0971 31.5391C44.6289 31.6954 44.9094 31.8517 45.3783 31.883C45.7226 31.6017 46.129 31.3203 46.4724 31.039C46.5037 31.6329 46.442 32.2269 46.4724 32.7895C49.7234 31.5704 53.0061 30.1016 56.1316 28.2881C54.6003 29.476 52.9431 30.6639 51.2243 31.883L51.1613 31.9455C49.6613 33.0083 48.1292 34.0712 46.5662 35.1653C46.785 35.5404 47.0351 35.9155 47.2539 36.2906C49.4729 34.7589 51.6615 33.1959 53.7246 31.6329C53.8189 31.5704 53.8805 31.5079 53.9747 31.4766C63.2896 24.4119 70.5423 17.2535 70.917 10.8448C60.7576 20.8792 51.5673 26.4434 43.003 30.1012V30.1012ZM26.8726 38.1032L26.9664 37.7911C26.5287 37.1342 26.1224 36.5402 25.7473 35.9463C24.5594 36.2902 23.4028 36.634 22.2462 36.9774V39.1031C23.7466 38.7593 25.3096 38.4475 26.8726 38.1032V38.1032ZM46.0343 35.5399C46.2531 35.7588 46.472 36.3214 46.7533 36.6653C37.6572 42.4796 14.3687 57.453 10.7735 61.6417C11.3991 58.3595 35.1564 42.292 46.0343 35.5399V35.5399ZM26.5287 35.6962C26.7476 36.1026 26.9976 36.509 27.2165 36.8841L27.6541 35.3836C27.279 35.4774 26.9039 35.6025 26.5287 35.6962ZM38.3766 35.4149C38.3136 35.2586 38.3136 35.071 38.3136 34.8835C38.3449 33.258 39.9704 31.5074 42.0965 31.4137C42.4712 31.3824 42.7842 31.3824 43.0647 31.3824C42.8146 31.0385 42.5337 30.726 42.2524 30.4134C39.2514 31.6637 36.3755 32.6953 33.5309 33.6018L34.5 36.4152C35.7816 36.1026 37.0632 35.7588 38.3766 35.4149V35.4149Z" fill="black"/>
<path fill-rule="evenodd" clip-rule="evenodd" d="M44.6284 33.4768C44.531 33.318 44.4155 33.1712 44.2841 33.0391C42.8145 32.6953 41.5962 33.1329 41.5962 33.7269C41.5962 34.0082 41.7208 34.1958 41.9396 34.3521C42.8462 34.0707 43.7523 33.7894 44.6284 33.4768V33.4768Z" fill="black"/>
<path fill-rule="evenodd" clip-rule="evenodd" d="M51.8181 31.4762L51.1616 31.9451C50.8803 31.6638 50.6615 31.445 50.6615 31.4762H51.8181ZM39.3763 39.7913C39.0959 39.9788 38.8453 40.166 38.564 40.3535C38.5327 39.8542 38.5953 39.3536 38.564 38.8535C38.7516 39.2282 38.9704 39.5099 39.3763 39.7913ZM32.9373 45.6364L33.7813 45.0742C34.6878 45.8248 35.5318 46.4808 36.0945 46.8243C37.2819 47.6687 36.7509 48.5127 36.4071 48.6998C36.032 48.9187 35.0317 48.7311 34.594 47.8875C34.469 47.5745 33.7188 46.5742 33.0311 45.7619C33.0077 45.7147 32.9759 45.6722 32.9373 45.6364V45.6364ZM43.378 38.791C44.5976 38.0099 45.6912 37.2909 46.6607 36.7283C47.1917 37.2909 47.536 38.0407 47.536 38.9169C47.5989 40.6987 45.254 41.9178 43.3155 42.0424C41.4091 42.167 40.9089 42.0424 39.8457 41.699C39.471 41.9795 38.9391 42.2612 38.5644 42.5743C38.5332 42.3554 38.5644 42.1054 38.5644 41.8865C39.3329 41.3925 40.1039 40.9026 40.8777 40.4169C42.2218 40.7916 43.6285 40.7299 43.8786 39.9793C44.0657 39.3853 43.8156 39.041 43.378 38.791V38.791Z" fill="white"/>
<path fill-rule="evenodd" clip-rule="evenodd" d="M46.7536 36.6652C47.7226 38.197 48.5666 39.7287 49.161 41.1041L48.192 41.9173H49.5361C49.9738 43.0426 50.2551 44.0425 50.3493 44.824C50.7557 48.1996 51.2558 49.8568 49.8492 51.6699C48.6613 53.1395 46.6924 53.3896 42.003 51.7328C44.3162 53.5459 50.6932 54.9213 51.3179 49.5442C51.5993 47.3565 51.0991 44.6686 50.068 41.9177H52.0999L51.0678 40.7611L51.4434 39.3857H54.819L55.2566 40.7299L54.2255 41.9177H60.8838L59.3517 40.5423L56.2574 31.477H53.9754C53.2649 31.9953 52.5563 32.5163 51.8498 33.04L49.5991 40.7299C48.5367 38.2291 47.0983 35.7596 45.4728 33.4464C45.8475 33.6339 46.1293 33.884 46.4727 34.1966C46.4727 33.165 46.5039 32.0709 46.4727 31.0394C46.1293 31.3207 45.7229 31.602 45.3473 31.8834C44.9097 31.8521 44.5975 31.6958 44.0974 31.5395C42.722 29.6952 41.2211 27.9759 39.721 26.5692C33.5933 20.7228 27.6231 17.0967 23.5902 19.4412C19.5264 21.8169 22.9963 30.9135 24.8406 34.352C25.3407 35.3523 26.1222 36.5402 26.9662 37.7906L26.091 40.6973L24.7155 41.9169H28.623L27.5602 40.6973L27.9665 39.3848H27.9978C29.7171 41.8543 31.4989 44.1359 32.0616 44.6981C32.2804 44.5422 32.5304 44.3547 32.7493 44.1988C32.3429 43.8545 31.9365 43.4798 31.5927 43.1043C31.0925 42.6354 30.0297 41.26 28.7793 39.3853H31.3426L31.7802 40.6665L30.7174 41.9173H36.2191C36.4379 41.7606 36.688 41.573 36.9068 41.4484L35.8752 40.4793L32.7493 31.4766H27.185C27.1538 31.3828 28.4667 32.727 28.4667 32.727L27.2163 36.9157C25.2469 33.6335 23.2463 29.6323 22.6524 26.35C21.4645 20.0668 24.9344 17.8786 31.0612 20.817C34.8437 22.6613 39.3446 26.7564 43.0333 31.3828C42.784 31.3828 42.471 31.3828 42.0963 31.4141C39.9707 31.5078 38.3447 33.2584 38.2822 34.8839C38.251 36.5094 40.3141 37.5718 41.5332 38.0719C41.6274 38.1032 41.7208 38.1661 41.8146 38.1974C43.1587 37.3221 44.4087 36.5719 45.5653 35.8529C45.2848 35.6966 44.9718 35.5403 44.6588 35.4153C43.0333 34.7901 41.6274 34.6338 41.5645 33.7273C41.5957 33.1333 42.8144 32.6957 44.3153 33.0396L46.0654 35.5403L46.7536 36.6652V36.6652Z" fill="white"/>
<path fill-rule="evenodd" clip-rule="evenodd" d="M12.3683 31.4761H16.9635L20.6834 37.8527V32.6953L19.7143 31.4761H23.2779L22.2464 32.6327V40.4477L23.403 41.9173H18.6515L14.9941 35.6962V40.8853L16.0882 41.9173H12.4309L13.3999 40.5723L13.4312 32.7265L12.3683 31.4761Z" fill="white"/>
<path fill-rule="evenodd" clip-rule="evenodd" d="M28.4355 37.9786H30.6862L29.4983 34.3212C29.4983 34.3208 28.498 37.9469 28.4355 37.9786Z" fill="black"/>
<path fill-rule="evenodd" clip-rule="evenodd" d="M29.6545 34.7896C29.5517 34.8252 29.4474 34.8565 29.3419 34.8834C29.1231 35.6962 28.6855 37.1966 28.4979 37.7597C29.1544 37.603 29.8421 37.4467 30.4673 37.3221L29.6545 34.7896Z" fill="#ADACAC"/>
<path fill-rule="evenodd" clip-rule="evenodd" d="M51.9115 37.9786H54.1622L52.9744 34.3837C52.9744 34.3833 51.9745 37.9469 51.9115 37.9786Z" fill="black"/>
</svg>
