<svg width="74" height="74" viewBox="0 0 74 74" fill="none" xmlns="http://www.w3.org/2000/svg">
<path d="M62.0358 44.1185H61.7697C60.7671 46.869 59.193 49.3759 57.1511 51.4739C55.1093 53.5719 52.6461 55.2134 49.9237 56.2903V44.1185L56.5595 38.1941L49.9237 32.2698V23.9778C52.7132 23.9855 55.394 22.8969 57.3884 20.9467C59.3828 18.9965 60.5311 16.3408 60.586 13.5518C60.586 6.41384 53.7738 3.89694 49.9237 3.89694C48.9264 3.87754 47.9308 3.98705 46.9616 4.22275V4.57843H48.4712C49.0193 4.48174 49.5816 4.50054 50.1221 4.63363C50.6626 4.76671 51.1693 5.01115 51.6099 5.3513C52.0505 5.69146 52.4152 6.11983 52.6807 6.60902C52.9463 7.09822 53.1068 7.63745 53.152 8.19223C53.1307 8.7013 53.0093 9.20118 52.7947 9.66329C52.58 10.1254 52.2765 10.5407 51.9012 10.8854C51.526 11.2301 51.0865 11.4974 50.6079 11.6722C50.1293 11.8469 49.621 11.9256 49.1119 11.9038L48.9463 11.8929C42.3106 11.8929 34.4938 6.50344 25.9928 6.50344C22.797 6.33284 19.6626 7.42746 17.2678 9.55043C14.8729 11.6734 13.4104 14.654 13.1965 17.8471C13.0974 19.8611 13.7199 21.8444 14.9522 23.4405C16.1844 25.0365 17.9456 26.1407 19.9191 26.5545V26.2287C19.307 25.8349 18.8131 25.2826 18.49 24.6304C18.1668 23.9783 18.0264 23.2508 18.0837 22.5253C18.1803 21.2011 18.7989 19.9694 19.8035 19.1013C20.8081 18.2332 22.1164 17.7996 23.4406 17.896L23.5329 17.9069C30.6709 17.9069 42.1911 23.8312 49.3291 23.8312H49.5952V32.3621L42.9595 38.2864L49.5952 44.2108V56.5618C46.9391 57.4369 44.1567 57.8671 41.3603 57.8352C36.8185 58.0642 32.3537 56.5972 28.8328 53.7191L40.858 48.3296V24.1245L24.0352 31.5286C24.8297 29.1791 26.1071 27.022 27.7854 25.196C29.4636 23.37 31.5055 21.9155 33.7797 20.9261V20.66C21.5183 23.386 11.6842 32.1802 11.6842 44.295C11.6842 58.3945 22.6125 69.0567 38.3411 69.0567C54.6616 69.0567 62.0358 57.2107 62.0358 45.1258V44.1185ZM28.3305 53.2711C26.5003 51.4415 25.0707 49.2511 24.1326 46.8392C23.1944 44.4273 22.7683 41.8466 22.8813 39.2612C22.8374 36.8729 23.1775 34.4931 23.8886 32.2128L29.4573 29.666V52.6792L28.3305 53.2711Z" fill="black"/>
</svg>
