<svg xmlns="http://www.w3.org/2000/svg" width="22" height="22" fill="none" viewBox="0 0 22 22"><path fill="#F44336" d="M15.0994 3.22314C12.122 3.22314 11.0281 6.26577 11.0281 6.26577C11.0281 6.26577 9.94907 3.22314 6.95129 3.22314C4.6982 3.22314 2.12984 5.00877 3.07837 9.06786C4.0269 13.127 11.0362 18.1835 11.0362 18.1835C11.0362 18.1835 18.0197 13.127 18.9696 9.06786C19.9181 5.00877 17.5346 3.22314 15.0994 3.22314V3.22314Z"/><path fill="#C33" d="M6.492 3.52618C8.82935 3.52618 9.98986 6.03883 10.3649 7.05666C10.4179 7.20206 10.6204 7.20614 10.6816 7.06481L11.024 6.26441C10.5416 4.72339 9.21528 3.22314 6.95132 3.22314C6.01366 3.22314 5.02301 3.53298 4.2525 4.18662C4.93332 3.73953 5.73101 3.52618 6.492 3.52618V3.52618Z"/><path fill="#C33" d="M15.0994 3.22314C14.3805 3.22314 13.7255 3.37942 13.2146 3.69469C13.5733 3.55608 14.0177 3.52618 14.458 3.52618C16.6608 3.52618 18.6326 5.1963 17.7425 9.05699C16.9788 12.3714 12.5161 16.3924 11.1531 17.9267C11.0661 18.0245 11.0362 18.1821 11.0362 18.1821C11.0362 18.1821 18.0197 13.1256 18.9696 9.0665C19.9181 5.00877 17.5387 3.22314 15.0994 3.22314V3.22314Z"/><path fill="#FF8A80" d="M4.64251 5.37702C5.1521 4.74104 6.06258 4.21514 6.83444 4.82122C7.25163 5.14872 7.06954 5.82003 6.69583 6.10268C6.15227 6.51579 5.67936 6.76448 5.34779 7.41132C5.14938 7.79997 5.0298 8.22531 4.96865 8.65881C4.94419 8.83003 4.71996 8.87216 4.63571 8.72132C4.06225 7.70485 3.89918 6.30516 4.64251 5.37702Z"/><path fill="#FF8A80" d="M12.8124 6.71418C12.5732 6.71418 12.4047 6.48316 12.4917 6.2603C12.6534 5.84991 12.8626 5.4531 13.114 5.09978C13.4864 4.57796 14.1944 4.27356 14.6428 4.59019C15.1021 4.91361 15.0424 5.56046 14.7203 5.87301C14.0286 6.54296 13.1562 6.71418 12.8124 6.71418Z"/></svg>