<svg xmlns="http://www.w3.org/2000/svg" width="52" height="52" fill="none" viewBox="0 0 52 52"><g filter="url(#filter0_d_142_1144)"><path fill="#FFC700" d="M11.2803 31.236C11.2803 33.9951 9.05034 36.225 6.29128 36.225C3.53223 36.225 1.30231 33.9951 1.30231 31.236C1.30231 28.477 3.53223 26.2471 6.29128 26.2471H11.2803V31.236ZM13.7747 31.236C13.7747 28.477 16.0047 26.2471 18.7637 26.2471C21.5228 26.2471 23.7527 28.477 23.7527 31.236V43.7085C23.7527 46.4675 21.5228 48.6975 18.7637 48.6975C16.0047 48.6975 13.7747 46.4675 13.7747 43.7085V31.236Z"/><path stroke="#000" stroke-width="2.118" d="M11.2803 31.236C11.2803 33.9951 9.05034 36.225 6.29128 36.225C3.53223 36.225 1.30231 33.9951 1.30231 31.236C1.30231 28.477 3.53223 26.2471 6.29128 26.2471H11.2803V31.236ZM13.7747 31.236C13.7747 28.477 16.0047 26.2471 18.7637 26.2471C21.5228 26.2471 23.7527 28.477 23.7527 31.236V43.7085C23.7527 46.4675 21.5228 48.6975 18.7637 48.6975C16.0047 48.6975 13.7747 46.4675 13.7747 43.7085V31.236Z"/></g><g filter="url(#filter1_d_142_1144)"><path fill="#69D3FA" d="M18.7637 11.2045C16.0047 11.2045 13.7748 8.97459 13.7748 6.21554C13.7748 3.45648 16.0047 1.22656 18.7637 1.22656C21.5228 1.22656 23.7527 3.45648 23.7527 6.21554V11.2045H18.7637ZM18.7637 13.7368C21.5228 13.7368 23.7527 15.9667 23.7527 18.7258C23.7527 21.4848 21.5228 23.7147 18.7637 23.7147H6.2535C3.49445 23.7147 1.26453 21.4848 1.26453 18.7258C1.26453 15.9667 3.49445 13.7368 6.2535 13.7368H18.7637Z"/><path stroke="#000" stroke-width="2.118" d="M18.7637 11.2045C16.0047 11.2045 13.7748 8.97459 13.7748 6.21554C13.7748 3.45648 16.0047 1.22656 18.7637 1.22656C21.5228 1.22656 23.7527 3.45648 23.7527 6.21554V11.2045H18.7637ZM18.7637 13.7368C21.5228 13.7368 23.7527 15.9667 23.7527 18.7258C23.7527 21.4848 21.5228 23.7147 18.7637 23.7147H6.2535C3.49445 23.7147 1.26453 21.4848 1.26453 18.7258C1.26453 15.9667 3.49445 13.7368 6.2535 13.7368H18.7637Z"/></g><g filter="url(#filter2_d_142_1144)"><path fill="#69D3FA" d="M38.7574 18.7258C38.7574 15.9667 40.9874 13.7368 43.7464 13.7368C46.5055 13.7368 48.7354 15.9667 48.7354 18.7258C48.7354 21.4848 46.5055 23.7147 43.7464 23.7147H38.7574V18.7258ZM36.263 18.7258C36.263 21.4848 34.033 23.7147 31.274 23.7147C28.5149 23.7147 26.285 21.4848 26.285 18.7258V6.21554C26.285 3.45648 28.5149 1.22656 31.274 1.22656C34.033 1.22656 36.263 3.45648 36.263 6.21554V18.7258V18.7258Z"/><path stroke="#000" stroke-width="2.118" d="M38.7574 18.7258C38.7574 15.9667 40.9874 13.7368 43.7464 13.7368C46.5055 13.7368 48.7354 15.9667 48.7354 18.7258C48.7354 21.4848 46.5055 23.7147 43.7464 23.7147H38.7574V18.7258ZM36.263 18.7258C36.263 21.4848 34.033 23.7147 31.274 23.7147C28.5149 23.7147 26.285 21.4848 26.285 18.7258V6.21554C26.285 3.45648 28.5149 1.22656 31.274 1.22656C34.033 1.22656 36.263 3.45648 36.263 6.21554V18.7258V18.7258Z"/></g><g filter="url(#filter3_d_142_1144)"><path fill="#FFC700" d="M31.274 38.7195C34.033 38.7195 36.263 40.9494 36.263 43.7085C36.263 46.4675 34.033 48.6975 31.274 48.6975C28.5149 48.6975 26.285 46.4675 26.285 43.7085V38.7195H31.274ZM31.274 36.225C28.5149 36.225 26.285 33.9951 26.285 31.236C26.285 28.477 28.5149 26.2471 31.274 26.2471H43.7842C46.5433 26.2471 48.7732 28.477 48.7732 31.236C48.7732 33.9951 46.5433 36.225 43.7842 36.225H31.274Z"/><path stroke="#000" stroke-width="2.118" d="M31.274 38.7195C34.033 38.7195 36.263 40.9494 36.263 43.7085C36.263 46.4675 34.033 48.6975 31.274 48.6975C28.5149 48.6975 26.285 46.4675 26.285 43.7085V38.7195H31.274ZM31.274 36.225C28.5149 36.225 26.285 33.9951 26.285 31.236C26.285 28.477 28.5149 26.2471 31.274 26.2471H43.7842C46.5433 26.2471 48.7732 28.477 48.7732 31.236C48.7732 33.9951 46.5433 36.225 43.7842 36.225H31.274Z"/></g><defs><filter id="filter0_d_142_1144" width="25.98" height="25.98" x=".243" y="25.188" color-interpolation-filters="sRGB" filterUnits="userSpaceOnUse"><feFlood flood-opacity="0" result="BackgroundImageFix"/><feColorMatrix in="SourceAlpha" result="hardAlpha" type="matrix" values="0 0 0 0 0 0 0 0 0 0 0 0 0 0 0 0 0 0 127 0"/><feOffset dx="1.412" dy="1.412"/><feComposite in2="hardAlpha" operator="out"/><feColorMatrix type="matrix" values="0 0 0 0 0 0 0 0 0 0 0 0 0 0 0 0 0 0 1 0"/><feBlend in2="BackgroundImageFix" mode="normal" result="effect1_dropShadow_142_1144"/><feBlend in="SourceGraphic" in2="effect1_dropShadow_142_1144" mode="normal" result="shape"/></filter><filter id="filter1_d_142_1144" width="26.018" height="26.018" x=".206" y=".168" color-interpolation-filters="sRGB" filterUnits="userSpaceOnUse"><feFlood flood-opacity="0" result="BackgroundImageFix"/><feColorMatrix in="SourceAlpha" result="hardAlpha" type="matrix" values="0 0 0 0 0 0 0 0 0 0 0 0 0 0 0 0 0 0 127 0"/><feOffset dx="1.412" dy="1.412"/><feComposite in2="hardAlpha" operator="out"/><feColorMatrix type="matrix" values="0 0 0 0 0 0 0 0 0 0 0 0 0 0 0 0 0 0 1 0"/><feBlend in2="BackgroundImageFix" mode="normal" result="effect1_dropShadow_142_1144"/><feBlend in="SourceGraphic" in2="effect1_dropShadow_142_1144" mode="normal" result="shape"/></filter><filter id="filter2_d_142_1144" width="25.98" height="26.018" x="25.226" y=".168" color-interpolation-filters="sRGB" filterUnits="userSpaceOnUse"><feFlood flood-opacity="0" result="BackgroundImageFix"/><feColorMatrix in="SourceAlpha" result="hardAlpha" type="matrix" values="0 0 0 0 0 0 0 0 0 0 0 0 0 0 0 0 0 0 127 0"/><feOffset dx="1.412" dy="1.412"/><feComposite in2="hardAlpha" operator="out"/><feColorMatrix type="matrix" values="0 0 0 0 0 0 0 0 0 0 0 0 0 0 0 0 0 0 1 0"/><feBlend in2="BackgroundImageFix" mode="normal" result="effect1_dropShadow_142_1144"/><feBlend in="SourceGraphic" in2="effect1_dropShadow_142_1144" mode="normal" result="shape"/></filter><filter id="filter3_d_142_1144" width="26.018" height="25.98" x="25.226" y="25.188" color-interpolation-filters="sRGB" filterUnits="userSpaceOnUse"><feFlood flood-opacity="0" result="BackgroundImageFix"/><feColorMatrix in="SourceAlpha" result="hardAlpha" type="matrix" values="0 0 0 0 0 0 0 0 0 0 0 0 0 0 0 0 0 0 127 0"/><feOffset dx="1.412" dy="1.412"/><feComposite in2="hardAlpha" operator="out"/><feColorMatrix type="matrix" values="0 0 0 0 0 0 0 0 0 0 0 0 0 0 0 0 0 0 1 0"/><feBlend in2="BackgroundImageFix" mode="normal" result="effect1_dropShadow_142_1144"/><feBlend in="SourceGraphic" in2="effect1_dropShadow_142_1144" mode="normal" result="shape"/></filter></defs></svg>