<svg width="91" height="97" viewBox="0 0 91 97" fill="none" xmlns="http://www.w3.org/2000/svg">
<path d="M35.5175 13.2619L36.8506 7.89321L38.7837 13.0762C43.2527 25.0582 52.8199 34.1606 64.6118 37.5433L70.0322 39.0982L64.823 41.2576C53.4906 45.9552 45.0169 56.0835 41.9351 68.4948L40.602 73.8636L38.6689 68.6806C34.2 56.6986 24.6327 47.5962 12.8408 44.2135L7.42039 42.6586L12.6296 40.4992C23.962 35.8016 32.4357 25.6733 35.5175 13.2619Z" fill="#69D3FA" stroke="black" stroke-width="3.44543"/>
<path d="M79.2924 4.82864C76.8562 10.1516 69.7772 20.0786 60.9512 17.2025M70.1483 33.5387C72.7482 27.6877 80.1566 16.7051 88.9909 19.5834M79.2524 4.51248C78.8785 8.29969 80.3289 16.5904 89.1215 19.4555M70.2494 33.6996C70.7527 29.4899 69.5591 20.3537 60.7592 17.4857" stroke="black" stroke-width="2.54848" stroke-linecap="round"/>
<path d="M14.5618 65.0666C15.8996 70.7437 20.9339 81.8234 30.369 80.7254M17.8498 94.9323C16.4571 88.706 11.3103 76.5282 1.86509 77.6267M14.7155 64.7346C14.3061 68.5065 11.1394 76.3233 1.74748 77.4159M17.6642 95.0999C18.0317 90.8895 21.1171 82.1949 30.5188 81.1005" stroke="black" stroke-width="2.54848" stroke-linecap="round"/>
</svg>
