<svg width="16" height="17" viewBox="0 0 16 17" fill="none" xmlns="http://www.w3.org/2000/svg">
<g clip-path="url(#clip0_302_927)">
<path d="M13.901 1.38257H2.09895C1.30792 1.38257 0.666656 2.02383 0.666656 2.81486V14.6169C0.666656 15.408 1.30792 16.0492 2.09895 16.0492H13.901C14.6921 16.0492 15.3333 15.408 15.3333 14.6169V2.81486C15.3333 2.02383 14.6921 1.38257 13.901 1.38257Z" fill="url(#paint0_linear_302_927)"/>
<path d="M12.7392 3.28931H9.64087C9.26117 3.28931 8.95337 3.59711 8.95337 3.97681V9.01847C8.95337 9.39817 9.26117 9.70597 9.64087 9.70597H12.7392C13.1189 9.70597 13.4267 9.39817 13.4267 9.01847V3.97681C13.4267 3.59711 13.1189 3.28931 12.7392 3.28931Z" fill="#74247A"/>
<path d="M6.35923 3.28931H3.26089C2.8812 3.28931 2.57339 3.59711 2.57339 3.97681V12.6851C2.57339 13.0648 2.8812 13.3726 3.26089 13.3726H6.35923C6.73892 13.3726 7.04673 13.0648 7.04673 12.6851V3.97681C7.04673 3.59711 6.73892 3.28931 6.35923 3.28931Z" fill="#74247A"/>
</g>
<defs>
<linearGradient id="paint0_linear_302_927" x1="7.99999" y1="1.38257" x2="7.99999" y2="16.0492" gradientUnits="userSpaceOnUse">
<stop stop-color="#0091E6"/>
<stop offset="1" stop-color="#0079BF"/>
</linearGradient>
<clipPath id="clip0_302_927">
<rect width="16" height="16" fill="white" transform="translate(0 0.715942)"/>
</clipPath>
</defs>
</svg>
