<svg xmlns="http://www.w3.org/2000/svg" width="74" height="74" fill="none" viewBox="0 0 74 74"><path fill="#000" d="M2.52188 25.2409V39.4959C2.52188 44.8703 6.25808 48.4053 11.1439 48.4053C13.5293 48.4053 15.6273 47.4856 17.1505 45.9049V48.0317H20.5418V25.2409H17.1218V39.2948C17.1218 42.916 14.6789 45.3589 11.5462 45.3589C8.3561 45.3589 5.94194 42.9735 5.94194 39.2948V25.2409H2.52188ZM23.9044 25.2409V48.0317H27.152V45.9337C27.9247 46.7189 28.8464 47.342 29.863 47.7665C30.8797 48.1909 31.9708 48.4081 33.0725 48.4053C34.2193 48.4169 35.3568 48.1995 36.4186 47.7659C37.4803 47.3324 38.4449 46.6914 39.2558 45.8804C40.0667 45.0695 40.7077 44.1049 41.1413 43.0432C41.5748 41.9815 41.7922 40.8439 41.7807 39.6971C41.7807 38.5576 41.5549 37.4293 41.1162 36.3776C40.6776 35.3259 40.0347 34.3715 39.225 33.5698C38.4152 32.768 37.4545 32.1347 36.3985 31.7065C35.3424 31.2783 34.212 31.0637 33.0725 31.0751C31.9752 31.073 30.8885 31.2906 29.8767 31.7151C28.8648 32.1396 27.9481 32.7624 27.1808 33.5468V25.2409H23.9044ZM52.2708 31.0751C47.4137 31.0751 43.735 35.0412 43.735 39.6971C43.735 44.6691 47.5862 48.3191 52.5582 48.3191C55.6046 48.3191 58.0763 47.0545 59.7144 44.8416L57.3578 43.0597C56.1219 44.7266 54.4838 45.4451 52.5582 45.4451C49.7704 45.4451 47.5287 43.4908 47.0688 40.7892H60.5766V39.6971C60.5766 34.7826 57.0416 31.0751 52.2708 31.0751M70.3482 31.305C68.5376 31.305 67.1868 32.1385 66.3821 33.4605V31.42H63.1345V48.0317H66.4108V38.5763C66.4108 36.0184 67.9915 34.3515 70.147 34.3515H71.4978V31.2763H70.3482M52.2133 33.9491C54.6562 33.9491 56.6967 35.6448 57.2428 38.1739H47.0688C47.7299 35.6448 49.7704 33.9491 52.2133 33.9491ZM32.8426 33.9491C35.9752 33.9491 38.5331 36.5357 38.5331 39.6971C38.5331 42.9447 35.9752 45.4451 32.8426 45.4451C31.3231 45.4375 29.8684 44.8286 28.7967 43.7514C27.7249 42.6743 27.1233 41.2166 27.1233 39.6971C27.1233 38.1776 27.7249 36.7199 28.7967 35.6428C29.8684 34.5657 31.3231 33.9567 32.8426 33.9491V33.9491Z"/><path stroke="#000" stroke-width=".5" d="M52.2708 31.0751C47.4137 31.0751 43.735 35.0412 43.735 39.6971C43.735 44.6691 47.5862 48.3191 52.5582 48.3191C55.6046 48.3191 58.0763 47.0545 59.7144 44.8416L57.3578 43.0597C56.1219 44.7266 54.4838 45.4451 52.5582 45.4451C49.7704 45.4451 47.5287 43.4908 47.0688 40.7892H60.5766V39.6971C60.5766 34.7826 57.0416 31.0751 52.2708 31.0751M70.3482 31.305C68.5376 31.305 67.1868 32.1385 66.3821 33.4605V31.42H63.1345V48.0317H66.4108V38.5763C66.4108 36.0184 67.9915 34.3515 70.147 34.3515H71.4978V31.2763H70.3482M2.52188 25.2409V39.4959C2.52188 44.8703 6.25808 48.4053 11.1439 48.4053C13.5293 48.4053 15.6273 47.4856 17.1505 45.9049V48.0317H20.5418V25.2409H17.1218V39.2948C17.1218 42.916 14.6789 45.3589 11.5462 45.3589C8.3561 45.3589 5.94194 42.9735 5.94194 39.2948V25.2409H2.52188ZM23.9044 25.2409V48.0317H27.152V45.9337C27.9247 46.7189 28.8464 47.342 29.863 47.7665C30.8797 48.1909 31.9708 48.4081 33.0725 48.4053C34.2193 48.4169 35.3568 48.1995 36.4186 47.7659C37.4803 47.3324 38.4449 46.6914 39.2558 45.8804C40.0667 45.0695 40.7077 44.1049 41.1413 43.0432C41.5748 41.9815 41.7922 40.8439 41.7807 39.6971C41.7807 38.5576 41.5549 37.4293 41.1162 36.3776C40.6776 35.3259 40.0347 34.3715 39.225 33.5698C38.4152 32.768 37.4545 32.1347 36.3985 31.7065C35.3424 31.2783 34.212 31.0637 33.0725 31.0751C31.9752 31.073 30.8885 31.2906 29.8767 31.7151C28.8648 32.1396 27.9481 32.7624 27.1808 33.5468V25.2409H23.9044ZM52.2133 33.9491C54.6562 33.9491 56.6967 35.6448 57.2428 38.1739H47.0688C47.7299 35.6448 49.7704 33.9491 52.2133 33.9491ZM32.8426 33.9491C35.9752 33.9491 38.5331 36.5357 38.5331 39.6971C38.5331 42.9447 35.9752 45.4451 32.8426 45.4451C31.3231 45.4375 29.8684 44.8286 28.7967 43.7514C27.7249 42.6743 27.1233 41.2166 27.1233 39.6971C27.1233 38.1776 27.7249 36.7199 28.7967 35.6428C29.8684 34.5657 31.3231 33.9567 32.8426 33.9491V33.9491Z"/></svg>