<svg width="86" height="86" viewBox="0 0 86 86" fill="none" xmlns="http://www.w3.org/2000/svg">
<path d="M54.9293 2.52877L54.9302 2.52904C58.0153 3.43783 59.7804 6.67569 58.8703 9.76229C58.8702 9.76256 58.8702 9.76283 58.8701 9.7631L54.9117 23.2097L54.9117 23.2099C52.2838 32.1335 57.3874 41.4968 66.3117 44.1244L66.3119 44.1245L79.7583 48.0852L54.9293 2.52877ZM54.9293 2.52877C51.843 1.62177 48.6059 3.38513 47.6977 6.47133M54.9293 2.52877L47.6977 6.47133M47.6977 6.47133L43.7372 19.9195L45.0562 20.308L43.7372 19.9195C41.1093 28.8434 31.7459 33.947 22.8226 31.3196L9.3746 27.3601C6.28887 26.4515 3.05082 28.2165 2.14227 31.3022C1.23371 34.388 2.99869 37.626 6.08442 38.5346L19.5324 42.4941C28.4557 45.1215 33.5595 54.4847 30.9324 63.4087C30.9324 63.4087 30.9324 63.4088 30.9324 63.4088L26.9723 76.8557L26.9721 76.8565C26.0649 79.9433 27.8289 83.1795 30.9148 84.0898L30.9157 84.0901C34.001 84.9981 37.239 83.2333 38.1468 80.146C38.1468 80.1457 38.1469 80.1455 38.147 80.1452L42.1069 66.699L42.1069 66.6989C44.734 57.775 54.0972 52.6713 63.0215 55.2989L63.0217 55.299L76.469 59.2567L47.6977 6.47133ZM83.7001 55.3168C82.7924 58.4032 79.5559 60.1672 76.4701 59.2571L83.7001 55.3168ZM83.7001 55.3168C84.6109 52.2304 82.8466 48.993 79.7594 48.0855L83.7001 55.3168Z" fill="#FFC700" stroke="black" stroke-width="3"/>
</svg>
