<svg width="18" height="18" viewBox="0 0 18 18" fill="none" xmlns="http://www.w3.org/2000/svg">
<path fill-rule="evenodd" clip-rule="evenodd" d="M9.61398 0.614052C9.61398 0.274911 9.3392 0 8.99994 0C8.6608 0 8.38589 0.274911 8.38589 0.614052V5.52646C8.38589 5.8656 8.6608 6.14052 8.99994 6.14052C9.3392 6.14052 9.61398 5.8656 9.61398 5.52646V0.614052ZM15.3639 2.63606C15.6037 2.87585 15.6037 3.26467 15.3639 3.50445L11.8903 6.97805C11.6505 7.21787 11.2618 7.21787 11.022 6.97805C10.7822 6.73826 10.7822 6.34945 11.022 6.10966L14.4956 2.63606C14.7354 2.39624 15.1241 2.39624 15.3639 2.63606ZM6.97798 11.8905C7.21776 11.6507 7.21776 11.2617 6.97798 11.0219C6.73816 10.7821 6.34938 10.7821 6.1096 11.0219L2.63604 14.4956C2.39622 14.7354 2.39622 15.1241 2.63604 15.3639C2.87582 15.6037 3.2646 15.6037 3.50442 15.3639L6.97798 11.8905ZM11.8903 11.0219C11.6505 10.7821 11.2618 10.7821 11.022 11.0219C10.7822 11.2617 10.7822 11.6507 11.022 11.8905L14.4956 15.3639C14.7354 15.6037 15.1241 15.6037 15.3639 15.3639C15.6037 15.1241 15.6037 14.7354 15.3639 14.4956L11.8903 11.0219ZM3.50442 2.63606C3.2646 2.39624 2.87582 2.39624 2.63604 2.63606C2.39622 2.87585 2.39622 3.26467 2.63604 3.50445L6.1096 6.97805C6.34938 7.21787 6.73816 7.21787 6.97798 6.97805C7.21776 6.73826 7.21776 6.34945 6.97798 6.10966L3.50442 2.63606ZM8.99994 11.8595C9.3392 11.8595 9.61398 12.1343 9.61398 12.4735V17.3859C9.61398 17.7252 9.3392 18 8.99994 18C8.66083 18 8.38592 17.7252 8.38592 17.3859V12.4735C8.38592 12.1343 8.66083 11.8595 8.99994 11.8595ZM5.52641 9.6139C5.86551 9.6139 6.14045 9.33911 6.14045 8.99985C6.14045 8.66086 5.86551 8.38595 5.52641 8.38595H0.614045C0.274908 8.38595 0 8.66086 0 8.99985C0 9.33911 0.274908 9.6139 0.614045 9.6139H5.52641ZM18 8.99985C18 9.33911 17.7249 9.6139 17.386 9.6139H12.4736C12.1343 9.6139 11.8595 9.33911 11.8595 8.99985C11.8595 8.66086 12.1343 8.38595 12.4736 8.38595H17.386C17.7249 8.38595 18 8.66086 18 8.99985Z" fill="black"/>
</svg>
