<svg width="53" height="53" viewBox="0 0 53 53" fill="none" xmlns="http://www.w3.org/2000/svg">
<path d="M49.2375 22.2286C51.1373 21.5282 52.1082 19.4206 51.4075 17.5222L51.4072 17.5216C50.7052 15.6234 48.599 14.6525 46.7004 15.3539M49.2375 22.2286L48.8916 21.2905L49.238 22.2284L49.2375 22.2286ZM49.2375 22.2286L41.1358 25.2207L41.1357 25.2208C35.798 27.1915 33.069 33.1156 35.04 38.4536L35.0401 38.4537L38.0309 46.5562M38.0309 46.5562L37.0931 46.9031M38.0309 46.5562C38.7335 48.455 37.763 50.5621 35.8635 51.2625M38.0309 46.5562L38.0312 46.5569L37.0931 46.9031M37.0931 46.9031L34.1019 38.8C31.9396 32.9439 34.9335 26.4447 40.7893 24.2827L48.8916 21.2904C50.273 20.7811 50.9788 19.2488 50.4693 17.8685C49.9586 16.4876 48.4271 15.7821 47.0469 16.2919L38.9434 19.2836C33.0876 21.4456 26.5883 18.4518 24.4261 12.5963L21.4341 4.4934C20.9243 3.11298 19.392 2.40712 18.0116 2.91685C16.6312 3.42658 15.9253 4.95889 16.4351 6.33931L19.4271 14.4422C21.5893 20.2977 18.5954 26.797 12.7397 28.9595M37.0931 46.9031L35.8635 51.2625M12.7397 28.9595L12.3934 28.0214L12.3933 28.0214M12.7397 28.9595L12.3933 28.0214M12.7397 28.9595L4.63712 31.9509C3.25625 32.4616 2.55073 33.9932 3.06001 35.3746C3.56985 36.7548 5.10216 37.4606 6.48304 36.9499L14.5856 33.9585C20.4413 31.796 26.9406 34.7898 29.1029 40.6459L32.0958 48.7484M12.3933 28.0214C17.7309 26.0502 20.4598 20.1259 18.489 14.7886L15.497 6.68571C14.7959 4.78719 15.7667 2.6798 17.6652 1.97876C19.5637 1.27772 21.6711 2.24849 22.3722 4.14701L25.3642 12.2499C27.335 17.5873 33.2592 20.3163 38.5971 18.3455L38.9178 19.2141L38.5971 18.3455L46.7004 15.3539M12.3933 28.0214L4.29078 31.0128L4.29025 31.013C2.39176 31.7151 1.42156 33.8213 2.12175 35.7205L2.12197 35.7211C2.82319 37.6193 4.93078 38.5902 6.82991 37.8878M46.7004 15.3539L47.0469 16.2919L46.7005 15.3538L46.7004 15.3539ZM6.82991 37.8878L14.932 34.8966L14.932 34.8966C20.2696 32.9254 26.1938 35.6543 28.1648 40.9923L28.1649 40.9924L31.1575 49.0942M6.82991 37.8878L6.82938 37.888L6.48309 36.95L6.82991 37.8878ZM32.0958 48.7484L31.1575 49.0942M32.0958 48.7484C32.6049 50.1297 34.1364 50.8352 35.5171 50.3244M32.0958 48.7484L31.1578 49.0949L31.1575 49.0942M31.1575 49.0942L35.5171 50.3244M35.8635 51.2625C35.8633 51.2626 35.8631 51.2626 35.8629 51.2627L35.5171 50.3244M35.8635 51.2625C35.8637 51.2624 35.8639 51.2623 35.8641 51.2623L35.5171 50.3244" fill="#5CF1A4" stroke="black" stroke-width="2"/>
</svg>
