<svg xmlns="http://www.w3.org/2000/svg" width="27" height="22" fill="none" viewBox="0 0 27 22"><g filter="url(#filter0_dd_144_2148)"><path fill="#fff" d="M21.7225 6.1175C21.6186 5.70223 21.4069 5.32175 21.1088 5.01448C20.8108 4.70721 20.4369 4.48404 20.025 4.3675C18.52 4 12.5 4 12.5 4C12.5 4 6.48001 4 4.97501 4.4025C4.5631 4.51904 4.18924 4.74221 3.89119 5.04948C3.59314 5.35675 3.38145 5.73723 3.27751 6.1525C3.00207 7.67986 2.86734 9.22927 2.87501 10.7813C2.86519 12.3449 2.99993 13.9061 3.27751 15.445C3.3921 15.8474 3.60853 16.2134 3.90589 16.5077C4.20325 16.802 4.57148 17.0146 4.97501 17.125C6.48001 17.5275 12.5 17.5275 12.5 17.5275C12.5 17.5275 18.52 17.5275 20.025 17.125C20.4369 17.0085 20.8108 16.7853 21.1088 16.478C21.4069 16.1708 21.6186 15.7903 21.7225 15.375C21.9958 13.8591 22.1305 12.3215 22.125 10.7813C22.1348 9.21759 22.0001 7.65636 21.7225 6.1175V6.1175Z"/><path stroke="#000" stroke-linecap="round" stroke-linejoin="round" stroke-width="2" d="M20.2972 3.40527C20.2856 3.40198 20.274 3.39891 20.2622 3.39604C19.7903 3.28079 19.0495 3.20845 18.2808 3.15725C17.4861 3.10433 16.5779 3.06944 15.7253 3.04631C14.8712 3.02313 14.0656 3.01157 13.4739 3.00579C13.1779 3.0029 12.935 3.00145 12.7659 3.00073L12.57 3.00009L12.5183 3.00001L12.5049 3L12.5013 3L12.5004 3H12.5001C12.5001 3 12.5 3 12.5 4C12.5 3 12.5 3 12.4999 3L12.4996 3L12.4987 3L12.4951 3L12.4816 3.00001L12.4298 3.0001L12.2337 3.0008C12.0644 3.00159 11.8214 3.00318 11.5252 3.00635C10.9332 3.01268 10.127 3.02535 9.27218 3.05075C8.419 3.07611 7.50938 3.11437 6.71297 3.17245C5.94453 3.2285 5.19655 3.30811 4.71665 3.43645L4.70278 3.44027C4.12153 3.60471 3.59398 3.91963 3.1734 4.35322C2.75282 4.78681 2.45411 5.32371 2.30744 5.90969C2.30203 5.93131 2.29734 5.9531 2.29339 5.97503C2.00743 7.56074 1.86738 9.16931 1.875 10.7806C1.86515 12.404 2.00521 14.0248 2.29339 15.6225C2.29925 15.655 2.30671 15.6872 2.31575 15.7189C2.47745 16.2867 2.78285 16.8032 3.20245 17.2184C3.62206 17.6337 4.14167 17.9337 4.71109 18.0895L4.71109 18.0896L4.71665 18.091C5.19655 18.2194 5.94453 18.299 6.71297 18.355C7.50938 18.4131 8.419 18.4514 9.27218 18.4767C10.127 18.5021 10.9332 18.5148 11.5252 18.5212C11.8214 18.5243 12.0644 18.5259 12.2337 18.5267L12.4298 18.5274L12.4816 18.5275L12.4951 18.5275L12.4987 18.5275H12.4996H12.4999C12.5 18.5275 12.5 18.5275 12.5 17.5275C12.5 18.5275 12.5001 18.5275 12.5001 18.5275H12.5004H12.5014L12.5049 18.5275L12.5184 18.5275L12.5702 18.5274L12.7663 18.5267C12.9356 18.5259 13.1786 18.5243 13.4748 18.5212C14.0668 18.5148 14.8731 18.5021 15.7278 18.4767C16.581 18.4514 17.4906 18.4131 18.2871 18.355C19.0555 18.299 19.8035 18.2194 20.2834 18.091L20.2972 18.0872C20.8785 17.9228 21.406 17.6079 21.8266 17.1743C22.2472 16.7407 22.5459 16.2038 22.6926 15.6178C22.698 15.5962 22.7027 15.5744 22.7066 15.5524C22.9904 13.9785 23.1305 12.3819 23.125 10.7826C23.1349 9.15895 22.9949 7.53787 22.7066 5.93999L21.7225 6.1175L22.6926 5.87469C22.5459 5.28871 22.2472 4.75181 21.8266 4.31822C21.406 3.88463 20.8785 3.56971 20.2972 3.40527Z"/></g><path fill="#fff" stroke="#000" stroke-linecap="round" stroke-linejoin="round" stroke-width="2" d="M10.5312 13.6424L15.5625 10.7812L10.5312 7.91992V13.6424Z"/><defs><filter id="filter0_dd_144_2148" width="25.251" height="19.528" x=".875" y="2" color-interpolation-filters="sRGB" filterUnits="userSpaceOnUse"><feFlood flood-opacity="0" result="BackgroundImageFix"/><feColorMatrix in="SourceAlpha" result="hardAlpha" type="matrix" values="0 0 0 0 0 0 0 0 0 0 0 0 0 0 0 0 0 0 127 0"/><feOffset dx="1" dy="1"/><feComposite in2="hardAlpha" operator="out"/><feColorMatrix type="matrix" values="0 0 0 0 0 0 0 0 0 0 0 0 0 0 0 0 0 0 1 0"/><feBlend in2="BackgroundImageFix" mode="normal" result="effect1_dropShadow_144_2148"/><feColorMatrix in="SourceAlpha" result="hardAlpha" type="matrix" values="0 0 0 0 0 0 0 0 0 0 0 0 0 0 0 0 0 0 127 0"/><feOffset dx="2" dy="2"/><feComposite in2="hardAlpha" operator="out"/><feColorMatrix type="matrix" values="0 0 0 0 0 0 0 0 0 0 0 0 0 0 0 0 0 0 1 0"/><feBlend in2="effect1_dropShadow_144_2148" mode="normal" result="effect2_dropShadow_144_2148"/><feBlend in="SourceGraphic" in2="effect2_dropShadow_144_2148" mode="normal" result="shape"/></filter></defs></svg>