<svg xmlns="http://www.w3.org/2000/svg" width="16" height="17" fill="none" viewBox="0 0 16 17"><g clip-path="url(#clip0_302_933)"><path fill="#4A8CFF" d="M7.99999 15.4848C12.0501 15.4848 15.3333 12.2015 15.3333 8.15145C15.3333 4.10136 12.0501 0.818115 7.99999 0.818115C3.9499 0.818115 0.666656 4.10136 0.666656 8.15145C0.666656 12.2015 3.9499 15.4848 7.99999 15.4848Z"/><path fill="#74247A" d="M3.29477 5.85556V9.30179C3.29658 9.67557 3.44671 10.0333 3.71218 10.2965C3.97765 10.5596 4.33673 10.7066 4.71052 10.7051H9.73395C9.80185 10.7054 9.86712 10.6788 9.91543 10.6311C9.96374 10.5834 9.99114 10.5184 9.99164 10.4505V7.0043C9.98983 6.63052 9.83969 6.27274 9.57422 6.0096C9.30875 5.74646 8.94967 5.59948 8.57589 5.60097H3.55401C3.52026 5.6006 3.48676 5.6069 3.45545 5.61951C3.42413 5.63211 3.39561 5.65078 3.37153 5.67443C3.34744 5.69808 3.32826 5.72626 3.31509 5.75734C3.30192 5.78842 3.29501 5.8218 3.29477 5.85556V5.85556ZM10.3114 7.1999L12.3854 5.6848C12.5654 5.53546 12.7052 5.57303 12.7052 5.84314V10.463C12.7052 10.7703 12.5344 10.7331 12.3854 10.621L10.3114 9.1093V7.1999Z"/></g><defs><clipPath id="clip0_302_933"><rect width="16" height="16" fill="#fff" transform="translate(0 0.151489)"/></clipPath></defs></svg>